<svg width="20" height="16" viewBox="0 0 20 16" fill="none" xmlns="http://www.w3.org/2000/svg">
<path d="M16.7001 8.75C16.5001 8.75 16.325 8.679 16.175 8.537C16.025 8.39567 15.95 8.21667 15.95 8C15.95 7.78333 16.025 7.604 16.175 7.462C16.325 7.32067 16.5001 7.25 16.7001 7.25H18.8251C19.0417 7.25 19.2211 7.32067 19.3631 7.462C19.5044 7.604 19.5751 7.78333 19.5751 8C19.5751 8.21667 19.5044 8.39567 19.3631 8.537C19.2211 8.679 19.0417 8.75 18.8251 8.75H16.7001ZM16.5 15.025L14.825 13.775C14.6417 13.6417 14.5377 13.475 14.513 13.275C14.4877 13.075 14.5417 12.8917 14.675 12.725C14.7917 12.5417 14.95 12.4377 15.15 12.413C15.35 12.3877 15.5417 12.4333 15.725 12.55L17.4 13.825C17.5834 13.9583 17.6874 14.125 17.712 14.325C17.7374 14.525 17.6834 14.7083 17.55 14.875C17.4334 15.0583 17.2751 15.1627 17.0751 15.188C16.8751 15.2127 16.6834 15.1583 16.5 15.025ZM15.675 3.4C15.5084 3.53333 15.325 3.58333 15.125 3.55C14.925 3.51667 14.7584 3.41667 14.625 3.25C14.4917 3.06667 14.4417 2.875 14.475 2.675C14.5084 2.475 14.6084 2.31667 14.775 2.2L16.475 0.924999C16.6417 0.791666 16.825 0.741666 17.025 0.774999C17.225 0.808333 17.3917 0.908332 17.525 1.075C17.6584 1.25833 17.7084 1.45 17.675 1.65C17.6417 1.85 17.5417 2.00833 17.375 2.125L15.675 3.4ZM3.25005 14.475V10.575H2.22505C1.72505 10.575 1.30005 10.4 0.950049 10.05C0.600049 9.7 0.425049 9.275 0.425049 8.775V7.225C0.425049 6.725 0.600049 6.3 0.950049 5.95C1.30005 5.6 1.72505 5.425 2.22505 5.425H6.10005L9.20005 3.575C9.50005 3.39167 9.80438 3.38733 10.113 3.562C10.421 3.73733 10.575 4 10.575 4.35V11.65C10.575 12 10.421 12.2627 10.113 12.438C9.80438 12.6127 9.50005 12.6083 9.20005 12.425L6.10005 10.575H4.75005V14.475H3.25005ZM11.95 11.125V4.875C12.35 5.24167 12.671 5.69167 12.913 6.225C13.1544 6.75833 13.275 7.35 13.275 8C13.275 8.65 13.1544 9.24167 12.913 9.775C12.671 10.3083 12.35 10.7583 11.95 11.125ZM9.07505 10.575V5.425L6.50005 6.925H2.22505C2.15838 6.925 2.09172 6.95833 2.02505 7.025C1.95838 7.09167 1.92505 7.15833 1.92505 7.225V8.775C1.92505 8.84167 1.95838 8.90833 2.02505 8.975C2.09172 9.04167 2.15838 9.075 2.22505 9.075H6.50005L9.07505 10.575Z" fill="#334F98"/>
</svg>
