<svg width="24" height="24" viewBox="0 0 24 24" fill="none" xmlns="http://www.w3.org/2000/svg">
<mask id="mask0_974_630" style="mask-type:alpha" maskUnits="userSpaceOnUse" x="0" y="0" width="24" height="24">
<rect width="24" height="24" fill="#D9D9D9"/>
</mask>
<g mask="url(#mask0_974_630)">
<path d="M18.7001 12.75C18.5 12.75 18.325 12.679 18.175 12.537C18.025 12.3957 17.95 12.2167 17.95 12C17.95 11.7833 18.025 11.604 18.175 11.462C18.325 11.3207 18.5 11.25 18.7001 11.25H20.8251C21.0417 11.25 21.2211 11.3207 21.3631 11.462C21.5044 11.604 21.5751 11.7833 21.5751 12C21.5751 12.2167 21.5044 12.3957 21.3631 12.537C21.2211 12.679 21.0417 12.75 20.8251 12.75H18.7001ZM18.5 19.025L16.825 17.775C16.6417 17.6417 16.5377 17.475 16.513 17.275C16.4877 17.075 16.5417 16.8917 16.675 16.725C16.7917 16.5417 16.95 16.4377 17.15 16.413C17.35 16.3877 17.5417 16.4333 17.725 16.55L19.4 17.825C19.5834 17.9583 19.6874 18.125 19.712 18.325C19.7374 18.525 19.6834 18.7083 19.55 18.875C19.4334 19.0583 19.2751 19.1627 19.0751 19.188C18.875 19.2127 18.6834 19.1583 18.5 19.025ZM17.675 7.4C17.5084 7.53333 17.325 7.58333 17.125 7.55C16.925 7.51667 16.7584 7.41667 16.625 7.25C16.4917 7.06667 16.4417 6.875 16.475 6.675C16.5084 6.475 16.6084 6.31667 16.775 6.2L18.475 4.925C18.6417 4.79167 18.825 4.74167 19.025 4.775C19.225 4.80833 19.3917 4.90833 19.525 5.075C19.6584 5.25833 19.7084 5.45 19.675 5.65C19.6417 5.85 19.5417 6.00833 19.375 6.125L17.675 7.4ZM5.25005 18.475V14.575H4.22505C3.72505 14.575 3.30005 14.4 2.95005 14.05C2.60005 13.7 2.42505 13.275 2.42505 12.775V11.225C2.42505 10.725 2.60005 10.3 2.95005 9.95C3.30005 9.6 3.72505 9.425 4.22505 9.425H8.10005L11.2 7.575C11.5 7.39167 11.8044 7.38733 12.113 7.562C12.421 7.73733 12.575 8 12.575 8.35V15.65C12.575 16 12.421 16.2627 12.113 16.438C11.8044 16.6127 11.5 16.6083 11.2 16.425L8.10005 14.575H6.75005V18.475H5.25005ZM13.95 15.125V8.875C14.35 9.24167 14.671 9.69167 14.913 10.225C15.1544 10.7583 15.275 11.35 15.275 12C15.275 12.65 15.1544 13.2417 14.913 13.775C14.671 14.3083 14.35 14.7583 13.95 15.125ZM11.075 14.575V9.425L8.50005 10.925H4.22505C4.15838 10.925 4.09172 10.9583 4.02505 11.025C3.95838 11.0917 3.92505 11.1583 3.92505 11.225V12.775C3.92505 12.8417 3.95838 12.9083 4.02505 12.975C4.09172 13.0417 4.15838 13.075 4.22505 13.075H8.50005L11.075 14.575Z" fill="white"/>
<path d="M18.7001 12.75C18.5 12.75 18.325 12.679 18.175 12.537C18.025 12.3957 17.95 12.2167 17.95 12C17.95 11.7833 18.025 11.604 18.175 11.462C18.325 11.3207 18.5 11.25 18.7001 11.25H20.8251C21.0417 11.25 21.2211 11.3207 21.3631 11.462C21.5044 11.604 21.5751 11.7833 21.5751 12C21.5751 12.2167 21.5044 12.3957 21.3631 12.537C21.2211 12.679 21.0417 12.75 20.8251 12.75H18.7001ZM18.5 19.025L16.825 17.775C16.6417 17.6417 16.5377 17.475 16.513 17.275C16.4877 17.075 16.5417 16.8917 16.675 16.725C16.7917 16.5417 16.95 16.4377 17.15 16.413C17.35 16.3877 17.5417 16.4333 17.725 16.55L19.4 17.825C19.5834 17.9583 19.6874 18.125 19.712 18.325C19.7374 18.525 19.6834 18.7083 19.55 18.875C19.4334 19.0583 19.2751 19.1627 19.0751 19.188C18.875 19.2127 18.6834 19.1583 18.5 19.025ZM17.675 7.4C17.5084 7.53333 17.325 7.58333 17.125 7.55C16.925 7.51667 16.7584 7.41667 16.625 7.25C16.4917 7.06667 16.4417 6.875 16.475 6.675C16.5084 6.475 16.6084 6.31667 16.775 6.2L18.475 4.925C18.6417 4.79167 18.825 4.74167 19.025 4.775C19.225 4.80833 19.3917 4.90833 19.525 5.075C19.6584 5.25833 19.7084 5.45 19.675 5.65C19.6417 5.85 19.5417 6.00833 19.375 6.125L17.675 7.4ZM5.25005 18.475V14.575H4.22505C3.72505 14.575 3.30005 14.4 2.95005 14.05C2.60005 13.7 2.42505 13.275 2.42505 12.775V11.225C2.42505 10.725 2.60005 10.3 2.95005 9.95C3.30005 9.6 3.72505 9.425 4.22505 9.425H8.10005L11.2 7.575C11.5 7.39167 11.8044 7.38733 12.113 7.562C12.421 7.73733 12.575 8 12.575 8.35V15.65C12.575 16 12.421 16.2627 12.113 16.438C11.8044 16.6127 11.5 16.6083 11.2 16.425L8.10005 14.575H6.75005V18.475H5.25005ZM13.95 15.125V8.875C14.35 9.24167 14.671 9.69167 14.913 10.225C15.1544 10.7583 15.275 11.35 15.275 12C15.275 12.65 15.1544 13.2417 14.913 13.775C14.671 14.3083 14.35 14.7583 13.95 15.125ZM11.075 14.575V9.425L8.50005 10.925H4.22505C4.15838 10.925 4.09172 10.9583 4.02505 11.025C3.95838 11.0917 3.92505 11.1583 3.92505 11.225V12.775C3.92505 12.8417 3.95838 12.9083 4.02505 12.975C4.09172 13.0417 4.15838 13.075 4.22505 13.075H8.50005L11.075 14.575Z" fill="black" fill-opacity="0.7"/>
<path d="M18.7001 12.75C18.5 12.75 18.325 12.679 18.175 12.537C18.025 12.3957 17.95 12.2167 17.95 12C17.95 11.7833 18.025 11.604 18.175 11.462C18.325 11.3207 18.5 11.25 18.7001 11.25H20.8251C21.0417 11.25 21.2211 11.3207 21.3631 11.462C21.5044 11.604 21.5751 11.7833 21.5751 12C21.5751 12.2167 21.5044 12.3957 21.3631 12.537C21.2211 12.679 21.0417 12.75 20.8251 12.75H18.7001ZM18.5 19.025L16.825 17.775C16.6417 17.6417 16.5377 17.475 16.513 17.275C16.4877 17.075 16.5417 16.8917 16.675 16.725C16.7917 16.5417 16.95 16.4377 17.15 16.413C17.35 16.3877 17.5417 16.4333 17.725 16.55L19.4 17.825C19.5834 17.9583 19.6874 18.125 19.712 18.325C19.7374 18.525 19.6834 18.7083 19.55 18.875C19.4334 19.0583 19.2751 19.1627 19.0751 19.188C18.875 19.2127 18.6834 19.1583 18.5 19.025ZM17.675 7.4C17.5084 7.53333 17.325 7.58333 17.125 7.55C16.925 7.51667 16.7584 7.41667 16.625 7.25C16.4917 7.06667 16.4417 6.875 16.475 6.675C16.5084 6.475 16.6084 6.31667 16.775 6.2L18.475 4.925C18.6417 4.79167 18.825 4.74167 19.025 4.775C19.225 4.80833 19.3917 4.90833 19.525 5.075C19.6584 5.25833 19.7084 5.45 19.675 5.65C19.6417 5.85 19.5417 6.00833 19.375 6.125L17.675 7.4ZM5.25005 18.475V14.575H4.22505C3.72505 14.575 3.30005 14.4 2.95005 14.05C2.60005 13.7 2.42505 13.275 2.42505 12.775V11.225C2.42505 10.725 2.60005 10.3 2.95005 9.95C3.30005 9.6 3.72505 9.425 4.22505 9.425H8.10005L11.2 7.575C11.5 7.39167 11.8044 7.38733 12.113 7.562C12.421 7.73733 12.575 8 12.575 8.35V15.65C12.575 16 12.421 16.2627 12.113 16.438C11.8044 16.6127 11.5 16.6083 11.2 16.425L8.10005 14.575H6.75005V18.475H5.25005ZM13.95 15.125V8.875C14.35 9.24167 14.671 9.69167 14.913 10.225C15.1544 10.7583 15.275 11.35 15.275 12C15.275 12.65 15.1544 13.2417 14.913 13.775C14.671 14.3083 14.35 14.7583 13.95 15.125ZM11.075 14.575V9.425L8.50005 10.925H4.22505C4.15838 10.925 4.09172 10.9583 4.02505 11.025C3.95838 11.0917 3.92505 11.1583 3.92505 11.225V12.775C3.92505 12.8417 3.95838 12.9083 4.02505 12.975C4.09172 13.0417 4.15838 13.075 4.22505 13.075H8.50005L11.075 14.575Z" fill="#0055FF" fill-opacity="0.45"/>
</g>
</svg>
