<svg width="22" height="22" viewBox="0 0 22 22" fill="none" xmlns="http://www.w3.org/2000/svg">
<mask id="mask0_336_172" style="mask-type:alpha" maskUnits="userSpaceOnUse" x="0" y="0" width="22" height="22">
<rect width="22" height="22" fill="#D9D9D9"/>
</mask>
<g mask="url(#mask0_336_172)">
<path d="M14.0251 19.1812L6.39384 11.5729C6.31745 11.4965 6.26031 11.4085 6.22242 11.3089C6.18392 11.2099 6.16467 11.1069 6.16467 11C6.16467 10.893 6.18392 10.7898 6.22242 10.6901C6.26031 10.5911 6.31745 10.5035 6.39384 10.4271L14.0251 2.79581C14.2084 2.61248 14.4223 2.52081 14.6668 2.52081C14.9112 2.52081 15.1327 2.62012 15.3313 2.81873C15.5147 2.98679 15.6063 3.1967 15.6063 3.44848C15.6063 3.70087 15.5147 3.91873 15.3313 4.10206L8.41051 11L15.3313 17.9208C15.4994 18.0889 15.5834 18.2951 15.5834 18.5396C15.5834 18.784 15.4918 18.9979 15.3084 19.1812C15.1251 19.3646 14.9112 19.4562 14.6668 19.4562C14.4223 19.4562 14.2084 19.3646 14.0251 19.1812Z" fill="white"/>
<path d="M14.0251 19.1812L6.39384 11.5729C6.31745 11.4965 6.26031 11.4085 6.22242 11.3089C6.18392 11.2099 6.16467 11.1069 6.16467 11C6.16467 10.893 6.18392 10.7898 6.22242 10.6901C6.26031 10.5911 6.31745 10.5035 6.39384 10.4271L14.0251 2.79581C14.2084 2.61248 14.4223 2.52081 14.6668 2.52081C14.9112 2.52081 15.1327 2.62012 15.3313 2.81873C15.5147 2.98679 15.6063 3.1967 15.6063 3.44848C15.6063 3.70087 15.5147 3.91873 15.3313 4.10206L8.41051 11L15.3313 17.9208C15.4994 18.0889 15.5834 18.2951 15.5834 18.5396C15.5834 18.784 15.4918 18.9979 15.3084 19.1812C15.1251 19.3646 14.9112 19.4562 14.6668 19.4562C14.4223 19.4562 14.2084 19.3646 14.0251 19.1812Z" fill="black" fill-opacity="0.44"/>
<path d="M14.0251 19.1812L6.39384 11.5729C6.31745 11.4965 6.26031 11.4085 6.22242 11.3089C6.18392 11.2099 6.16467 11.1069 6.16467 11C6.16467 10.893 6.18392 10.7898 6.22242 10.6901C6.26031 10.5911 6.31745 10.5035 6.39384 10.4271L14.0251 2.79581C14.2084 2.61248 14.4223 2.52081 14.6668 2.52081C14.9112 2.52081 15.1327 2.62012 15.3313 2.81873C15.5147 2.98679 15.6063 3.1967 15.6063 3.44848C15.6063 3.70087 15.5147 3.91873 15.3313 4.10206L8.41051 11L15.3313 17.9208C15.4994 18.0889 15.5834 18.2951 15.5834 18.5396C15.5834 18.784 15.4918 18.9979 15.3084 19.1812C15.1251 19.3646 14.9112 19.4562 14.6668 19.4562C14.4223 19.4562 14.2084 19.3646 14.0251 19.1812Z" fill="#0055FF" fill-opacity="0.15"/>
</g>
</svg>
