<svg width="10" height="18" viewBox="0 0 10 18" fill="none" xmlns="http://www.w3.org/2000/svg">
<path d="M8.02509 17.1812L0.39384 9.5729C0.317451 9.49651 0.260312 9.40851 0.222423 9.3089C0.183923 9.2099 0.164673 9.10692 0.164673 8.99998C0.164673 8.89304 0.183923 8.78976 0.222423 8.69015C0.260312 8.59115 0.317451 8.50345 0.39384 8.42706L8.02509 0.795813C8.20842 0.61248 8.42231 0.520813 8.66676 0.520813C8.9112 0.520813 9.13273 0.620119 9.33134 0.81873C9.51467 0.986785 9.60634 1.1967 9.60634 1.44848C9.60634 1.70087 9.51467 1.91873 9.33134 2.10206L2.41051 8.99998L9.33134 15.9208C9.4994 16.0889 9.58342 16.2951 9.58342 16.5396C9.58342 16.784 9.49176 16.9979 9.30842 17.1812C9.12509 17.3646 8.9112 17.4562 8.66676 17.4562C8.42231 17.4562 8.20842 17.3646 8.02509 17.1812Z" fill="#7C869E"/>
</svg>
