<svg width="44" height="44" viewBox="0 0 44 44" fill="none" xmlns="http://www.w3.org/2000/svg">
<mask id="mask0_1099_795" style="mask-type:alpha" maskUnits="userSpaceOnUse" x="0" y="0" width="44" height="44">
<rect width="44" height="44" fill="#D9D9D9"/>
</mask>
<g mask="url(#mask0_1099_795)">
<path d="M22 31.2587C24.0475 31.2587 25.7815 30.5481 27.2019 29.1269C28.6231 27.7064 29.3337 25.9725 29.3337 23.925C29.3337 21.8475 28.6231 20.1058 27.2019 18.7C25.7815 17.2942 24.0475 16.5913 22 16.5913C19.9225 16.5913 18.1808 17.2942 16.775 18.7C15.3692 20.1058 14.6663 21.8475 14.6663 23.925C14.6663 25.9725 15.3692 27.7064 16.775 29.1269C18.1808 30.5481 19.9225 31.2587 22 31.2587ZM7.47124 37.5837C6.67631 37.5837 5.99651 37.301 5.43184 36.7356C4.86644 36.1702 4.58374 35.4904 4.58374 34.6962V13.1087C4.58374 12.3446 4.86644 11.6721 5.43184 11.0913C5.99651 10.5112 6.67631 10.2212 7.47124 10.2212H13.5212L16.0413 7.37879C16.2863 7.04292 16.5998 6.79872 16.9818 6.64619C17.3632 6.49292 17.768 6.41629 18.1962 6.41629H25.8038C26.2321 6.41629 26.6369 6.49292 27.0182 6.64619C27.4003 6.79872 27.7138 7.04292 27.9587 7.37879L30.4788 10.2212H36.5288C37.3238 10.2212 38.0036 10.5112 38.5682 11.0913C39.1336 11.6721 39.4163 12.3446 39.4163 13.1087V34.6962C39.4163 35.4904 39.1336 36.1702 38.5682 36.7356C38.0036 37.301 37.3238 37.5837 36.5288 37.5837H7.47124ZM36.5288 35.2913C36.7122 35.2913 36.8574 35.2381 36.9644 35.1318C37.0715 35.0247 37.125 34.8795 37.125 34.6962V13.1087C37.125 12.9554 37.0715 12.8256 36.9644 12.7193C36.8574 12.6122 36.7122 12.5587 36.5288 12.5587H7.47124C7.28791 12.5587 7.14271 12.6122 7.03564 12.7193C6.92857 12.8256 6.87504 12.9554 6.87504 13.1087V34.6962C6.87504 34.8795 6.92857 35.0247 7.03564 35.1318C7.14271 35.2381 7.28791 35.2913 7.47124 35.2913H36.5288Z" fill="white"/>
<path d="M22 31.2587C24.0475 31.2587 25.7815 30.5481 27.2019 29.1269C28.6231 27.7064 29.3337 25.9725 29.3337 23.925C29.3337 21.8475 28.6231 20.1058 27.2019 18.7C25.7815 17.2942 24.0475 16.5913 22 16.5913C19.9225 16.5913 18.1808 17.2942 16.775 18.7C15.3692 20.1058 14.6663 21.8475 14.6663 23.925C14.6663 25.9725 15.3692 27.7064 16.775 29.1269C18.1808 30.5481 19.9225 31.2587 22 31.2587ZM7.47124 37.5837C6.67631 37.5837 5.99651 37.301 5.43184 36.7356C4.86644 36.1702 4.58374 35.4904 4.58374 34.6962V13.1087C4.58374 12.3446 4.86644 11.6721 5.43184 11.0913C5.99651 10.5112 6.67631 10.2212 7.47124 10.2212H13.5212L16.0413 7.37879C16.2863 7.04292 16.5998 6.79872 16.9818 6.64619C17.3632 6.49292 17.768 6.41629 18.1962 6.41629H25.8038C26.2321 6.41629 26.6369 6.49292 27.0182 6.64619C27.4003 6.79872 27.7138 7.04292 27.9587 7.37879L30.4788 10.2212H36.5288C37.3238 10.2212 38.0036 10.5112 38.5682 11.0913C39.1336 11.6721 39.4163 12.3446 39.4163 13.1087V34.6962C39.4163 35.4904 39.1336 36.1702 38.5682 36.7356C38.0036 37.301 37.3238 37.5837 36.5288 37.5837H7.47124ZM36.5288 35.2913C36.7122 35.2913 36.8574 35.2381 36.9644 35.1318C37.0715 35.0247 37.125 34.8795 37.125 34.6962V13.1087C37.125 12.9554 37.0715 12.8256 36.9644 12.7193C36.8574 12.6122 36.7122 12.5587 36.5288 12.5587H7.47124C7.28791 12.5587 7.14271 12.6122 7.03564 12.7193C6.92857 12.8256 6.87504 12.9554 6.87504 13.1087V34.6962C6.87504 34.8795 6.92857 35.0247 7.03564 35.1318C7.14271 35.2381 7.28791 35.2913 7.47124 35.2913H36.5288Z" fill="black" fill-opacity="0.72"/>
<path d="M22 31.2587C24.0475 31.2587 25.7815 30.5481 27.2019 29.1269C28.6231 27.7064 29.3337 25.9725 29.3337 23.925C29.3337 21.8475 28.6231 20.1058 27.2019 18.7C25.7815 17.2942 24.0475 16.5913 22 16.5913C19.9225 16.5913 18.1808 17.2942 16.775 18.7C15.3692 20.1058 14.6663 21.8475 14.6663 23.925C14.6663 25.9725 15.3692 27.7064 16.775 29.1269C18.1808 30.5481 19.9225 31.2587 22 31.2587ZM7.47124 37.5837C6.67631 37.5837 5.99651 37.301 5.43184 36.7356C4.86644 36.1702 4.58374 35.4904 4.58374 34.6962V13.1087C4.58374 12.3446 4.86644 11.6721 5.43184 11.0913C5.99651 10.5112 6.67631 10.2212 7.47124 10.2212H13.5212L16.0413 7.37879C16.2863 7.04292 16.5998 6.79872 16.9818 6.64619C17.3632 6.49292 17.768 6.41629 18.1962 6.41629H25.8038C26.2321 6.41629 26.6369 6.49292 27.0182 6.64619C27.4003 6.79872 27.7138 7.04292 27.9587 7.37879L30.4788 10.2212H36.5288C37.3238 10.2212 38.0036 10.5112 38.5682 11.0913C39.1336 11.6721 39.4163 12.3446 39.4163 13.1087V34.6962C39.4163 35.4904 39.1336 36.1702 38.5682 36.7356C38.0036 37.301 37.3238 37.5837 36.5288 37.5837H7.47124ZM36.5288 35.2913C36.7122 35.2913 36.8574 35.2381 36.9644 35.1318C37.0715 35.0247 37.125 34.8795 37.125 34.6962V13.1087C37.125 12.9554 37.0715 12.8256 36.9644 12.7193C36.8574 12.6122 36.7122 12.5587 36.5288 12.5587H7.47124C7.28791 12.5587 7.14271 12.6122 7.03564 12.7193C6.92857 12.8256 6.87504 12.9554 6.87504 13.1087V34.6962C6.87504 34.8795 6.92857 35.0247 7.03564 35.1318C7.14271 35.2381 7.28791 35.2913 7.47124 35.2913H36.5288Z" fill="#0055FF" fill-opacity="0.15"/>
</g>
</svg>
