<svg width="28" height="28" viewBox="0 0 28 28" fill="none" xmlns="http://www.w3.org/2000/svg">
<mask id="mask0_974_640" style="mask-type:alpha" maskUnits="userSpaceOnUse" x="0" y="0" width="28" height="28">
<rect width="28" height="28" fill="#D9D9D9"/>
</mask>
<g mask="url(#mask0_974_640)">
<path d="M25.0833 7.35V20.65C25.0833 21.2333 24.8791 21.7292 24.4708 22.1375C24.0625 22.5458 23.5666 22.75 22.9833 22.75H5.01663C4.43329 22.75 3.93746 22.5458 3.52913 22.1375C3.12079 21.7292 2.91663 21.2333 2.91663 20.65V7.35C2.91663 6.76667 3.12079 6.27083 3.52913 5.8625C3.93746 5.45417 4.43329 5.25 5.01663 5.25H22.9833C23.5666 5.25 24.0625 5.45417 24.4708 5.8625C24.8791 6.27083 25.0833 6.76667 25.0833 7.35ZM4.66663 9.8H23.3333V7.35C23.3333 7.27222 23.2944 7.19444 23.2166 7.11667C23.1388 7.03889 23.0611 7 22.9833 7H5.01663C4.93885 7 4.86107 7.03889 4.78329 7.11667C4.70551 7.19444 4.66663 7.27222 4.66663 7.35V9.8ZM4.66663 13.5333V20.65C4.66663 20.7278 4.70551 20.8056 4.78329 20.8833C4.86107 20.9611 4.93885 21 5.01663 21H22.9833C23.0611 21 23.1388 20.9611 23.2166 20.8833C23.2944 20.8056 23.3333 20.7278 23.3333 20.65V13.5333H4.66663Z" fill="white"/>
<path d="M25.0833 7.35V20.65C25.0833 21.2333 24.8791 21.7292 24.4708 22.1375C24.0625 22.5458 23.5666 22.75 22.9833 22.75H5.01663C4.43329 22.75 3.93746 22.5458 3.52913 22.1375C3.12079 21.7292 2.91663 21.2333 2.91663 20.65V7.35C2.91663 6.76667 3.12079 6.27083 3.52913 5.8625C3.93746 5.45417 4.43329 5.25 5.01663 5.25H22.9833C23.5666 5.25 24.0625 5.45417 24.4708 5.8625C24.8791 6.27083 25.0833 6.76667 25.0833 7.35ZM4.66663 9.8H23.3333V7.35C23.3333 7.27222 23.2944 7.19444 23.2166 7.11667C23.1388 7.03889 23.0611 7 22.9833 7H5.01663C4.93885 7 4.86107 7.03889 4.78329 7.11667C4.70551 7.19444 4.66663 7.27222 4.66663 7.35V9.8ZM4.66663 13.5333V20.65C4.66663 20.7278 4.70551 20.8056 4.78329 20.8833C4.86107 20.9611 4.93885 21 5.01663 21H22.9833C23.0611 21 23.1388 20.9611 23.2166 20.8833C23.2944 20.8056 23.3333 20.7278 23.3333 20.65V13.5333H4.66663Z" fill="black" fill-opacity="0.72"/>
<path d="M25.0833 7.35V20.65C25.0833 21.2333 24.8791 21.7292 24.4708 22.1375C24.0625 22.5458 23.5666 22.75 22.9833 22.75H5.01663C4.43329 22.75 3.93746 22.5458 3.52913 22.1375C3.12079 21.7292 2.91663 21.2333 2.91663 20.65V7.35C2.91663 6.76667 3.12079 6.27083 3.52913 5.8625C3.93746 5.45417 4.43329 5.25 5.01663 5.25H22.9833C23.5666 5.25 24.0625 5.45417 24.4708 5.8625C24.8791 6.27083 25.0833 6.76667 25.0833 7.35ZM4.66663 9.8H23.3333V7.35C23.3333 7.27222 23.2944 7.19444 23.2166 7.11667C23.1388 7.03889 23.0611 7 22.9833 7H5.01663C4.93885 7 4.86107 7.03889 4.78329 7.11667C4.70551 7.19444 4.66663 7.27222 4.66663 7.35V9.8ZM4.66663 13.5333V20.65C4.66663 20.7278 4.70551 20.8056 4.78329 20.8833C4.86107 20.9611 4.93885 21 5.01663 21H22.9833C23.0611 21 23.1388 20.9611 23.2166 20.8833C23.2944 20.8056 23.3333 20.7278 23.3333 20.65V13.5333H4.66663Z" fill="#0055FF" fill-opacity="0.15"/>
</g>
</svg>
