<svg width="24" height="18" viewBox="0 0 24 18" fill="none" xmlns="http://www.w3.org/2000/svg">
<path d="M23.0833 2.35V15.65C23.0833 16.2333 22.8791 16.7292 22.4708 17.1375C22.0625 17.5458 21.5666 17.75 20.9833 17.75H3.01663C2.43329 17.75 1.93746 17.5458 1.52913 17.1375C1.12079 16.7292 0.916626 16.2333 0.916626 15.65V2.35C0.916626 1.76667 1.12079 1.27083 1.52913 0.8625C1.93746 0.454167 2.43329 0.25 3.01663 0.25H20.9833C21.5666 0.25 22.0625 0.454167 22.4708 0.8625C22.8791 1.27083 23.0833 1.76667 23.0833 2.35ZM2.66663 4.8H21.3333V2.35C21.3333 2.27222 21.2944 2.19444 21.2166 2.11667C21.1388 2.03889 21.0611 2 20.9833 2H3.01663C2.93885 2 2.86107 2.03889 2.78329 2.11667C2.70551 2.19444 2.66663 2.27222 2.66663 2.35V4.8ZM2.66663 8.53333V15.65C2.66663 15.7278 2.70551 15.8056 2.78329 15.8833C2.86107 15.9611 2.93885 16 3.01663 16H20.9833C21.0611 16 21.1388 15.9611 21.2166 15.8833C21.2944 15.8056 21.3333 15.7278 21.3333 15.65V8.53333H2.66663Z" fill="#3F4961"/>
</svg>
