<svg width="28" height="28" viewBox="0 0 28 28" fill="none" xmlns="http://www.w3.org/2000/svg">
<mask id="mask0_992_1580" style="mask-type:alpha" maskUnits="userSpaceOnUse" x="0" y="0" width="28" height="28">
<rect width="28" height="28" fill="#D9D9D9"/>
</mask>
<g mask="url(#mask0_992_1580)">
<path d="M25.0834 7.35V20.65C25.0834 21.2333 24.8792 21.7292 24.4709 22.1375C24.0625 22.5458 23.5667 22.75 22.9834 22.75H5.01669C4.43335 22.75 3.93752 22.5458 3.52919 22.1375C3.12085 21.7292 2.91669 21.2333 2.91669 20.65V7.35C2.91669 6.76667 3.12085 6.27083 3.52919 5.8625C3.93752 5.45417 4.43335 5.25 5.01669 5.25H22.9834C23.5667 5.25 24.0625 5.45417 24.4709 5.8625C24.8792 6.27083 25.0834 6.76667 25.0834 7.35ZM4.66669 9.8H23.3334V7.35C23.3334 7.27222 23.2945 7.19444 23.2167 7.11667C23.1389 7.03889 23.0611 7 22.9834 7H5.01669C4.93891 7 4.86113 7.03889 4.78335 7.11667C4.70558 7.19444 4.66669 7.27222 4.66669 7.35V9.8ZM4.66669 13.5333V20.65C4.66669 20.7278 4.70558 20.8056 4.78335 20.8833C4.86113 20.9611 4.93891 21 5.01669 21H22.9834C23.0611 21 23.1389 20.9611 23.2167 20.8833C23.2945 20.8056 23.3334 20.7278 23.3334 20.65V13.5333H4.66669Z" fill="white"/>
<path d="M25.0834 7.35V20.65C25.0834 21.2333 24.8792 21.7292 24.4709 22.1375C24.0625 22.5458 23.5667 22.75 22.9834 22.75H5.01669C4.43335 22.75 3.93752 22.5458 3.52919 22.1375C3.12085 21.7292 2.91669 21.2333 2.91669 20.65V7.35C2.91669 6.76667 3.12085 6.27083 3.52919 5.8625C3.93752 5.45417 4.43335 5.25 5.01669 5.25H22.9834C23.5667 5.25 24.0625 5.45417 24.4709 5.8625C24.8792 6.27083 25.0834 6.76667 25.0834 7.35ZM4.66669 9.8H23.3334V7.35C23.3334 7.27222 23.2945 7.19444 23.2167 7.11667C23.1389 7.03889 23.0611 7 22.9834 7H5.01669C4.93891 7 4.86113 7.03889 4.78335 7.11667C4.70558 7.19444 4.66669 7.27222 4.66669 7.35V9.8ZM4.66669 13.5333V20.65C4.66669 20.7278 4.70558 20.8056 4.78335 20.8833C4.86113 20.9611 4.93891 21 5.01669 21H22.9834C23.0611 21 23.1389 20.9611 23.2167 20.8833C23.2945 20.8056 23.3334 20.7278 23.3334 20.65V13.5333H4.66669Z" fill="#0055FF" fill-opacity="0.01"/>
</g>
</svg>
