<svg width="16" height="12" viewBox="0 0 16 12" fill="none" xmlns="http://www.w3.org/2000/svg">
<path d="M5.54998 11.275C5.43332 11.275 5.32098 11.254 5.21298 11.212C5.10432 11.1707 5.00832 11.1084 4.92498 11.025L0.749984 6.85002C0.599984 6.70002 0.528985 6.52069 0.536985 6.31202C0.545651 6.10402 0.616651 5.92502 0.749984 5.77502C0.899984 5.62502 1.07932 5.55002 1.28798 5.55002C1.49598 5.55002 1.66665 5.62502 1.79998 5.77502L5.54998 9.52502L14.2 0.875024C14.3333 0.725024 14.5083 0.650024 14.725 0.650024C14.9417 0.650024 15.1167 0.725024 15.25 0.875024C15.4 1.02502 15.475 1.20402 15.475 1.41202C15.475 1.62069 15.4 1.80002 15.25 1.95002L6.17498 11.025C6.09165 11.1084 5.99598 11.1707 5.88798 11.212C5.77932 11.254 5.66665 11.275 5.54998 11.275Z" fill="white"/>
<path d="M5.54998 11.275C5.43332 11.275 5.32098 11.254 5.21298 11.212C5.10432 11.1707 5.00832 11.1084 4.92498 11.025L0.749984 6.85002C0.599984 6.70002 0.528985 6.52069 0.536985 6.31202C0.545651 6.10402 0.616651 5.92502 0.749984 5.77502C0.899984 5.62502 1.07932 5.55002 1.28798 5.55002C1.49598 5.55002 1.66665 5.62502 1.79998 5.77502L5.54998 9.52502L14.2 0.875024C14.3333 0.725024 14.5083 0.650024 14.725 0.650024C14.9417 0.650024 15.1167 0.725024 15.25 0.875024C15.4 1.02502 15.475 1.20402 15.475 1.41202C15.475 1.62069 15.4 1.80002 15.25 1.95002L6.17498 11.025C6.09165 11.1084 5.99598 11.1707 5.88798 11.212C5.77932 11.254 5.66665 11.275 5.54998 11.275Z" fill="#0055FF" fill-opacity="0.01"/>
</svg>
