<svg width="24" height="18" viewBox="0 0 24 18" fill="none" xmlns="http://www.w3.org/2000/svg">
<path d="M20.4583 2H3.01663C2.9194 2 2.83696 2.03422 2.76929 2.10267C2.70085 2.17033 2.66663 2.25278 2.66663 2.35V15.65C2.66663 15.7472 2.70085 15.8301 2.76929 15.8985C2.83696 15.9662 2.9194 16 3.01663 16H5.46663C5.7194 16 5.92863 16.0824 6.09429 16.2473C6.25918 16.413 6.34163 16.6222 6.34163 16.875C6.34163 17.1278 6.25918 17.337 6.09429 17.5027C5.92863 17.6676 5.7194 17.75 5.46663 17.75H3.01663C2.43329 17.75 1.93746 17.5458 1.52913 17.1375C1.12079 16.7292 0.916626 16.2333 0.916626 15.65V2.35C0.916626 1.76667 1.12079 1.27083 1.52913 0.8625C1.93746 0.454167 2.43329 0.25 3.01663 0.25H20.4583C20.7111 0.25 20.9203 0.332833 21.086 0.4985C21.2508 0.663389 21.3333 0.872222 21.3333 1.125C21.3333 1.37778 21.2508 1.58661 21.086 1.7515C20.9203 1.91717 20.7111 2 20.4583 2ZM10.1916 17.75C9.88051 17.75 9.62774 17.6481 9.43329 17.4443C9.23885 17.2398 9.14163 16.9917 9.14163 16.7V15.8542C8.75274 15.5431 8.46107 15.1833 8.26663 14.775C8.07218 14.3667 7.97496 13.9194 7.97496 13.4333C7.97496 12.9667 8.07218 12.5292 8.26663 12.1208C8.46107 11.7125 8.75274 11.3528 9.14163 11.0417V10.1958C9.14163 9.88472 9.23885 9.63194 9.43329 9.4375C9.62774 9.24306 9.88051 9.14583 10.1916 9.14583H12.0291C12.3208 9.14583 12.5689 9.24306 12.7735 9.4375C12.9772 9.63194 13.0791 9.88472 13.0791 10.1958V11.0417C13.4486 11.3528 13.7356 11.7125 13.9401 12.1208C14.1439 12.5292 14.2458 12.9667 14.2458 13.4333C14.2458 13.9194 14.1439 14.3667 13.9401 14.775C13.7356 15.1833 13.4486 15.5431 13.0791 15.8542V16.7C13.0791 16.9917 12.9772 17.2398 12.7735 17.4443C12.5689 17.6481 12.3208 17.75 12.0291 17.75H10.1916ZM11.0958 15.1833C11.6013 15.1833 12.0194 15.0181 12.35 14.6875C12.6805 14.3569 12.8458 13.9389 12.8458 13.4333C12.8458 12.9278 12.6805 12.5097 12.35 12.1792C12.0194 11.8486 11.6013 11.6833 11.0958 11.6833C10.5902 11.6833 10.1722 11.8486 9.84163 12.1792C9.51107 12.5097 9.34579 12.9278 9.34579 13.4333C9.34579 13.9389 9.51107 14.3569 9.84163 14.6875C10.1722 15.0181 10.5902 15.1833 11.0958 15.1833ZM16.9 17.75C16.6083 17.75 16.3602 17.6528 16.1556 17.4583C15.9518 17.2639 15.85 17.0208 15.85 16.7292V6.9C15.85 6.60833 15.9518 6.36022 16.1556 6.15567C16.3602 5.95189 16.6083 5.85 16.9 5.85H22.0625C22.3541 5.85 22.5972 5.95189 22.7916 6.15567C22.9861 6.36022 23.0833 6.60833 23.0833 6.9V16.7292C23.0833 17.0208 22.9861 17.2639 22.7916 17.4583C22.5972 17.6528 22.3541 17.75 22.0625 17.75H16.9ZM17.6 16H21.3333V7.6H17.6V16Z" fill="#7C869E"/>
</svg>
