<svg width="28" height="28" viewBox="0 0 28 28" fill="none" xmlns="http://www.w3.org/2000/svg">
<mask id="mask0_1076_838" style="mask-type:alpha" maskUnits="userSpaceOnUse" x="0" y="0" width="28" height="28">
<rect width="28" height="28" fill="#D9D9D9"/>
</mask>
<g mask="url(#mask0_1076_838)">
<path d="M22.4583 7H5.01667C4.91945 7 4.837 7.03422 4.76934 7.10267C4.70089 7.17033 4.66667 7.25278 4.66667 7.35V20.65C4.66667 20.7472 4.70089 20.8301 4.76934 20.8985C4.837 20.9662 4.91945 21 5.01667 21H7.46667C7.71945 21 7.92867 21.0824 8.09434 21.2473C8.25923 21.413 8.34167 21.6222 8.34167 21.875C8.34167 22.1278 8.25923 22.337 8.09434 22.5027C7.92867 22.6676 7.71945 22.75 7.46667 22.75H5.01667C4.43334 22.75 3.93751 22.5458 3.52917 22.1375C3.12084 21.7292 2.91667 21.2333 2.91667 20.65V7.35C2.91667 6.76667 3.12084 6.27083 3.52917 5.8625C3.93751 5.45417 4.43334 5.25 5.01667 5.25H22.4583C22.7111 5.25 22.9203 5.33283 23.086 5.4985C23.2509 5.66339 23.3333 5.87222 23.3333 6.125C23.3333 6.37778 23.2509 6.58661 23.086 6.7515C22.9203 6.91717 22.7111 7 22.4583 7ZM12.1917 22.75C11.8806 22.75 11.6278 22.6481 11.4333 22.4443C11.2389 22.2398 11.1417 21.9917 11.1417 21.7V20.8542C10.7528 20.5431 10.4611 20.1833 10.2667 19.775C10.0722 19.3667 9.97501 18.9194 9.97501 18.4333C9.97501 17.9667 10.0722 17.5292 10.2667 17.1208C10.4611 16.7125 10.7528 16.3528 11.1417 16.0417V15.1958C11.1417 14.8847 11.2389 14.6319 11.4333 14.4375C11.6278 14.2431 11.8806 14.1458 12.1917 14.1458H14.0292C14.3208 14.1458 14.5689 14.2431 14.7735 14.4375C14.9773 14.6319 15.0792 14.8847 15.0792 15.1958V16.0417C15.4486 16.3528 15.7356 16.7125 15.9402 17.1208C16.1439 17.5292 16.2458 17.9667 16.2458 18.4333C16.2458 18.9194 16.1439 19.3667 15.9402 19.775C15.7356 20.1833 15.4486 20.5431 15.0792 20.8542V21.7C15.0792 21.9917 14.9773 22.2398 14.7735 22.4443C14.5689 22.6481 14.3208 22.75 14.0292 22.75H12.1917ZM13.0958 20.1833C13.6014 20.1833 14.0194 20.0181 14.35 19.6875C14.6806 19.3569 14.8458 18.9389 14.8458 18.4333C14.8458 17.9278 14.6806 17.5097 14.35 17.1792C14.0194 16.8486 13.6014 16.6833 13.0958 16.6833C12.5903 16.6833 12.1722 16.8486 11.8417 17.1792C11.5111 17.5097 11.3458 17.9278 11.3458 18.4333C11.3458 18.9389 11.5111 19.3569 11.8417 19.6875C12.1722 20.0181 12.5903 20.1833 13.0958 20.1833ZM18.9 22.75C18.6083 22.75 18.3602 22.6528 18.1557 22.4583C17.9519 22.2639 17.85 22.0208 17.85 21.7292V11.9C17.85 11.6083 17.9519 11.3602 18.1557 11.1557C18.3602 10.9519 18.6083 10.85 18.9 10.85H24.0625C24.3542 10.85 24.5972 10.9519 24.7917 11.1557C24.9861 11.3602 25.0833 11.6083 25.0833 11.9V21.7292C25.0833 22.0208 24.9861 22.2639 24.7917 22.4583C24.5972 22.6528 24.3542 22.75 24.0625 22.75H18.9ZM19.6 21H23.3333V12.6H19.6V21Z" fill="white"/>
<path d="M22.4583 7H5.01667C4.91945 7 4.837 7.03422 4.76934 7.10267C4.70089 7.17033 4.66667 7.25278 4.66667 7.35V20.65C4.66667 20.7472 4.70089 20.8301 4.76934 20.8985C4.837 20.9662 4.91945 21 5.01667 21H7.46667C7.71945 21 7.92867 21.0824 8.09434 21.2473C8.25923 21.413 8.34167 21.6222 8.34167 21.875C8.34167 22.1278 8.25923 22.337 8.09434 22.5027C7.92867 22.6676 7.71945 22.75 7.46667 22.75H5.01667C4.43334 22.75 3.93751 22.5458 3.52917 22.1375C3.12084 21.7292 2.91667 21.2333 2.91667 20.65V7.35C2.91667 6.76667 3.12084 6.27083 3.52917 5.8625C3.93751 5.45417 4.43334 5.25 5.01667 5.25H22.4583C22.7111 5.25 22.9203 5.33283 23.086 5.4985C23.2509 5.66339 23.3333 5.87222 23.3333 6.125C23.3333 6.37778 23.2509 6.58661 23.086 6.7515C22.9203 6.91717 22.7111 7 22.4583 7ZM12.1917 22.75C11.8806 22.75 11.6278 22.6481 11.4333 22.4443C11.2389 22.2398 11.1417 21.9917 11.1417 21.7V20.8542C10.7528 20.5431 10.4611 20.1833 10.2667 19.775C10.0722 19.3667 9.97501 18.9194 9.97501 18.4333C9.97501 17.9667 10.0722 17.5292 10.2667 17.1208C10.4611 16.7125 10.7528 16.3528 11.1417 16.0417V15.1958C11.1417 14.8847 11.2389 14.6319 11.4333 14.4375C11.6278 14.2431 11.8806 14.1458 12.1917 14.1458H14.0292C14.3208 14.1458 14.5689 14.2431 14.7735 14.4375C14.9773 14.6319 15.0792 14.8847 15.0792 15.1958V16.0417C15.4486 16.3528 15.7356 16.7125 15.9402 17.1208C16.1439 17.5292 16.2458 17.9667 16.2458 18.4333C16.2458 18.9194 16.1439 19.3667 15.9402 19.775C15.7356 20.1833 15.4486 20.5431 15.0792 20.8542V21.7C15.0792 21.9917 14.9773 22.2398 14.7735 22.4443C14.5689 22.6481 14.3208 22.75 14.0292 22.75H12.1917ZM13.0958 20.1833C13.6014 20.1833 14.0194 20.0181 14.35 19.6875C14.6806 19.3569 14.8458 18.9389 14.8458 18.4333C14.8458 17.9278 14.6806 17.5097 14.35 17.1792C14.0194 16.8486 13.6014 16.6833 13.0958 16.6833C12.5903 16.6833 12.1722 16.8486 11.8417 17.1792C11.5111 17.5097 11.3458 17.9278 11.3458 18.4333C11.3458 18.9389 11.5111 19.3569 11.8417 19.6875C12.1722 20.0181 12.5903 20.1833 13.0958 20.1833ZM18.9 22.75C18.6083 22.75 18.3602 22.6528 18.1557 22.4583C17.9519 22.2639 17.85 22.0208 17.85 21.7292V11.9C17.85 11.6083 17.9519 11.3602 18.1557 11.1557C18.3602 10.9519 18.6083 10.85 18.9 10.85H24.0625C24.3542 10.85 24.5972 10.9519 24.7917 11.1557C24.9861 11.3602 25.0833 11.6083 25.0833 11.9V21.7292C25.0833 22.0208 24.9861 22.2639 24.7917 22.4583C24.5972 22.6528 24.3542 22.75 24.0625 22.75H18.9ZM19.6 21H23.3333V12.6H19.6V21Z" fill="black" fill-opacity="0.72"/>
<path d="M22.4583 7H5.01667C4.91945 7 4.837 7.03422 4.76934 7.10267C4.70089 7.17033 4.66667 7.25278 4.66667 7.35V20.65C4.66667 20.7472 4.70089 20.8301 4.76934 20.8985C4.837 20.9662 4.91945 21 5.01667 21H7.46667C7.71945 21 7.92867 21.0824 8.09434 21.2473C8.25923 21.413 8.34167 21.6222 8.34167 21.875C8.34167 22.1278 8.25923 22.337 8.09434 22.5027C7.92867 22.6676 7.71945 22.75 7.46667 22.75H5.01667C4.43334 22.75 3.93751 22.5458 3.52917 22.1375C3.12084 21.7292 2.91667 21.2333 2.91667 20.65V7.35C2.91667 6.76667 3.12084 6.27083 3.52917 5.8625C3.93751 5.45417 4.43334 5.25 5.01667 5.25H22.4583C22.7111 5.25 22.9203 5.33283 23.086 5.4985C23.2509 5.66339 23.3333 5.87222 23.3333 6.125C23.3333 6.37778 23.2509 6.58661 23.086 6.7515C22.9203 6.91717 22.7111 7 22.4583 7ZM12.1917 22.75C11.8806 22.75 11.6278 22.6481 11.4333 22.4443C11.2389 22.2398 11.1417 21.9917 11.1417 21.7V20.8542C10.7528 20.5431 10.4611 20.1833 10.2667 19.775C10.0722 19.3667 9.97501 18.9194 9.97501 18.4333C9.97501 17.9667 10.0722 17.5292 10.2667 17.1208C10.4611 16.7125 10.7528 16.3528 11.1417 16.0417V15.1958C11.1417 14.8847 11.2389 14.6319 11.4333 14.4375C11.6278 14.2431 11.8806 14.1458 12.1917 14.1458H14.0292C14.3208 14.1458 14.5689 14.2431 14.7735 14.4375C14.9773 14.6319 15.0792 14.8847 15.0792 15.1958V16.0417C15.4486 16.3528 15.7356 16.7125 15.9402 17.1208C16.1439 17.5292 16.2458 17.9667 16.2458 18.4333C16.2458 18.9194 16.1439 19.3667 15.9402 19.775C15.7356 20.1833 15.4486 20.5431 15.0792 20.8542V21.7C15.0792 21.9917 14.9773 22.2398 14.7735 22.4443C14.5689 22.6481 14.3208 22.75 14.0292 22.75H12.1917ZM13.0958 20.1833C13.6014 20.1833 14.0194 20.0181 14.35 19.6875C14.6806 19.3569 14.8458 18.9389 14.8458 18.4333C14.8458 17.9278 14.6806 17.5097 14.35 17.1792C14.0194 16.8486 13.6014 16.6833 13.0958 16.6833C12.5903 16.6833 12.1722 16.8486 11.8417 17.1792C11.5111 17.5097 11.3458 17.9278 11.3458 18.4333C11.3458 18.9389 11.5111 19.3569 11.8417 19.6875C12.1722 20.0181 12.5903 20.1833 13.0958 20.1833ZM18.9 22.75C18.6083 22.75 18.3602 22.6528 18.1557 22.4583C17.9519 22.2639 17.85 22.0208 17.85 21.7292V11.9C17.85 11.6083 17.9519 11.3602 18.1557 11.1557C18.3602 10.9519 18.6083 10.85 18.9 10.85H24.0625C24.3542 10.85 24.5972 10.9519 24.7917 11.1557C24.9861 11.3602 25.0833 11.6083 25.0833 11.9V21.7292C25.0833 22.0208 24.9861 22.2639 24.7917 22.4583C24.5972 22.6528 24.3542 22.75 24.0625 22.75H18.9ZM19.6 21H23.3333V12.6H19.6V21Z" fill="#0055FF" fill-opacity="0.15"/>
</g>
</svg>
