<svg width="28" height="28" viewBox="0 0 28 28" fill="none" xmlns="http://www.w3.org/2000/svg">
<mask id="mask0_1064_759" style="mask-type:alpha" maskUnits="userSpaceOnUse" x="0" y="0" width="28" height="28">
<rect width="28" height="28" fill="#D9D9D9"/>
</mask>
<g mask="url(#mask0_1064_759)">
<path d="M7 22.1667H10.9083V15.225H17.0917V22.1667H21V11.6667L14 6.38752L7 11.6667V22.1667ZM7 23.9167C6.51389 23.9167 6.10089 23.7464 5.761 23.4057C5.42033 23.0658 5.25 22.6528 5.25 22.1667V11.6667C5.25 11.3945 5.313 11.132 5.439 10.8792C5.56578 10.6264 5.73611 10.4222 5.95 10.2667L12.95 4.98752C13.1056 4.87085 13.2708 4.78802 13.4458 4.73902C13.6208 4.6908 13.8056 4.66669 14 4.66669C14.1944 4.66669 14.3792 4.6908 14.5542 4.73902C14.7292 4.78802 14.8944 4.87085 15.05 4.98752L22.05 10.2667C22.2639 10.4222 22.4338 10.6264 22.5598 10.8792C22.6866 11.132 22.75 11.3945 22.75 11.6667V22.1667C22.75 22.6528 22.5797 23.0658 22.239 23.4057C21.8991 23.7464 21.4861 23.9167 21 23.9167H15.3417V16.975H12.6583V23.9167H7Z" fill="white"/>
<path d="M7 22.1667H10.9083V15.225H17.0917V22.1667H21V11.6667L14 6.38752L7 11.6667V22.1667ZM7 23.9167C6.51389 23.9167 6.10089 23.7464 5.761 23.4057C5.42033 23.0658 5.25 22.6528 5.25 22.1667V11.6667C5.25 11.3945 5.313 11.132 5.439 10.8792C5.56578 10.6264 5.73611 10.4222 5.95 10.2667L12.95 4.98752C13.1056 4.87085 13.2708 4.78802 13.4458 4.73902C13.6208 4.6908 13.8056 4.66669 14 4.66669C14.1944 4.66669 14.3792 4.6908 14.5542 4.73902C14.7292 4.78802 14.8944 4.87085 15.05 4.98752L22.05 10.2667C22.2639 10.4222 22.4338 10.6264 22.5598 10.8792C22.6866 11.132 22.75 11.3945 22.75 11.6667V22.1667C22.75 22.6528 22.5797 23.0658 22.239 23.4057C21.8991 23.7464 21.4861 23.9167 21 23.9167H15.3417V16.975H12.6583V23.9167H7Z" fill="black" fill-opacity="0.44"/>
<path d="M7 22.1667H10.9083V15.225H17.0917V22.1667H21V11.6667L14 6.38752L7 11.6667V22.1667ZM7 23.9167C6.51389 23.9167 6.10089 23.7464 5.761 23.4057C5.42033 23.0658 5.25 22.6528 5.25 22.1667V11.6667C5.25 11.3945 5.313 11.132 5.439 10.8792C5.56578 10.6264 5.73611 10.4222 5.95 10.2667L12.95 4.98752C13.1056 4.87085 13.2708 4.78802 13.4458 4.73902C13.6208 4.6908 13.8056 4.66669 14 4.66669C14.1944 4.66669 14.3792 4.6908 14.5542 4.73902C14.7292 4.78802 14.8944 4.87085 15.05 4.98752L22.05 10.2667C22.2639 10.4222 22.4338 10.6264 22.5598 10.8792C22.6866 11.132 22.75 11.3945 22.75 11.6667V22.1667C22.75 22.6528 22.5797 23.0658 22.239 23.4057C21.8991 23.7464 21.4861 23.9167 21 23.9167H15.3417V16.975H12.6583V23.9167H7Z" fill="#0055FF" fill-opacity="0.15"/>
</g>
</svg>
