<svg width="18" height="20" viewBox="0 0 18 20" fill="none" xmlns="http://www.w3.org/2000/svg">
<path d="M2 18.1666H5.90833V11.225H12.0917V18.1666H16V7.66663L9 2.38746L2 7.66663V18.1666ZM2 19.9166C1.51389 19.9166 1.10089 19.7463 0.761 19.4056C0.420334 19.0657 0.25 18.6527 0.25 18.1666V7.66663C0.25 7.3944 0.313 7.1319 0.439 6.87913C0.565778 6.62635 0.736111 6.42218 0.95 6.26663L7.95 0.987459C8.10556 0.870793 8.27083 0.787959 8.44583 0.738959C8.62083 0.690737 8.80556 0.666626 9 0.666626C9.19444 0.666626 9.37917 0.690737 9.55417 0.738959C9.72917 0.787959 9.89444 0.870793 10.05 0.987459L17.05 6.26663C17.2639 6.42218 17.4338 6.62635 17.5598 6.87913C17.6866 7.1319 17.75 7.3944 17.75 7.66663V18.1666C17.75 18.6527 17.5797 19.0657 17.239 19.4056C16.8991 19.7463 16.4861 19.9166 16 19.9166H10.3417V12.975H7.65833V19.9166H2Z" fill="#7C869E"/>
</svg>
