<svg width="44" height="44" viewBox="0 0 44 44" fill="none" xmlns="http://www.w3.org/2000/svg">
<mask id="mask0_1099_789" style="mask-type:alpha" maskUnits="userSpaceOnUse" x="0" y="0" width="44" height="44">
<rect width="44" height="44" fill="#D9D9D9"/>
</mask>
<g mask="url(#mask0_1099_789)">
<path d="M2.06246 35.5212C1.72659 35.5212 1.45159 35.4141 1.23746 35.2C1.02333 34.9859 0.91626 34.7109 0.91626 34.375C0.91626 34.0391 1.02333 33.7641 1.23746 33.55C1.45159 33.3359 1.72659 33.2288 2.06246 33.2288H7.47116V31.5788C6.67623 31.5788 5.99643 31.2965 5.43176 30.7318C4.86636 30.1664 4.58366 29.4862 4.58366 28.6913V10.2212C4.58366 9.42628 4.86636 8.74648 5.43176 8.18181C5.99643 7.61641 6.67623 7.33371 7.47116 7.33371H36.5288C37.3237 7.33371 38.0035 7.61641 38.5682 8.18181C39.1336 8.74648 39.4163 9.42628 39.4163 10.2212V28.6913C39.4163 29.4862 39.1336 30.1664 38.5682 30.7318C38.0035 31.2965 37.3237 31.5788 36.5288 31.5788V33.2288H41.9375C42.2733 33.2288 42.5483 33.3436 42.7625 33.5731C42.9766 33.8019 43.0837 34.0692 43.0837 34.375C43.0837 34.7109 42.9766 34.9859 42.7625 35.2C42.5483 35.4141 42.2733 35.5212 41.9375 35.5212H2.06246ZM7.47116 29.2413H36.5288C36.682 29.2413 36.8118 29.1881 36.9182 29.0818C37.0252 28.9747 37.0788 28.8446 37.0788 28.6913V10.2212C37.0788 10.0379 37.0252 9.89268 36.9182 9.78561C36.8118 9.67854 36.682 9.62501 36.5288 9.62501H7.47116C7.31789 9.62501 7.18809 9.67854 7.08176 9.78561C6.97469 9.89268 6.92116 10.0379 6.92116 10.2212V28.6913C6.92116 28.8446 6.97469 28.9747 7.08176 29.0818C7.18809 29.1881 7.31789 29.2413 7.47116 29.2413Z" fill="white"/>
<path d="M2.06246 35.5212C1.72659 35.5212 1.45159 35.4141 1.23746 35.2C1.02333 34.9859 0.91626 34.7109 0.91626 34.375C0.91626 34.0391 1.02333 33.7641 1.23746 33.55C1.45159 33.3359 1.72659 33.2288 2.06246 33.2288H7.47116V31.5788C6.67623 31.5788 5.99643 31.2965 5.43176 30.7318C4.86636 30.1664 4.58366 29.4862 4.58366 28.6913V10.2212C4.58366 9.42628 4.86636 8.74648 5.43176 8.18181C5.99643 7.61641 6.67623 7.33371 7.47116 7.33371H36.5288C37.3237 7.33371 38.0035 7.61641 38.5682 8.18181C39.1336 8.74648 39.4163 9.42628 39.4163 10.2212V28.6913C39.4163 29.4862 39.1336 30.1664 38.5682 30.7318C38.0035 31.2965 37.3237 31.5788 36.5288 31.5788V33.2288H41.9375C42.2733 33.2288 42.5483 33.3436 42.7625 33.5731C42.9766 33.8019 43.0837 34.0692 43.0837 34.375C43.0837 34.7109 42.9766 34.9859 42.7625 35.2C42.5483 35.4141 42.2733 35.5212 41.9375 35.5212H2.06246ZM7.47116 29.2413H36.5288C36.682 29.2413 36.8118 29.1881 36.9182 29.0818C37.0252 28.9747 37.0788 28.8446 37.0788 28.6913V10.2212C37.0788 10.0379 37.0252 9.89268 36.9182 9.78561C36.8118 9.67854 36.682 9.62501 36.5288 9.62501H7.47116C7.31789 9.62501 7.18809 9.67854 7.08176 9.78561C6.97469 9.89268 6.92116 10.0379 6.92116 10.2212V28.6913C6.92116 28.8446 6.97469 28.9747 7.08176 29.0818C7.18809 29.1881 7.31789 29.2413 7.47116 29.2413Z" fill="black" fill-opacity="0.72"/>
<path d="M2.06246 35.5212C1.72659 35.5212 1.45159 35.4141 1.23746 35.2C1.02333 34.9859 0.91626 34.7109 0.91626 34.375C0.91626 34.0391 1.02333 33.7641 1.23746 33.55C1.45159 33.3359 1.72659 33.2288 2.06246 33.2288H7.47116V31.5788C6.67623 31.5788 5.99643 31.2965 5.43176 30.7318C4.86636 30.1664 4.58366 29.4862 4.58366 28.6913V10.2212C4.58366 9.42628 4.86636 8.74648 5.43176 8.18181C5.99643 7.61641 6.67623 7.33371 7.47116 7.33371H36.5288C37.3237 7.33371 38.0035 7.61641 38.5682 8.18181C39.1336 8.74648 39.4163 9.42628 39.4163 10.2212V28.6913C39.4163 29.4862 39.1336 30.1664 38.5682 30.7318C38.0035 31.2965 37.3237 31.5788 36.5288 31.5788V33.2288H41.9375C42.2733 33.2288 42.5483 33.3436 42.7625 33.5731C42.9766 33.8019 43.0837 34.0692 43.0837 34.375C43.0837 34.7109 42.9766 34.9859 42.7625 35.2C42.5483 35.4141 42.2733 35.5212 41.9375 35.5212H2.06246ZM7.47116 29.2413H36.5288C36.682 29.2413 36.8118 29.1881 36.9182 29.0818C37.0252 28.9747 37.0788 28.8446 37.0788 28.6913V10.2212C37.0788 10.0379 37.0252 9.89268 36.9182 9.78561C36.8118 9.67854 36.682 9.62501 36.5288 9.62501H7.47116C7.31789 9.62501 7.18809 9.67854 7.08176 9.78561C6.97469 9.89268 6.92116 10.0379 6.92116 10.2212V28.6913C6.92116 28.8446 6.97469 28.9747 7.08176 29.0818C7.18809 29.1881 7.31789 29.2413 7.47116 29.2413Z" fill="#0055FF" fill-opacity="0.15"/>
</g>
</svg>
