<svg width="8" height="14" viewBox="0 0 8 14" fill="none" xmlns="http://www.w3.org/2000/svg">
<path d="M0.883293 12.95C0.749959 12.8278 0.683293 12.6749 0.683293 12.4913C0.683293 12.3082 0.749959 12.15 0.883293 12.0167L5.88329 7.00001L0.866626 1.96668C0.733293 1.84445 0.666626 1.69157 0.666626 1.50801C0.666626 1.3249 0.738848 1.16668 0.883293 1.03334C1.00551 0.90001 1.1584 0.833344 1.34196 0.833344C1.52507 0.833344 1.68329 0.90001 1.81663 1.03334L7.34996 6.58334C7.41663 6.6389 7.46396 6.70268 7.49196 6.77468C7.51952 6.84712 7.53329 6.92223 7.53329 7.00001C7.53329 7.07779 7.51952 7.15268 7.49196 7.22468C7.46396 7.29712 7.41663 7.36112 7.34996 7.41668L1.79996 12.9667C1.67774 13.1 1.52774 13.1667 1.34996 13.1667C1.17218 13.1667 1.01663 13.0945 0.883293 12.95Z" fill="#7C869E"/>
</svg>
