<svg width="16" height="16" viewBox="0 0 16 16" fill="none" xmlns="http://www.w3.org/2000/svg">
<mask id="mask0_1099_805" style="mask-type:alpha" maskUnits="userSpaceOnUse" x="0" y="0" width="16" height="16">
<rect width="16" height="16" fill="#D9D9D9"/>
</mask>
<g mask="url(#mask0_1099_805)">
<path d="M4.88329 13.95C4.74996 13.8278 4.68329 13.6749 4.68329 13.4913C4.68329 13.3082 4.74996 13.15 4.88329 13.0167L9.88329 8.00001L4.86663 2.96668C4.73329 2.84445 4.66663 2.69157 4.66663 2.50801C4.66663 2.3249 4.73885 2.16668 4.88329 2.03334C5.00551 1.90001 5.1584 1.83334 5.34196 1.83334C5.52507 1.83334 5.68329 1.90001 5.81663 2.03334L11.35 7.58334C11.4166 7.6389 11.464 7.70268 11.492 7.77468C11.5195 7.84712 11.5333 7.92223 11.5333 8.00001C11.5333 8.07779 11.5195 8.15268 11.492 8.22468C11.464 8.29712 11.4166 8.36112 11.35 8.41668L5.79996 13.9667C5.67774 14.1 5.52774 14.1667 5.34996 14.1667C5.17218 14.1667 5.01663 14.0945 4.88329 13.95Z" fill="white"/>
<path d="M4.88329 13.95C4.74996 13.8278 4.68329 13.6749 4.68329 13.4913C4.68329 13.3082 4.74996 13.15 4.88329 13.0167L9.88329 8.00001L4.86663 2.96668C4.73329 2.84445 4.66663 2.69157 4.66663 2.50801C4.66663 2.3249 4.73885 2.16668 4.88329 2.03334C5.00551 1.90001 5.1584 1.83334 5.34196 1.83334C5.52507 1.83334 5.68329 1.90001 5.81663 2.03334L11.35 7.58334C11.4166 7.6389 11.464 7.70268 11.492 7.77468C11.5195 7.84712 11.5333 7.92223 11.5333 8.00001C11.5333 8.07779 11.5195 8.15268 11.492 8.22468C11.464 8.29712 11.4166 8.36112 11.35 8.41668L5.79996 13.9667C5.67774 14.1 5.52774 14.1667 5.34996 14.1667C5.17218 14.1667 5.01663 14.0945 4.88329 13.95Z" fill="black" fill-opacity="0.44"/>
<path d="M4.88329 13.95C4.74996 13.8278 4.68329 13.6749 4.68329 13.4913C4.68329 13.3082 4.74996 13.15 4.88329 13.0167L9.88329 8.00001L4.86663 2.96668C4.73329 2.84445 4.66663 2.69157 4.66663 2.50801C4.66663 2.3249 4.73885 2.16668 4.88329 2.03334C5.00551 1.90001 5.1584 1.83334 5.34196 1.83334C5.52507 1.83334 5.68329 1.90001 5.81663 2.03334L11.35 7.58334C11.4166 7.6389 11.464 7.70268 11.492 7.77468C11.5195 7.84712 11.5333 7.92223 11.5333 8.00001C11.5333 8.07779 11.5195 8.15268 11.492 8.22468C11.464 8.29712 11.4166 8.36112 11.35 8.41668L5.79996 13.9667C5.67774 14.1 5.52774 14.1667 5.34996 14.1667C5.17218 14.1667 5.01663 14.0945 4.88329 13.95Z" fill="#0055FF" fill-opacity="0.15"/>
</g>
</svg>
