<svg width="20" height="24" viewBox="0 0 20 24" fill="none" xmlns="http://www.w3.org/2000/svg">
<path d="M1.83334 20.0208C1.58057 20.0208 1.37173 19.9333 1.20684 19.7583C1.04118 19.5833 0.958344 19.3791 0.958344 19.1458C0.958344 18.893 1.04118 18.6838 1.20684 18.5181C1.37173 18.3533 1.58057 18.2708 1.83334 18.2708H3.29168V9.81248C3.29168 8.25692 3.77779 6.86159 4.75001 5.62648C5.72223 4.39214 6.98612 3.59998 8.54168 3.24998V2.43331C8.54168 2.02498 8.68284 1.67964 8.96518 1.39731C9.24673 1.11575 9.59168 0.974976 10 0.974976C10.4083 0.974976 10.7533 1.11575 11.0348 1.39731C11.3172 1.67964 11.4583 2.02498 11.4583 2.43331V3.24998C13.0139 3.59998 14.2778 4.39214 15.25 5.62648C16.2222 6.86159 16.7083 8.25692 16.7083 9.81248V18.2708H18.1667C18.4195 18.2708 18.6287 18.3533 18.7943 18.5181C18.9592 18.6838 19.0417 18.893 19.0417 19.1458C19.0417 19.3791 18.9592 19.5833 18.7943 19.7583C18.6287 19.9333 18.4195 20.0208 18.1667 20.0208H1.83334ZM10 23.4333C9.41668 23.4333 8.92084 23.2291 8.51251 22.8208C8.10418 22.4125 7.90001 21.9166 7.90001 21.3333H12.1C12.1 21.9166 11.8958 22.4125 11.4875 22.8208C11.0792 23.2291 10.5833 23.4333 10 23.4333ZM5.04168 18.2708H14.9583V9.81248C14.9583 8.43192 14.4722 7.2602 13.5 6.29731C12.5278 5.3352 11.3611 4.85414 10 4.85414C8.6389 4.85414 7.47223 5.3352 6.50001 6.29731C5.52779 7.2602 5.04168 8.43192 5.04168 9.81248V18.2708Z" fill="#7B8AA1"/>
</svg>
