<svg width="28" height="28" viewBox="0 0 28 28" fill="none" xmlns="http://www.w3.org/2000/svg">
<mask id="mask0_974_649" style="mask-type:alpha" maskUnits="userSpaceOnUse" x="0" y="0" width="28" height="28">
<rect width="28" height="28" fill="#D9D9D9"/>
</mask>
<g mask="url(#mask0_974_649)">
<path d="M5.83337 22.0208C5.5806 22.0208 5.37176 21.9333 5.20687 21.7583C5.04121 21.5833 4.95837 21.3792 4.95837 21.1458C4.95837 20.893 5.04121 20.6838 5.20687 20.5182C5.37176 20.3533 5.5806 20.2708 5.83337 20.2708H7.29171V11.8125C7.29171 10.2569 7.77782 8.8616 8.75004 7.62649C9.72226 6.39215 10.9862 5.59999 12.5417 5.24999V4.43332C12.5417 4.02499 12.6829 3.67965 12.9652 3.39732C13.2468 3.11576 13.5917 2.97499 14 2.97499C14.4084 2.97499 14.7533 3.11576 15.0349 3.39732C15.3172 3.67965 15.4584 4.02499 15.4584 4.43332V5.24999C17.0139 5.59999 18.2778 6.39215 19.25 7.62649C20.2223 8.8616 20.7084 10.2569 20.7084 11.8125V20.2708H22.1667C22.4195 20.2708 22.6287 20.3533 22.7944 20.5182C22.9593 20.6838 23.0417 20.893 23.0417 21.1458C23.0417 21.3792 22.9593 21.5833 22.7944 21.7583C22.6287 21.9333 22.4195 22.0208 22.1667 22.0208H5.83337ZM14 25.4333C13.4167 25.4333 12.9209 25.2292 12.5125 24.8208C12.1042 24.4125 11.9 23.9167 11.9 23.3333H16.1C16.1 23.9167 15.8959 24.4125 15.4875 24.8208C15.0792 25.2292 14.5834 25.4333 14 25.4333ZM9.04171 20.2708H18.9584V11.8125C18.9584 10.4319 18.4723 9.26021 17.5 8.29732C16.5278 7.33521 15.3612 6.85415 14 6.85415C12.6389 6.85415 11.4723 7.33521 10.5 8.29732C9.52782 9.26021 9.04171 10.4319 9.04171 11.8125V20.2708Z" fill="white"/>
<path d="M5.83337 22.0208C5.5806 22.0208 5.37176 21.9333 5.20687 21.7583C5.04121 21.5833 4.95837 21.3792 4.95837 21.1458C4.95837 20.893 5.04121 20.6838 5.20687 20.5182C5.37176 20.3533 5.5806 20.2708 5.83337 20.2708H7.29171V11.8125C7.29171 10.2569 7.77782 8.8616 8.75004 7.62649C9.72226 6.39215 10.9862 5.59999 12.5417 5.24999V4.43332C12.5417 4.02499 12.6829 3.67965 12.9652 3.39732C13.2468 3.11576 13.5917 2.97499 14 2.97499C14.4084 2.97499 14.7533 3.11576 15.0349 3.39732C15.3172 3.67965 15.4584 4.02499 15.4584 4.43332V5.24999C17.0139 5.59999 18.2778 6.39215 19.25 7.62649C20.2223 8.8616 20.7084 10.2569 20.7084 11.8125V20.2708H22.1667C22.4195 20.2708 22.6287 20.3533 22.7944 20.5182C22.9593 20.6838 23.0417 20.893 23.0417 21.1458C23.0417 21.3792 22.9593 21.5833 22.7944 21.7583C22.6287 21.9333 22.4195 22.0208 22.1667 22.0208H5.83337ZM14 25.4333C13.4167 25.4333 12.9209 25.2292 12.5125 24.8208C12.1042 24.4125 11.9 23.9167 11.9 23.3333H16.1C16.1 23.9167 15.8959 24.4125 15.4875 24.8208C15.0792 25.2292 14.5834 25.4333 14 25.4333ZM9.04171 20.2708H18.9584V11.8125C18.9584 10.4319 18.4723 9.26021 17.5 8.29732C16.5278 7.33521 15.3612 6.85415 14 6.85415C12.6389 6.85415 11.4723 7.33521 10.5 8.29732C9.52782 9.26021 9.04171 10.4319 9.04171 11.8125V20.2708Z" fill="black" fill-opacity="0.44"/>
<path d="M5.83337 22.0208C5.5806 22.0208 5.37176 21.9333 5.20687 21.7583C5.04121 21.5833 4.95837 21.3792 4.95837 21.1458C4.95837 20.893 5.04121 20.6838 5.20687 20.5182C5.37176 20.3533 5.5806 20.2708 5.83337 20.2708H7.29171V11.8125C7.29171 10.2569 7.77782 8.8616 8.75004 7.62649C9.72226 6.39215 10.9862 5.59999 12.5417 5.24999V4.43332C12.5417 4.02499 12.6829 3.67965 12.9652 3.39732C13.2468 3.11576 13.5917 2.97499 14 2.97499C14.4084 2.97499 14.7533 3.11576 15.0349 3.39732C15.3172 3.67965 15.4584 4.02499 15.4584 4.43332V5.24999C17.0139 5.59999 18.2778 6.39215 19.25 7.62649C20.2223 8.8616 20.7084 10.2569 20.7084 11.8125V20.2708H22.1667C22.4195 20.2708 22.6287 20.3533 22.7944 20.5182C22.9593 20.6838 23.0417 20.893 23.0417 21.1458C23.0417 21.3792 22.9593 21.5833 22.7944 21.7583C22.6287 21.9333 22.4195 22.0208 22.1667 22.0208H5.83337ZM14 25.4333C13.4167 25.4333 12.9209 25.2292 12.5125 24.8208C12.1042 24.4125 11.9 23.9167 11.9 23.3333H16.1C16.1 23.9167 15.8959 24.4125 15.4875 24.8208C15.0792 25.2292 14.5834 25.4333 14 25.4333ZM9.04171 20.2708H18.9584V11.8125C18.9584 10.4319 18.4723 9.26021 17.5 8.29732C16.5278 7.33521 15.3612 6.85415 14 6.85415C12.6389 6.85415 11.4723 7.33521 10.5 8.29732C9.52782 9.26021 9.04171 10.4319 9.04171 11.8125V20.2708Z" fill="#0055FF" fill-opacity="0.15"/>
</g>
</svg>
