<svg width="18" height="18" viewBox="0 0 18 18" fill="none" xmlns="http://www.w3.org/2000/svg">
<path d="M9 8.64994C7.87222 8.64994 6.90972 8.24628 6.1125 7.43894C5.31528 6.63239 4.91667 5.67494 4.91667 4.56661C4.91667 3.43883 5.31528 2.47633 6.1125 1.67911C6.90972 0.881888 7.87222 0.483276 9 0.483276C10.1278 0.483276 11.0903 0.881888 11.8875 1.67911C12.6847 2.47633 13.0833 3.43883 13.0833 4.56661C13.0833 5.67494 12.6847 6.63239 11.8875 7.43894C11.0903 8.24628 10.1278 8.64994 9 8.64994ZM15.9708 17.5166H2.02917C1.52361 17.5166 1.10089 17.3467 0.761 17.0068C0.420334 16.6661 0.25 16.2527 0.25 15.7666V14.9208C0.25 14.3569 0.405556 13.8319 0.716667 13.3458C1.02778 12.8597 1.44583 12.4805 1.97083 12.2083C3.11806 11.6444 4.28006 11.2213 5.45683 10.9389C6.63283 10.6574 7.81389 10.5166 9 10.5166C10.1861 10.5166 11.3676 10.6574 12.5443 10.9389C13.7203 11.2213 14.8819 11.6444 16.0292 12.2083C16.5542 12.4805 16.9722 12.8597 17.2833 13.3458C17.5944 13.8319 17.75 14.3569 17.75 14.9208V15.7666C17.75 16.2527 17.5797 16.6661 17.239 17.0068C16.8991 17.3467 16.4764 17.5166 15.9708 17.5166ZM2 15.7666H16V14.9208C16 14.6874 15.9319 14.4736 15.7958 14.2791C15.6597 14.0847 15.475 13.9194 15.2417 13.7833C14.2306 13.2972 13.2051 12.9227 12.1652 12.6598C11.1245 12.3977 10.0694 12.2666 9 12.2666C7.93056 12.2666 6.8755 12.3977 5.83483 12.6598C4.79494 12.9227 3.76944 13.2972 2.75833 13.7833C2.525 13.9194 2.34028 14.0847 2.20417 14.2791C2.06806 14.4736 2 14.6874 2 14.9208V15.7666ZM9 6.89994C9.64167 6.89994 10.1912 6.67128 10.6485 6.21394C11.1051 5.75739 11.3333 5.20828 11.3333 4.56661C11.3333 3.92494 11.1051 3.37544 10.6485 2.91811C10.1912 2.46155 9.64167 2.23328 9 2.23328C8.35833 2.23328 7.80922 2.46155 7.35267 2.91811C6.89533 3.37544 6.66667 3.92494 6.66667 4.56661C6.66667 5.20828 6.89533 5.75739 7.35267 6.21394C7.80922 6.67128 8.35833 6.89994 9 6.89994Z" fill="#7C869E"/>
</svg>
