<svg width="28" height="28" viewBox="0 0 28 28" fill="none" xmlns="http://www.w3.org/2000/svg">
<mask id="mask0_974_636" style="mask-type:alpha" maskUnits="userSpaceOnUse" x="0" y="0" width="28" height="28">
<rect width="28" height="28" fill="#D9D9D9"/>
</mask>
<g mask="url(#mask0_974_636)">
<path d="M14 13.65C12.8722 13.65 11.9097 13.2463 11.1125 12.439C10.3153 11.6324 9.91667 10.675 9.91667 9.56667C9.91667 8.43889 10.3153 7.47639 11.1125 6.67917C11.9097 5.88195 12.8722 5.48334 14 5.48334C15.1278 5.48334 16.0903 5.88195 16.8875 6.67917C17.6847 7.47639 18.0833 8.43889 18.0833 9.56667C18.0833 10.675 17.6847 11.6324 16.8875 12.439C16.0903 13.2463 15.1278 13.65 14 13.65ZM20.9708 22.5167H7.02917C6.52361 22.5167 6.10089 22.3467 5.761 22.0068C5.42033 21.6662 5.25 21.2528 5.25 20.7667V19.9208C5.25 19.3569 5.40556 18.8319 5.71667 18.3458C6.02778 17.8597 6.44583 17.4806 6.97083 17.2083C8.11806 16.6444 9.28006 16.2213 10.4568 15.939C11.6328 15.6574 12.8139 15.5167 14 15.5167C15.1861 15.5167 16.3676 15.6574 17.5443 15.939C18.7203 16.2213 19.8819 16.6444 21.0292 17.2083C21.5542 17.4806 21.9722 17.8597 22.2833 18.3458C22.5944 18.8319 22.75 19.3569 22.75 19.9208V20.7667C22.75 21.2528 22.5797 21.6662 22.239 22.0068C21.8991 22.3467 21.4764 22.5167 20.9708 22.5167ZM7 20.7667H21V19.9208C21 19.6875 20.9319 19.4736 20.7958 19.2792C20.6597 19.0847 20.475 18.9194 20.2417 18.7833C19.2306 18.2972 18.2051 17.9227 17.1652 17.6598C16.1245 17.3977 15.0694 17.2667 14 17.2667C12.9306 17.2667 11.8755 17.3977 10.8348 17.6598C9.79494 17.9227 8.76944 18.2972 7.75833 18.7833C7.525 18.9194 7.34028 19.0847 7.20417 19.2792C7.06806 19.4736 7 19.6875 7 19.9208V20.7667ZM14 11.9C14.6417 11.9 15.1912 11.6713 15.6485 11.214C16.1051 10.7574 16.3333 10.2083 16.3333 9.56667C16.3333 8.925 16.1051 8.3755 15.6485 7.91817C15.1912 7.46162 14.6417 7.23334 14 7.23334C13.3583 7.23334 12.8092 7.46162 12.3527 7.91817C11.8953 8.3755 11.6667 8.925 11.6667 9.56667C11.6667 10.2083 11.8953 10.7574 12.3527 11.214C12.8092 11.6713 13.3583 11.9 14 11.9Z" fill="white"/>
<path d="M14 13.65C12.8722 13.65 11.9097 13.2463 11.1125 12.439C10.3153 11.6324 9.91667 10.675 9.91667 9.56667C9.91667 8.43889 10.3153 7.47639 11.1125 6.67917C11.9097 5.88195 12.8722 5.48334 14 5.48334C15.1278 5.48334 16.0903 5.88195 16.8875 6.67917C17.6847 7.47639 18.0833 8.43889 18.0833 9.56667C18.0833 10.675 17.6847 11.6324 16.8875 12.439C16.0903 13.2463 15.1278 13.65 14 13.65ZM20.9708 22.5167H7.02917C6.52361 22.5167 6.10089 22.3467 5.761 22.0068C5.42033 21.6662 5.25 21.2528 5.25 20.7667V19.9208C5.25 19.3569 5.40556 18.8319 5.71667 18.3458C6.02778 17.8597 6.44583 17.4806 6.97083 17.2083C8.11806 16.6444 9.28006 16.2213 10.4568 15.939C11.6328 15.6574 12.8139 15.5167 14 15.5167C15.1861 15.5167 16.3676 15.6574 17.5443 15.939C18.7203 16.2213 19.8819 16.6444 21.0292 17.2083C21.5542 17.4806 21.9722 17.8597 22.2833 18.3458C22.5944 18.8319 22.75 19.3569 22.75 19.9208V20.7667C22.75 21.2528 22.5797 21.6662 22.239 22.0068C21.8991 22.3467 21.4764 22.5167 20.9708 22.5167ZM7 20.7667H21V19.9208C21 19.6875 20.9319 19.4736 20.7958 19.2792C20.6597 19.0847 20.475 18.9194 20.2417 18.7833C19.2306 18.2972 18.2051 17.9227 17.1652 17.6598C16.1245 17.3977 15.0694 17.2667 14 17.2667C12.9306 17.2667 11.8755 17.3977 10.8348 17.6598C9.79494 17.9227 8.76944 18.2972 7.75833 18.7833C7.525 18.9194 7.34028 19.0847 7.20417 19.2792C7.06806 19.4736 7 19.6875 7 19.9208V20.7667ZM14 11.9C14.6417 11.9 15.1912 11.6713 15.6485 11.214C16.1051 10.7574 16.3333 10.2083 16.3333 9.56667C16.3333 8.925 16.1051 8.3755 15.6485 7.91817C15.1912 7.46162 14.6417 7.23334 14 7.23334C13.3583 7.23334 12.8092 7.46162 12.3527 7.91817C11.8953 8.3755 11.6667 8.925 11.6667 9.56667C11.6667 10.2083 11.8953 10.7574 12.3527 11.214C12.8092 11.6713 13.3583 11.9 14 11.9Z" fill="black" fill-opacity="0.44"/>
<path d="M14 13.65C12.8722 13.65 11.9097 13.2463 11.1125 12.439C10.3153 11.6324 9.91667 10.675 9.91667 9.56667C9.91667 8.43889 10.3153 7.47639 11.1125 6.67917C11.9097 5.88195 12.8722 5.48334 14 5.48334C15.1278 5.48334 16.0903 5.88195 16.8875 6.67917C17.6847 7.47639 18.0833 8.43889 18.0833 9.56667C18.0833 10.675 17.6847 11.6324 16.8875 12.439C16.0903 13.2463 15.1278 13.65 14 13.65ZM20.9708 22.5167H7.02917C6.52361 22.5167 6.10089 22.3467 5.761 22.0068C5.42033 21.6662 5.25 21.2528 5.25 20.7667V19.9208C5.25 19.3569 5.40556 18.8319 5.71667 18.3458C6.02778 17.8597 6.44583 17.4806 6.97083 17.2083C8.11806 16.6444 9.28006 16.2213 10.4568 15.939C11.6328 15.6574 12.8139 15.5167 14 15.5167C15.1861 15.5167 16.3676 15.6574 17.5443 15.939C18.7203 16.2213 19.8819 16.6444 21.0292 17.2083C21.5542 17.4806 21.9722 17.8597 22.2833 18.3458C22.5944 18.8319 22.75 19.3569 22.75 19.9208V20.7667C22.75 21.2528 22.5797 21.6662 22.239 22.0068C21.8991 22.3467 21.4764 22.5167 20.9708 22.5167ZM7 20.7667H21V19.9208C21 19.6875 20.9319 19.4736 20.7958 19.2792C20.6597 19.0847 20.475 18.9194 20.2417 18.7833C19.2306 18.2972 18.2051 17.9227 17.1652 17.6598C16.1245 17.3977 15.0694 17.2667 14 17.2667C12.9306 17.2667 11.8755 17.3977 10.8348 17.6598C9.79494 17.9227 8.76944 18.2972 7.75833 18.7833C7.525 18.9194 7.34028 19.0847 7.20417 19.2792C7.06806 19.4736 7 19.6875 7 19.9208V20.7667ZM14 11.9C14.6417 11.9 15.1912 11.6713 15.6485 11.214C16.1051 10.7574 16.3333 10.2083 16.3333 9.56667C16.3333 8.925 16.1051 8.3755 15.6485 7.91817C15.1912 7.46162 14.6417 7.23334 14 7.23334C13.3583 7.23334 12.8092 7.46162 12.3527 7.91817C11.8953 8.3755 11.6667 8.925 11.6667 9.56667C11.6667 10.2083 11.8953 10.7574 12.3527 11.214C12.8092 11.6713 13.3583 11.9 14 11.9Z" fill="#0055FF" fill-opacity="0.15"/>
</g>
</svg>
