<svg width="28" height="28" viewBox="0 0 28 28" fill="none" xmlns="http://www.w3.org/2000/svg">
<mask id="mask0_1064_1037" style="mask-type:alpha" maskUnits="userSpaceOnUse" x="0" y="0" width="28" height="28">
<rect width="28" height="28" fill="#D9D9D9"/>
</mask>
<g mask="url(#mask0_1064_1037)">
<path d="M14 13.65C12.8722 13.65 11.9097 13.2514 11.1125 12.4542C10.3153 11.6569 9.91667 10.6944 9.91667 9.56667C9.91667 8.43889 10.3153 7.47639 11.1125 6.67917C11.9097 5.88195 12.8722 5.48334 14 5.48334C15.1278 5.48334 16.0903 5.88195 16.8875 6.67917C17.6847 7.47639 18.0833 8.43889 18.0833 9.56667C18.0833 10.6944 17.6847 11.6569 16.8875 12.4542C16.0903 13.2514 15.1278 13.65 14 13.65ZM7.02917 22.5167C6.52361 22.5167 6.10089 22.3467 5.761 22.0068C5.42033 21.6662 5.25 21.2528 5.25 20.7667V19.9208C5.25 19.3569 5.40556 18.8319 5.71667 18.3458C6.02778 17.8597 6.44583 17.4806 6.97083 17.2083C8.11806 16.6444 9.28006 16.2213 10.4568 15.939C11.6328 15.6574 12.8139 15.5167 14 15.5167C15.1861 15.5167 16.3676 15.6574 17.5443 15.939C18.7203 16.2213 19.8819 16.6444 21.0292 17.2083C21.5542 17.4806 21.9722 17.8597 22.2833 18.3458C22.5944 18.8319 22.75 19.3569 22.75 19.9208V20.7667C22.75 21.2528 22.5797 21.6662 22.239 22.0068C21.8991 22.3467 21.4764 22.5167 20.9708 22.5167H7.02917Z" fill="white"/>
<path d="M14 13.65C12.8722 13.65 11.9097 13.2514 11.1125 12.4542C10.3153 11.6569 9.91667 10.6944 9.91667 9.56667C9.91667 8.43889 10.3153 7.47639 11.1125 6.67917C11.9097 5.88195 12.8722 5.48334 14 5.48334C15.1278 5.48334 16.0903 5.88195 16.8875 6.67917C17.6847 7.47639 18.0833 8.43889 18.0833 9.56667C18.0833 10.6944 17.6847 11.6569 16.8875 12.4542C16.0903 13.2514 15.1278 13.65 14 13.65ZM7.02917 22.5167C6.52361 22.5167 6.10089 22.3467 5.761 22.0068C5.42033 21.6662 5.25 21.2528 5.25 20.7667V19.9208C5.25 19.3569 5.40556 18.8319 5.71667 18.3458C6.02778 17.8597 6.44583 17.4806 6.97083 17.2083C8.11806 16.6444 9.28006 16.2213 10.4568 15.939C11.6328 15.6574 12.8139 15.5167 14 15.5167C15.1861 15.5167 16.3676 15.6574 17.5443 15.939C18.7203 16.2213 19.8819 16.6444 21.0292 17.2083C21.5542 17.4806 21.9722 17.8597 22.2833 18.3458C22.5944 18.8319 22.75 19.3569 22.75 19.9208V20.7667C22.75 21.2528 22.5797 21.6662 22.239 22.0068C21.8991 22.3467 21.4764 22.5167 20.9708 22.5167H7.02917Z" fill="black" fill-opacity="0.72"/>
<path d="M14 13.65C12.8722 13.65 11.9097 13.2514 11.1125 12.4542C10.3153 11.6569 9.91667 10.6944 9.91667 9.56667C9.91667 8.43889 10.3153 7.47639 11.1125 6.67917C11.9097 5.88195 12.8722 5.48334 14 5.48334C15.1278 5.48334 16.0903 5.88195 16.8875 6.67917C17.6847 7.47639 18.0833 8.43889 18.0833 9.56667C18.0833 10.6944 17.6847 11.6569 16.8875 12.4542C16.0903 13.2514 15.1278 13.65 14 13.65ZM7.02917 22.5167C6.52361 22.5167 6.10089 22.3467 5.761 22.0068C5.42033 21.6662 5.25 21.2528 5.25 20.7667V19.9208C5.25 19.3569 5.40556 18.8319 5.71667 18.3458C6.02778 17.8597 6.44583 17.4806 6.97083 17.2083C8.11806 16.6444 9.28006 16.2213 10.4568 15.939C11.6328 15.6574 12.8139 15.5167 14 15.5167C15.1861 15.5167 16.3676 15.6574 17.5443 15.939C18.7203 16.2213 19.8819 16.6444 21.0292 17.2083C21.5542 17.4806 21.9722 17.8597 22.2833 18.3458C22.5944 18.8319 22.75 19.3569 22.75 19.9208V20.7667C22.75 21.2528 22.5797 21.6662 22.239 22.0068C21.8991 22.3467 21.4764 22.5167 20.9708 22.5167H7.02917Z" fill="#0055FF" fill-opacity="0.15"/>
</g>
</svg>
