<svg width="18" height="18" viewBox="0 0 18 18" fill="none" xmlns="http://www.w3.org/2000/svg">
<path d="M9 8.64994C7.87222 8.64994 6.90972 8.25133 6.1125 7.45411C5.31528 6.65689 4.91667 5.69439 4.91667 4.56661C4.91667 3.43883 5.31528 2.47633 6.1125 1.67911C6.90972 0.881888 7.87222 0.483276 9 0.483276C10.1278 0.483276 11.0903 0.881888 11.8875 1.67911C12.6847 2.47633 13.0833 3.43883 13.0833 4.56661C13.0833 5.69439 12.6847 6.65689 11.8875 7.45411C11.0903 8.25133 10.1278 8.64994 9 8.64994ZM2.02917 17.5166C1.52361 17.5166 1.10089 17.3467 0.761 17.0068C0.420334 16.6661 0.25 16.2527 0.25 15.7666V14.9208C0.25 14.3569 0.405556 13.8319 0.716667 13.3458C1.02778 12.8597 1.44583 12.4805 1.97083 12.2083C3.11806 11.6444 4.28006 11.2213 5.45683 10.9389C6.63283 10.6574 7.81389 10.5166 9 10.5166C10.1861 10.5166 11.3676 10.6574 12.5443 10.9389C13.7203 11.2213 14.8819 11.6444 16.0292 12.2083C16.5542 12.4805 16.9722 12.8597 17.2833 13.3458C17.5944 13.8319 17.75 14.3569 17.75 14.9208V15.7666C17.75 16.2527 17.5797 16.6661 17.239 17.0068C16.8991 17.3467 16.4764 17.5166 15.9708 17.5166H2.02917Z" fill="#3F4961"/>
</svg>
