<svg width="22" height="24" viewBox="0 0 22 24" fill="none" xmlns="http://www.w3.org/2000/svg">
<path d="M12.75 23.0834H9.22084C8.96806 23.0834 8.74445 22.9959 8.55 22.8209C8.35556 22.6459 8.23889 22.4222 8.2 22.15L7.85 19.525C7.53889 19.4278 7.22311 19.282 6.90267 19.0875C6.58145 18.8931 6.28472 18.6889 6.0125 18.475L3.59167 19.525C3.33889 19.6222 3.09117 19.632 2.8485 19.5542C2.60506 19.4764 2.40556 19.3209 2.25 19.0875L0.500003 16.025C0.363892 15.7917 0.325003 15.5436 0.383336 15.2807C0.44167 15.0186 0.568058 14.8097 0.762503 14.6542L2.89167 13.05C2.85278 12.875 2.82867 12.7 2.81934 12.525C2.80922 12.35 2.80417 12.175 2.80417 12C2.80417 11.8445 2.80922 11.6792 2.81934 11.5042C2.82867 11.3292 2.85278 11.1445 2.89167 10.95L0.762503 9.34585C0.568058 9.1903 0.44167 8.98146 0.383336 8.71935C0.325003 8.45646 0.363892 8.20835 0.500003 7.97502L2.25 4.94169C2.38611 4.70835 2.58056 4.5528 2.83334 4.47502C3.08611 4.39724 3.32917 4.40696 3.5625 4.50419L6.0125 5.52502C6.28472 5.31113 6.58145 5.11202 6.90267 4.92769C7.22311 4.74258 7.53889 4.59169 7.85 4.47502L8.2 1.85002C8.23889 1.5778 8.35556 1.35419 8.55 1.17919C8.74445 1.00419 8.96806 0.916687 9.22084 0.916687H12.75C13.0222 0.916687 13.2556 1.00419 13.45 1.17919C13.6444 1.35419 13.7611 1.5778 13.8 1.85002L14.15 4.47502C14.5 4.61113 14.8158 4.76163 15.0973 4.92652C15.3797 5.09219 15.6667 5.29169 15.9583 5.52502L18.4375 4.50419C18.6708 4.40696 18.9092 4.39724 19.1527 4.47502C19.3953 4.5528 19.5944 4.70835 19.75 4.94169L21.5 7.97502C21.6361 8.20835 21.675 8.45646 21.6167 8.71935C21.5583 8.98146 21.4319 9.1903 21.2375 9.34585L19.0792 10.9792C19.1181 11.1736 19.1375 11.3486 19.1375 11.5042V12C19.1375 12.1556 19.1324 12.3158 19.1223 12.4807C19.113 12.6464 19.0889 12.8361 19.05 13.05L21.1792 14.6542C21.3931 14.8097 21.5292 15.0186 21.5875 15.2807C21.6458 15.5436 21.5972 15.7917 21.4417 16.025L19.6917 19.0584C19.5556 19.2917 19.3611 19.4472 19.1083 19.525C18.8556 19.6028 18.6028 19.5931 18.35 19.4959L15.9583 18.475C15.6667 18.7084 15.3703 18.9125 15.0693 19.0875C14.7676 19.2625 14.4611 19.4084 14.15 19.525L13.8 22.15C13.7611 22.4222 13.6444 22.6459 13.45 22.8209C13.2556 22.9959 13.0222 23.0834 12.75 23.0834ZM11 15.5C11.9722 15.5 12.7986 15.1597 13.4792 14.4792C14.1597 13.7986 14.5 12.9722 14.5 12C14.5 11.0278 14.1597 10.2014 13.4792 9.52085C12.7986 8.8403 11.9722 8.50002 11 8.50002C10.0278 8.50002 9.20139 8.8403 8.52084 9.52085C7.84028 10.2014 7.5 11.0278 7.5 12C7.5 12.9722 7.84028 13.7986 8.52084 14.4792C9.20139 15.1597 10.0278 15.5 11 15.5ZM11 13.75C10.5139 13.75 10.1009 13.5797 9.761 13.239C9.42033 12.8991 9.25 12.4861 9.25 12C9.25 11.5139 9.42033 11.1009 9.761 10.761C10.1009 10.4204 10.5139 10.25 11 10.25C11.4861 10.25 11.8991 10.4204 12.239 10.761C12.5797 11.1009 12.75 11.5139 12.75 12C12.75 12.4861 12.5797 12.8991 12.239 13.239C11.8991 13.5797 11.4861 13.75 11 13.75ZM9.83333 21.3334H12.1375L12.5458 18.2125C13.1486 18.057 13.6931 17.8334 14.1792 17.5417C14.6653 17.25 15.1417 16.8806 15.6083 16.4334L18.4958 17.6584L19.6625 15.675L17.125 13.7792C17.2222 13.4681 17.2856 13.1667 17.3152 12.875C17.3439 12.5834 17.3583 12.2917 17.3583 12C17.3583 11.6889 17.3439 11.3926 17.3152 11.111C17.2856 10.8287 17.2222 10.5417 17.125 10.25L19.6625 8.32502L18.525 6.34169L15.5792 7.56669C15.1903 7.15835 14.7236 6.79358 14.1792 6.47235C13.6347 6.15191 13.0903 5.92363 12.5458 5.78752L12.1667 2.66669H9.8625L9.45417 5.78752C8.87084 5.92363 8.32639 6.13752 7.82084 6.42919C7.31528 6.72085 6.82917 7.0903 6.3625 7.53752L3.475 6.34169L2.3375 8.32502L4.84584 10.1917C4.74861 10.4834 4.68056 10.775 4.64167 11.0667C4.60278 11.3584 4.58334 11.6695 4.58334 12C4.58334 12.3111 4.60278 12.6125 4.64167 12.9042C4.68056 13.1959 4.74861 13.4875 4.84584 13.7792L2.3375 15.675L3.475 17.6584L6.3625 16.4334C6.80972 16.8806 7.28611 17.25 7.79167 17.5417C8.29722 17.8334 8.85139 18.057 9.45417 18.2125L9.83333 21.3334Z" fill="#7B8AA1"/>
</svg>
