<svg width="22" height="24" viewBox="0 0 22 24" fill="none" xmlns="http://www.w3.org/2000/svg">
<path d="M12.75 23.0833H9.22081C8.96803 23.0833 8.74442 22.9958 8.54997 22.8208C8.35553 22.6458 8.23886 22.4222 8.19997 22.15L7.84997 19.525C7.53886 19.4278 7.22308 19.2819 6.90264 19.0875C6.58142 18.8931 6.28469 18.6889 6.01247 18.475L3.59164 19.525C3.33886 19.6222 3.09114 19.6319 2.84847 19.5542C2.60503 19.4764 2.40553 19.3208 2.24997 19.0875L0.499972 16.025C0.363861 15.7917 0.324972 15.5436 0.383306 15.2807C0.441639 15.0186 0.568028 14.8097 0.762472 14.6542L2.89164 13.05C2.85275 12.875 2.82864 12.7 2.81931 12.525C2.80919 12.35 2.80414 12.175 2.80414 12C2.80414 11.8444 2.80919 11.6792 2.81931 11.5042C2.82864 11.3292 2.85275 11.1444 2.89164 10.95L0.762472 9.34583C0.568028 9.19028 0.441639 8.98145 0.383306 8.71933C0.324972 8.45645 0.363861 8.20833 0.499972 7.975L2.24997 4.94167C2.38608 4.70833 2.58053 4.55278 2.83331 4.475C3.08608 4.39722 3.32914 4.40695 3.56247 4.50417L6.01247 5.525C6.28469 5.31111 6.58142 5.112 6.90264 4.92767C7.22308 4.74256 7.53886 4.59167 7.84997 4.475L8.19997 1.85C8.23886 1.57778 8.35553 1.35417 8.54997 1.17917C8.74442 1.00417 8.96803 0.916668 9.22081 0.916668H12.75C13.0222 0.916668 13.2555 1.00417 13.45 1.17917C13.6444 1.35417 13.7611 1.57778 13.8 1.85L14.15 4.475C14.5 4.61111 14.8157 4.76161 15.0973 4.9265C15.3796 5.09217 15.6666 5.29167 15.9583 5.525L18.4375 4.50417C18.6708 4.40695 18.9092 4.39722 19.1526 4.475C19.3953 4.55278 19.5944 4.70833 19.75 4.94167L21.5 7.975C21.6361 8.20833 21.675 8.45645 21.6166 8.71933C21.5583 8.98145 21.4319 9.19028 21.2375 9.34583L19.0791 10.9792C19.118 11.1736 19.1375 11.3486 19.1375 11.5042V12C19.1375 12.1556 19.1324 12.3158 19.1223 12.4807C19.113 12.6463 19.0889 12.8361 19.05 13.05L21.1791 14.6542C21.393 14.8097 21.5291 15.0186 21.5875 15.2807C21.6458 15.5436 21.5972 15.7917 21.4416 16.025L19.6916 19.0583C19.5555 19.2917 19.3611 19.4472 19.1083 19.525C18.8555 19.6028 18.6027 19.5931 18.35 19.4958L15.9583 18.475C15.6666 18.7083 15.3703 18.9125 15.0693 19.0875C14.7675 19.2625 14.4611 19.4083 14.15 19.525L13.8 22.15C13.7611 22.4222 13.6444 22.6458 13.45 22.8208C13.2555 22.9958 13.0222 23.0833 12.75 23.0833ZM11 15.5C11.9722 15.5 12.7986 15.1597 13.4791 14.4792C14.1597 13.7986 14.5 12.9722 14.5 12C14.5 11.0278 14.1597 10.2014 13.4791 9.52083C12.7986 8.84028 11.9722 8.5 11 8.5C10.0277 8.5 9.20136 8.84028 8.52081 9.52083C7.84025 10.2014 7.49997 11.0278 7.49997 12C7.49997 12.9722 7.84025 13.7986 8.52081 14.4792C9.20136 15.1597 10.0277 15.5 11 15.5ZM11 13.75C10.5139 13.75 10.1009 13.5797 9.76097 13.239C9.4203 12.8991 9.24997 12.4861 9.24997 12C9.24997 11.5139 9.4203 11.1009 9.76097 10.761C10.1009 10.4203 10.5139 10.25 11 10.25C11.4861 10.25 11.8991 10.4203 12.239 10.761C12.5796 11.1009 12.75 11.5139 12.75 12C12.75 12.4861 12.5796 12.8991 12.239 13.239C11.8991 13.5797 11.4861 13.75 11 13.75ZM9.8333 21.3333H12.1375L12.5458 18.2125C13.1486 18.0569 13.693 17.8333 14.1791 17.5417C14.6652 17.25 15.1416 16.8806 15.6083 16.4333L18.4958 17.6583L19.6625 15.675L17.125 13.7792C17.2222 13.4681 17.2856 13.1667 17.3151 12.875C17.3439 12.5833 17.3583 12.2917 17.3583 12C17.3583 11.6889 17.3439 11.3926 17.3151 11.111C17.2856 10.8287 17.2222 10.5417 17.125 10.25L19.6625 8.325L18.525 6.34167L15.5791 7.56667C15.1902 7.15833 14.7236 6.79356 14.1791 6.47233C13.6347 6.15189 13.0902 5.92361 12.5458 5.7875L12.1666 2.66667H9.86247L9.45414 5.7875C8.87081 5.92361 8.32636 6.1375 7.8208 6.42917C7.31525 6.72083 6.82914 7.09028 6.36247 7.5375L3.47497 6.34167L2.33747 8.325L4.84581 10.1917C4.74858 10.4833 4.68053 10.775 4.64164 11.0667C4.60275 11.3583 4.58331 11.6694 4.58331 12C4.58331 12.3111 4.60275 12.6125 4.64164 12.9042C4.68053 13.1958 4.74858 13.4875 4.84581 13.7792L2.33747 15.675L3.47497 17.6583L6.36247 16.4333C6.80969 16.8806 7.28608 17.25 7.79164 17.5417C8.29719 17.8333 8.85136 18.0569 9.45414 18.2125L9.8333 21.3333Z" fill="#7C869E"/>
</svg>
