<svg width="28" height="28" viewBox="0 0 28 28" fill="none" xmlns="http://www.w3.org/2000/svg">
<mask id="mask0_974_655" style="mask-type:alpha" maskUnits="userSpaceOnUse" x="0" y="0" width="28" height="28">
<rect width="28" height="28" fill="#D9D9D9"/>
</mask>
<g mask="url(#mask0_974_655)">
<path d="M15.75 25.0833H12.2208C11.968 25.0833 11.7444 24.9958 11.55 24.8208C11.3555 24.6458 11.2389 24.4222 11.2 24.15L10.85 21.525C10.5389 21.4278 10.2231 21.2819 9.90264 21.0875C9.58142 20.8931 9.28469 20.6889 9.01247 20.475L6.59164 21.525C6.33886 21.6222 6.09114 21.6319 5.84847 21.5542C5.60503 21.4764 5.40553 21.3208 5.24997 21.0875L3.49997 18.025C3.36386 17.7917 3.32497 17.5436 3.38331 17.2807C3.44164 17.0186 3.56803 16.8097 3.76247 16.6542L5.89164 15.05C5.85275 14.875 5.82864 14.7 5.81931 14.525C5.80919 14.35 5.80414 14.175 5.80414 14C5.80414 13.8444 5.80919 13.6792 5.81931 13.5042C5.82864 13.3292 5.85275 13.1444 5.89164 12.95L3.76247 11.3458C3.56803 11.1903 3.44164 10.9814 3.38331 10.7193C3.32497 10.4564 3.36386 10.2083 3.49997 9.975L5.24997 6.94167C5.38608 6.70833 5.58053 6.55278 5.83331 6.475C6.08608 6.39722 6.32914 6.40695 6.56247 6.50417L9.01247 7.525C9.28469 7.31111 9.58142 7.112 9.90264 6.92767C10.2231 6.74256 10.5389 6.59167 10.85 6.475L11.2 3.85C11.2389 3.57778 11.3555 3.35417 11.55 3.17917C11.7444 3.00417 11.968 2.91667 12.2208 2.91667H15.75C16.0222 2.91667 16.2555 3.00417 16.45 3.17917C16.6444 3.35417 16.7611 3.57778 16.8 3.85L17.15 6.475C17.5 6.61111 17.8157 6.76161 18.0973 6.9265C18.3796 7.09217 18.6666 7.29167 18.9583 7.525L21.4375 6.50417C21.6708 6.40695 21.9092 6.39722 22.1526 6.475C22.3953 6.55278 22.5944 6.70833 22.75 6.94167L24.5 9.975C24.6361 10.2083 24.675 10.4564 24.6166 10.7193C24.5583 10.9814 24.4319 11.1903 24.2375 11.3458L22.0791 12.9792C22.118 13.1736 22.1375 13.3486 22.1375 13.5042V14C22.1375 14.1556 22.1324 14.3158 22.1223 14.4807C22.113 14.6463 22.0889 14.8361 22.05 15.05L24.1791 16.6542C24.393 16.8097 24.5291 17.0186 24.5875 17.2807C24.6458 17.5436 24.5972 17.7917 24.4416 18.025L22.6916 21.0583C22.5555 21.2917 22.3611 21.4472 22.1083 21.525C21.8555 21.6028 21.6027 21.5931 21.35 21.4958L18.9583 20.475C18.6666 20.7083 18.3703 20.9125 18.0693 21.0875C17.7675 21.2625 17.4611 21.4083 17.15 21.525L16.8 24.15C16.7611 24.4222 16.6444 24.6458 16.45 24.8208C16.2555 24.9958 16.0222 25.0833 15.75 25.0833ZM14 17.5C14.9722 17.5 15.7986 17.1597 16.4791 16.4792C17.1597 15.7986 17.5 14.9722 17.5 14C17.5 13.0278 17.1597 12.2014 16.4791 11.5208C15.7986 10.8403 14.9722 10.5 14 10.5C13.0277 10.5 12.2014 10.8403 11.5208 11.5208C10.8403 12.2014 10.5 13.0278 10.5 14C10.5 14.9722 10.8403 15.7986 11.5208 16.4792C12.2014 17.1597 13.0277 17.5 14 17.5ZM14 15.75C13.5139 15.75 13.1009 15.5797 12.761 15.239C12.4203 14.8991 12.25 14.4861 12.25 14C12.25 13.5139 12.4203 13.1009 12.761 12.761C13.1009 12.4203 13.5139 12.25 14 12.25C14.4861 12.25 14.8991 12.4203 15.239 12.761C15.5796 13.1009 15.75 13.5139 15.75 14C15.75 14.4861 15.5796 14.8991 15.239 15.239C14.8991 15.5797 14.4861 15.75 14 15.75ZM12.8333 23.3333H15.1375L15.5458 20.2125C16.1486 20.0569 16.693 19.8333 17.1791 19.5417C17.6652 19.25 18.1416 18.8806 18.6083 18.4333L21.4958 19.6583L22.6625 17.675L20.125 15.7792C20.2222 15.4681 20.2856 15.1667 20.3151 14.875C20.3439 14.5833 20.3583 14.2917 20.3583 14C20.3583 13.6889 20.3439 13.3926 20.3151 13.111C20.2856 12.8287 20.2222 12.5417 20.125 12.25L22.6625 10.325L21.525 8.34167L18.5791 9.56667C18.1902 9.15833 17.7236 8.79356 17.1791 8.47233C16.6347 8.15189 16.0902 7.92361 15.5458 7.7875L15.1666 4.66667H12.8625L12.4541 7.7875C11.8708 7.92361 11.3264 8.1375 10.8208 8.42917C10.3152 8.72083 9.82914 9.09028 9.36247 9.5375L6.47497 8.34167L5.33747 10.325L7.84581 12.1917C7.74858 12.4833 7.68053 12.775 7.64164 13.0667C7.60275 13.3583 7.58331 13.6694 7.58331 14C7.58331 14.3111 7.60275 14.6125 7.64164 14.9042C7.68053 15.1958 7.74858 15.4875 7.84581 15.7792L5.33747 17.675L6.47497 19.6583L9.36247 18.4333C9.80969 18.8806 10.2861 19.25 10.7916 19.5417C11.2972 19.8333 11.8514 20.0569 12.4541 20.2125L12.8333 23.3333Z" fill="white"/>
<path d="M15.75 25.0833H12.2208C11.968 25.0833 11.7444 24.9958 11.55 24.8208C11.3555 24.6458 11.2389 24.4222 11.2 24.15L10.85 21.525C10.5389 21.4278 10.2231 21.2819 9.90264 21.0875C9.58142 20.8931 9.28469 20.6889 9.01247 20.475L6.59164 21.525C6.33886 21.6222 6.09114 21.6319 5.84847 21.5542C5.60503 21.4764 5.40553 21.3208 5.24997 21.0875L3.49997 18.025C3.36386 17.7917 3.32497 17.5436 3.38331 17.2807C3.44164 17.0186 3.56803 16.8097 3.76247 16.6542L5.89164 15.05C5.85275 14.875 5.82864 14.7 5.81931 14.525C5.80919 14.35 5.80414 14.175 5.80414 14C5.80414 13.8444 5.80919 13.6792 5.81931 13.5042C5.82864 13.3292 5.85275 13.1444 5.89164 12.95L3.76247 11.3458C3.56803 11.1903 3.44164 10.9814 3.38331 10.7193C3.32497 10.4564 3.36386 10.2083 3.49997 9.975L5.24997 6.94167C5.38608 6.70833 5.58053 6.55278 5.83331 6.475C6.08608 6.39722 6.32914 6.40695 6.56247 6.50417L9.01247 7.525C9.28469 7.31111 9.58142 7.112 9.90264 6.92767C10.2231 6.74256 10.5389 6.59167 10.85 6.475L11.2 3.85C11.2389 3.57778 11.3555 3.35417 11.55 3.17917C11.7444 3.00417 11.968 2.91667 12.2208 2.91667H15.75C16.0222 2.91667 16.2555 3.00417 16.45 3.17917C16.6444 3.35417 16.7611 3.57778 16.8 3.85L17.15 6.475C17.5 6.61111 17.8157 6.76161 18.0973 6.9265C18.3796 7.09217 18.6666 7.29167 18.9583 7.525L21.4375 6.50417C21.6708 6.40695 21.9092 6.39722 22.1526 6.475C22.3953 6.55278 22.5944 6.70833 22.75 6.94167L24.5 9.975C24.6361 10.2083 24.675 10.4564 24.6166 10.7193C24.5583 10.9814 24.4319 11.1903 24.2375 11.3458L22.0791 12.9792C22.118 13.1736 22.1375 13.3486 22.1375 13.5042V14C22.1375 14.1556 22.1324 14.3158 22.1223 14.4807C22.113 14.6463 22.0889 14.8361 22.05 15.05L24.1791 16.6542C24.393 16.8097 24.5291 17.0186 24.5875 17.2807C24.6458 17.5436 24.5972 17.7917 24.4416 18.025L22.6916 21.0583C22.5555 21.2917 22.3611 21.4472 22.1083 21.525C21.8555 21.6028 21.6027 21.5931 21.35 21.4958L18.9583 20.475C18.6666 20.7083 18.3703 20.9125 18.0693 21.0875C17.7675 21.2625 17.4611 21.4083 17.15 21.525L16.8 24.15C16.7611 24.4222 16.6444 24.6458 16.45 24.8208C16.2555 24.9958 16.0222 25.0833 15.75 25.0833ZM14 17.5C14.9722 17.5 15.7986 17.1597 16.4791 16.4792C17.1597 15.7986 17.5 14.9722 17.5 14C17.5 13.0278 17.1597 12.2014 16.4791 11.5208C15.7986 10.8403 14.9722 10.5 14 10.5C13.0277 10.5 12.2014 10.8403 11.5208 11.5208C10.8403 12.2014 10.5 13.0278 10.5 14C10.5 14.9722 10.8403 15.7986 11.5208 16.4792C12.2014 17.1597 13.0277 17.5 14 17.5ZM14 15.75C13.5139 15.75 13.1009 15.5797 12.761 15.239C12.4203 14.8991 12.25 14.4861 12.25 14C12.25 13.5139 12.4203 13.1009 12.761 12.761C13.1009 12.4203 13.5139 12.25 14 12.25C14.4861 12.25 14.8991 12.4203 15.239 12.761C15.5796 13.1009 15.75 13.5139 15.75 14C15.75 14.4861 15.5796 14.8991 15.239 15.239C14.8991 15.5797 14.4861 15.75 14 15.75ZM12.8333 23.3333H15.1375L15.5458 20.2125C16.1486 20.0569 16.693 19.8333 17.1791 19.5417C17.6652 19.25 18.1416 18.8806 18.6083 18.4333L21.4958 19.6583L22.6625 17.675L20.125 15.7792C20.2222 15.4681 20.2856 15.1667 20.3151 14.875C20.3439 14.5833 20.3583 14.2917 20.3583 14C20.3583 13.6889 20.3439 13.3926 20.3151 13.111C20.2856 12.8287 20.2222 12.5417 20.125 12.25L22.6625 10.325L21.525 8.34167L18.5791 9.56667C18.1902 9.15833 17.7236 8.79356 17.1791 8.47233C16.6347 8.15189 16.0902 7.92361 15.5458 7.7875L15.1666 4.66667H12.8625L12.4541 7.7875C11.8708 7.92361 11.3264 8.1375 10.8208 8.42917C10.3152 8.72083 9.82914 9.09028 9.36247 9.5375L6.47497 8.34167L5.33747 10.325L7.84581 12.1917C7.74858 12.4833 7.68053 12.775 7.64164 13.0667C7.60275 13.3583 7.58331 13.6694 7.58331 14C7.58331 14.3111 7.60275 14.6125 7.64164 14.9042C7.68053 15.1958 7.74858 15.4875 7.84581 15.7792L5.33747 17.675L6.47497 19.6583L9.36247 18.4333C9.80969 18.8806 10.2861 19.25 10.7916 19.5417C11.2972 19.8333 11.8514 20.0569 12.4541 20.2125L12.8333 23.3333Z" fill="black" fill-opacity="0.44"/>
<path d="M15.75 25.0833H12.2208C11.968 25.0833 11.7444 24.9958 11.55 24.8208C11.3555 24.6458 11.2389 24.4222 11.2 24.15L10.85 21.525C10.5389 21.4278 10.2231 21.2819 9.90264 21.0875C9.58142 20.8931 9.28469 20.6889 9.01247 20.475L6.59164 21.525C6.33886 21.6222 6.09114 21.6319 5.84847 21.5542C5.60503 21.4764 5.40553 21.3208 5.24997 21.0875L3.49997 18.025C3.36386 17.7917 3.32497 17.5436 3.38331 17.2807C3.44164 17.0186 3.56803 16.8097 3.76247 16.6542L5.89164 15.05C5.85275 14.875 5.82864 14.7 5.81931 14.525C5.80919 14.35 5.80414 14.175 5.80414 14C5.80414 13.8444 5.80919 13.6792 5.81931 13.5042C5.82864 13.3292 5.85275 13.1444 5.89164 12.95L3.76247 11.3458C3.56803 11.1903 3.44164 10.9814 3.38331 10.7193C3.32497 10.4564 3.36386 10.2083 3.49997 9.975L5.24997 6.94167C5.38608 6.70833 5.58053 6.55278 5.83331 6.475C6.08608 6.39722 6.32914 6.40695 6.56247 6.50417L9.01247 7.525C9.28469 7.31111 9.58142 7.112 9.90264 6.92767C10.2231 6.74256 10.5389 6.59167 10.85 6.475L11.2 3.85C11.2389 3.57778 11.3555 3.35417 11.55 3.17917C11.7444 3.00417 11.968 2.91667 12.2208 2.91667H15.75C16.0222 2.91667 16.2555 3.00417 16.45 3.17917C16.6444 3.35417 16.7611 3.57778 16.8 3.85L17.15 6.475C17.5 6.61111 17.8157 6.76161 18.0973 6.9265C18.3796 7.09217 18.6666 7.29167 18.9583 7.525L21.4375 6.50417C21.6708 6.40695 21.9092 6.39722 22.1526 6.475C22.3953 6.55278 22.5944 6.70833 22.75 6.94167L24.5 9.975C24.6361 10.2083 24.675 10.4564 24.6166 10.7193C24.5583 10.9814 24.4319 11.1903 24.2375 11.3458L22.0791 12.9792C22.118 13.1736 22.1375 13.3486 22.1375 13.5042V14C22.1375 14.1556 22.1324 14.3158 22.1223 14.4807C22.113 14.6463 22.0889 14.8361 22.05 15.05L24.1791 16.6542C24.393 16.8097 24.5291 17.0186 24.5875 17.2807C24.6458 17.5436 24.5972 17.7917 24.4416 18.025L22.6916 21.0583C22.5555 21.2917 22.3611 21.4472 22.1083 21.525C21.8555 21.6028 21.6027 21.5931 21.35 21.4958L18.9583 20.475C18.6666 20.7083 18.3703 20.9125 18.0693 21.0875C17.7675 21.2625 17.4611 21.4083 17.15 21.525L16.8 24.15C16.7611 24.4222 16.6444 24.6458 16.45 24.8208C16.2555 24.9958 16.0222 25.0833 15.75 25.0833ZM14 17.5C14.9722 17.5 15.7986 17.1597 16.4791 16.4792C17.1597 15.7986 17.5 14.9722 17.5 14C17.5 13.0278 17.1597 12.2014 16.4791 11.5208C15.7986 10.8403 14.9722 10.5 14 10.5C13.0277 10.5 12.2014 10.8403 11.5208 11.5208C10.8403 12.2014 10.5 13.0278 10.5 14C10.5 14.9722 10.8403 15.7986 11.5208 16.4792C12.2014 17.1597 13.0277 17.5 14 17.5ZM14 15.75C13.5139 15.75 13.1009 15.5797 12.761 15.239C12.4203 14.8991 12.25 14.4861 12.25 14C12.25 13.5139 12.4203 13.1009 12.761 12.761C13.1009 12.4203 13.5139 12.25 14 12.25C14.4861 12.25 14.8991 12.4203 15.239 12.761C15.5796 13.1009 15.75 13.5139 15.75 14C15.75 14.4861 15.5796 14.8991 15.239 15.239C14.8991 15.5797 14.4861 15.75 14 15.75ZM12.8333 23.3333H15.1375L15.5458 20.2125C16.1486 20.0569 16.693 19.8333 17.1791 19.5417C17.6652 19.25 18.1416 18.8806 18.6083 18.4333L21.4958 19.6583L22.6625 17.675L20.125 15.7792C20.2222 15.4681 20.2856 15.1667 20.3151 14.875C20.3439 14.5833 20.3583 14.2917 20.3583 14C20.3583 13.6889 20.3439 13.3926 20.3151 13.111C20.2856 12.8287 20.2222 12.5417 20.125 12.25L22.6625 10.325L21.525 8.34167L18.5791 9.56667C18.1902 9.15833 17.7236 8.79356 17.1791 8.47233C16.6347 8.15189 16.0902 7.92361 15.5458 7.7875L15.1666 4.66667H12.8625L12.4541 7.7875C11.8708 7.92361 11.3264 8.1375 10.8208 8.42917C10.3152 8.72083 9.82914 9.09028 9.36247 9.5375L6.47497 8.34167L5.33747 10.325L7.84581 12.1917C7.74858 12.4833 7.68053 12.775 7.64164 13.0667C7.60275 13.3583 7.58331 13.6694 7.58331 14C7.58331 14.3111 7.60275 14.6125 7.64164 14.9042C7.68053 15.1958 7.74858 15.4875 7.84581 15.7792L5.33747 17.675L6.47497 19.6583L9.36247 18.4333C9.80969 18.8806 10.2861 19.25 10.7916 19.5417C11.2972 19.8333 11.8514 20.0569 12.4541 20.2125L12.8333 23.3333Z" fill="#0055FF" fill-opacity="0.15"/>
</g>
</svg>
