<svg width="18" height="16" viewBox="0 0 18 16" fill="none" xmlns="http://www.w3.org/2000/svg">
<path d="M1.94994 1.75C1.74994 1.75 1.57494 1.679 1.42494 1.537C1.27494 1.39567 1.19994 1.21667 1.19994 1C1.19994 0.783333 1.27494 0.604 1.42494 0.462C1.57494 0.320667 1.74994 0.25 1.94994 0.25H16.0499C16.2499 0.25 16.4249 0.320667 16.5749 0.462C16.7249 0.604 16.7999 0.783333 16.7999 1C16.7999 1.21667 16.7249 1.39567 16.5749 1.537C16.4249 1.679 16.2499 1.75 16.0499 1.75H1.94994ZM2.14994 15.75C1.89994 15.75 1.68761 15.6627 1.51294 15.488C1.33761 15.3127 1.24994 15.1 1.24994 14.85V9.75H0.949943C0.66661 9.75 0.429276 9.63733 0.237943 9.412C0.0459431 9.18733 -0.0167235 8.93333 0.0499431 8.65L1.04994 3.975C1.09994 3.75833 1.20828 3.58333 1.37494 3.45C1.54161 3.31667 1.73328 3.25 1.94994 3.25H16.0499C16.2666 3.25 16.4583 3.31667 16.6249 3.45C16.7916 3.58333 16.8999 3.75833 16.9499 3.975L17.9499 8.65C18.0166 8.93333 17.9543 9.18733 17.7629 9.412C17.5709 9.63733 17.3333 9.75 17.0499 9.75H16.7499V15C16.7499 15.2167 16.6793 15.396 16.5379 15.538C16.3959 15.6793 16.2166 15.75 15.9999 15.75C15.7833 15.75 15.6039 15.6793 15.4619 15.538C15.3206 15.396 15.2499 15.2167 15.2499 15V9.75H10.7499V14.85C10.7499 15.1 10.6626 15.3127 10.4879 15.488C10.3126 15.6627 10.0999 15.75 9.84994 15.75H2.14994ZM2.74994 14.25H9.24994V9.75H2.74994V14.25ZM1.67494 8.25H16.3249L15.5749 4.75H2.42494L1.67494 8.25Z" fill="#3F4961"/>
</svg>
