<svg width="24" height="21" viewBox="0 0 24 21" fill="none" xmlns="http://www.w3.org/2000/svg">
<path d="M12.1458 20.5C11.9125 20.5 11.7083 20.4176 11.5333 20.2527C11.3583 20.087 11.2708 19.8778 11.2708 19.625C11.2708 19.3722 11.3583 19.163 11.5333 18.9973C11.7083 18.8324 11.9125 18.75 12.1458 18.75H19.8166C19.9138 18.75 19.9967 18.7162 20.0651 18.6485C20.1328 18.5801 20.1666 18.4972 20.1666 18.4V9.97083C20.1666 8.84306 19.9527 7.78333 19.525 6.79167C19.0972 5.8 18.5138 4.93472 17.775 4.19583C17.0361 3.45694 16.1708 2.87361 15.1791 2.44583C14.1875 2.01806 13.1277 1.80417 12 1.80417C10.8722 1.80417 9.81246 2.01806 8.82079 2.44583C7.82913 2.87361 6.96385 3.45694 6.22496 4.19583C5.48607 4.93472 4.90274 5.8 4.47496 6.79167C4.04718 7.78333 3.83329 8.84306 3.83329 9.97083V16.1833C3.83329 16.4167 3.75046 16.6208 3.58479 16.7958C3.4199 16.9708 3.21107 17.0583 2.95829 17.0583C2.3944 17.0583 1.91335 16.8592 1.51513 16.461C1.11613 16.062 0.916626 15.5806 0.916626 15.0167V12.6833C0.916626 12.2944 1.02357 11.9394 1.23746 11.6182C1.45135 11.2977 1.73329 11.0306 2.08329 10.8167L2.14163 9.3C2.23885 7.95833 2.57446 6.72361 3.14846 5.59583C3.72168 4.46806 4.45551 3.5005 5.34996 2.69317C6.2444 1.88661 7.26018 1.25972 8.39729 0.8125C9.53518 0.365278 10.7361 0.141666 12 0.141666C13.2638 0.141666 14.4694 0.365278 15.6166 0.8125C16.7638 1.25972 17.7796 1.88661 18.664 2.69317C19.5491 3.5005 20.2786 4.463 20.8526 5.58067C21.4258 6.69911 21.7611 7.92917 21.8583 9.27083L21.9166 10.7875C22.2666 10.9625 22.5486 11.2005 22.7625 11.5015C22.9763 11.8033 23.0833 12.1389 23.0833 12.5083V15.1917C23.0833 15.5417 22.9763 15.8676 22.7625 16.1693C22.5486 16.4703 22.2666 16.7083 21.9166 16.8833V18.4C21.9166 18.9833 21.7125 19.4792 21.3041 19.8875C20.8958 20.2958 20.4 20.5 19.8166 20.5H12.1458ZM8.73329 12.4208C8.44163 12.4208 8.19351 12.3186 7.98896 12.114C7.78518 11.9102 7.68329 11.6722 7.68329 11.4C7.68329 11.1083 7.78518 10.8602 7.98896 10.6557C8.19351 10.4519 8.44163 10.35 8.73329 10.35C9.00551 10.35 9.24351 10.4519 9.44729 10.6557C9.65185 10.8602 9.75413 11.1083 9.75413 11.4C9.75413 11.6722 9.65185 11.9102 9.44729 12.114C9.24351 12.3186 9.00551 12.4208 8.73329 12.4208ZM15.2666 12.4208C14.9944 12.4208 14.7564 12.3186 14.5526 12.114C14.3481 11.9102 14.2458 11.6722 14.2458 11.4C14.2458 11.1083 14.3481 10.8602 14.5526 10.6557C14.7564 10.4519 14.9944 10.35 15.2666 10.35C15.5583 10.35 15.8064 10.4519 16.011 10.6557C16.2147 10.8602 16.3166 11.1083 16.3166 11.4C16.3166 11.6722 16.2147 11.9102 16.011 12.114C15.8064 12.3186 15.5583 12.4208 15.2666 12.4208ZM5.43746 10.525C5.35968 9.45555 5.51057 8.47867 5.89013 7.59433C6.2689 6.70922 6.77407 5.96022 7.40563 5.34733C8.03796 4.73522 8.76246 4.26389 9.57913 3.93333C10.3958 3.60278 11.2222 3.4375 12.0583 3.4375C13.7305 3.4375 15.1741 3.9625 16.389 5.0125C17.6046 6.0625 18.3388 7.375 18.5916 8.95C16.8805 8.93056 15.325 8.46855 13.925 7.564C12.525 6.66022 11.475 5.48889 10.775 4.05C10.4638 5.52778 9.83696 6.84028 8.89429 7.9875C7.95085 9.13472 6.79857 9.98055 5.43746 10.525Z" fill="#7C869E"/>
</svg>
