<svg width="28" height="28" viewBox="0 0 28 28" fill="none" xmlns="http://www.w3.org/2000/svg">
<mask id="mask0_974_652" style="mask-type:alpha" maskUnits="userSpaceOnUse" x="0" y="0" width="28" height="28">
<rect width="28" height="28" fill="#D9D9D9"/>
</mask>
<g mask="url(#mask0_974_652)">
<path d="M14.1458 24.5C13.9125 24.5 13.7083 24.4176 13.5333 24.2527C13.3583 24.087 13.2708 23.8778 13.2708 23.625C13.2708 23.3722 13.3583 23.163 13.5333 22.9973C13.7083 22.8324 13.9125 22.75 14.1458 22.75H21.8166C21.9138 22.75 21.9967 22.7162 22.0651 22.6485C22.1328 22.5801 22.1666 22.4972 22.1666 22.4V13.9708C22.1666 12.8431 21.9527 11.7833 21.525 10.7917C21.0972 9.8 20.5138 8.93472 19.775 8.19583C19.0361 7.45694 18.1708 6.87361 17.1791 6.44583C16.1875 6.01806 15.1277 5.80417 14 5.80417C12.8722 5.80417 11.8125 6.01806 10.8208 6.44583C9.82913 6.87361 8.96385 7.45694 8.22496 8.19583C7.48607 8.93472 6.90274 9.8 6.47496 10.7917C6.04718 11.7833 5.83329 12.8431 5.83329 13.9708V20.1833C5.83329 20.4167 5.75046 20.6208 5.58479 20.7958C5.4199 20.9708 5.21107 21.0583 4.95829 21.0583C4.3944 21.0583 3.91335 20.8592 3.51513 20.461C3.11613 20.062 2.91663 19.5806 2.91663 19.0167V16.6833C2.91663 16.2944 3.02357 15.9394 3.23746 15.6182C3.45135 15.2977 3.73329 15.0306 4.08329 14.8167L4.14163 13.3C4.23885 11.9583 4.57446 10.7236 5.14846 9.59583C5.72168 8.46806 6.45551 7.5005 7.34996 6.69317C8.2444 5.88661 9.26018 5.25972 10.3973 4.8125C11.5352 4.36528 12.7361 4.14167 14 4.14167C15.2638 4.14167 16.4694 4.36528 17.6166 4.8125C18.7638 5.25972 19.7796 5.88661 20.664 6.69317C21.5491 7.5005 22.2786 8.463 22.8526 9.58067C23.4258 10.6991 23.7611 11.9292 23.8583 13.2708L23.9166 14.7875C24.2666 14.9625 24.5486 15.2005 24.7625 15.5015C24.9763 15.8033 25.0833 16.1389 25.0833 16.5083V19.1917C25.0833 19.5417 24.9763 19.8676 24.7625 20.1693C24.5486 20.4703 24.2666 20.7083 23.9166 20.8833V22.4C23.9166 22.9833 23.7125 23.4792 23.3041 23.8875C22.8958 24.2958 22.4 24.5 21.8166 24.5H14.1458ZM10.7333 16.4208C10.4416 16.4208 10.1935 16.3186 9.98896 16.114C9.78518 15.9102 9.68329 15.6722 9.68329 15.4C9.68329 15.1083 9.78518 14.8602 9.98896 14.6557C10.1935 14.4519 10.4416 14.35 10.7333 14.35C11.0055 14.35 11.2435 14.4519 11.4473 14.6557C11.6518 14.8602 11.7541 15.1083 11.7541 15.4C11.7541 15.6722 11.6518 15.9102 11.4473 16.114C11.2435 16.3186 11.0055 16.4208 10.7333 16.4208ZM17.2666 16.4208C16.9944 16.4208 16.7564 16.3186 16.5526 16.114C16.3481 15.9102 16.2458 15.6722 16.2458 15.4C16.2458 15.1083 16.3481 14.8602 16.5526 14.6557C16.7564 14.4519 16.9944 14.35 17.2666 14.35C17.5583 14.35 17.8064 14.4519 18.011 14.6557C18.2147 14.8602 18.3166 15.1083 18.3166 15.4C18.3166 15.6722 18.2147 15.9102 18.011 16.114C17.8064 16.3186 17.5583 16.4208 17.2666 16.4208ZM7.43746 14.525C7.35968 13.4556 7.51057 12.4787 7.89013 11.5943C8.2689 10.7092 8.77407 9.96022 9.40563 9.34733C10.038 8.73522 10.7625 8.26389 11.5791 7.93333C12.3958 7.60278 13.2222 7.4375 14.0583 7.4375C15.7305 7.4375 17.1741 7.9625 18.389 9.0125C19.6046 10.0625 20.3388 11.375 20.5916 12.95C18.8805 12.9306 17.325 12.4686 15.925 11.564C14.525 10.6602 13.475 9.48889 12.775 8.05C12.4638 9.52778 11.837 10.8403 10.8943 11.9875C9.95085 13.1347 8.79857 13.9806 7.43746 14.525Z" fill="white"/>
<path d="M14.1458 24.5C13.9125 24.5 13.7083 24.4176 13.5333 24.2527C13.3583 24.087 13.2708 23.8778 13.2708 23.625C13.2708 23.3722 13.3583 23.163 13.5333 22.9973C13.7083 22.8324 13.9125 22.75 14.1458 22.75H21.8166C21.9138 22.75 21.9967 22.7162 22.0651 22.6485C22.1328 22.5801 22.1666 22.4972 22.1666 22.4V13.9708C22.1666 12.8431 21.9527 11.7833 21.525 10.7917C21.0972 9.8 20.5138 8.93472 19.775 8.19583C19.0361 7.45694 18.1708 6.87361 17.1791 6.44583C16.1875 6.01806 15.1277 5.80417 14 5.80417C12.8722 5.80417 11.8125 6.01806 10.8208 6.44583C9.82913 6.87361 8.96385 7.45694 8.22496 8.19583C7.48607 8.93472 6.90274 9.8 6.47496 10.7917C6.04718 11.7833 5.83329 12.8431 5.83329 13.9708V20.1833C5.83329 20.4167 5.75046 20.6208 5.58479 20.7958C5.4199 20.9708 5.21107 21.0583 4.95829 21.0583C4.3944 21.0583 3.91335 20.8592 3.51513 20.461C3.11613 20.062 2.91663 19.5806 2.91663 19.0167V16.6833C2.91663 16.2944 3.02357 15.9394 3.23746 15.6182C3.45135 15.2977 3.73329 15.0306 4.08329 14.8167L4.14163 13.3C4.23885 11.9583 4.57446 10.7236 5.14846 9.59583C5.72168 8.46806 6.45551 7.5005 7.34996 6.69317C8.2444 5.88661 9.26018 5.25972 10.3973 4.8125C11.5352 4.36528 12.7361 4.14167 14 4.14167C15.2638 4.14167 16.4694 4.36528 17.6166 4.8125C18.7638 5.25972 19.7796 5.88661 20.664 6.69317C21.5491 7.5005 22.2786 8.463 22.8526 9.58067C23.4258 10.6991 23.7611 11.9292 23.8583 13.2708L23.9166 14.7875C24.2666 14.9625 24.5486 15.2005 24.7625 15.5015C24.9763 15.8033 25.0833 16.1389 25.0833 16.5083V19.1917C25.0833 19.5417 24.9763 19.8676 24.7625 20.1693C24.5486 20.4703 24.2666 20.7083 23.9166 20.8833V22.4C23.9166 22.9833 23.7125 23.4792 23.3041 23.8875C22.8958 24.2958 22.4 24.5 21.8166 24.5H14.1458ZM10.7333 16.4208C10.4416 16.4208 10.1935 16.3186 9.98896 16.114C9.78518 15.9102 9.68329 15.6722 9.68329 15.4C9.68329 15.1083 9.78518 14.8602 9.98896 14.6557C10.1935 14.4519 10.4416 14.35 10.7333 14.35C11.0055 14.35 11.2435 14.4519 11.4473 14.6557C11.6518 14.8602 11.7541 15.1083 11.7541 15.4C11.7541 15.6722 11.6518 15.9102 11.4473 16.114C11.2435 16.3186 11.0055 16.4208 10.7333 16.4208ZM17.2666 16.4208C16.9944 16.4208 16.7564 16.3186 16.5526 16.114C16.3481 15.9102 16.2458 15.6722 16.2458 15.4C16.2458 15.1083 16.3481 14.8602 16.5526 14.6557C16.7564 14.4519 16.9944 14.35 17.2666 14.35C17.5583 14.35 17.8064 14.4519 18.011 14.6557C18.2147 14.8602 18.3166 15.1083 18.3166 15.4C18.3166 15.6722 18.2147 15.9102 18.011 16.114C17.8064 16.3186 17.5583 16.4208 17.2666 16.4208ZM7.43746 14.525C7.35968 13.4556 7.51057 12.4787 7.89013 11.5943C8.2689 10.7092 8.77407 9.96022 9.40563 9.34733C10.038 8.73522 10.7625 8.26389 11.5791 7.93333C12.3958 7.60278 13.2222 7.4375 14.0583 7.4375C15.7305 7.4375 17.1741 7.9625 18.389 9.0125C19.6046 10.0625 20.3388 11.375 20.5916 12.95C18.8805 12.9306 17.325 12.4686 15.925 11.564C14.525 10.6602 13.475 9.48889 12.775 8.05C12.4638 9.52778 11.837 10.8403 10.8943 11.9875C9.95085 13.1347 8.79857 13.9806 7.43746 14.525Z" fill="black" fill-opacity="0.44"/>
<path d="M14.1458 24.5C13.9125 24.5 13.7083 24.4176 13.5333 24.2527C13.3583 24.087 13.2708 23.8778 13.2708 23.625C13.2708 23.3722 13.3583 23.163 13.5333 22.9973C13.7083 22.8324 13.9125 22.75 14.1458 22.75H21.8166C21.9138 22.75 21.9967 22.7162 22.0651 22.6485C22.1328 22.5801 22.1666 22.4972 22.1666 22.4V13.9708C22.1666 12.8431 21.9527 11.7833 21.525 10.7917C21.0972 9.8 20.5138 8.93472 19.775 8.19583C19.0361 7.45694 18.1708 6.87361 17.1791 6.44583C16.1875 6.01806 15.1277 5.80417 14 5.80417C12.8722 5.80417 11.8125 6.01806 10.8208 6.44583C9.82913 6.87361 8.96385 7.45694 8.22496 8.19583C7.48607 8.93472 6.90274 9.8 6.47496 10.7917C6.04718 11.7833 5.83329 12.8431 5.83329 13.9708V20.1833C5.83329 20.4167 5.75046 20.6208 5.58479 20.7958C5.4199 20.9708 5.21107 21.0583 4.95829 21.0583C4.3944 21.0583 3.91335 20.8592 3.51513 20.461C3.11613 20.062 2.91663 19.5806 2.91663 19.0167V16.6833C2.91663 16.2944 3.02357 15.9394 3.23746 15.6182C3.45135 15.2977 3.73329 15.0306 4.08329 14.8167L4.14163 13.3C4.23885 11.9583 4.57446 10.7236 5.14846 9.59583C5.72168 8.46806 6.45551 7.5005 7.34996 6.69317C8.2444 5.88661 9.26018 5.25972 10.3973 4.8125C11.5352 4.36528 12.7361 4.14167 14 4.14167C15.2638 4.14167 16.4694 4.36528 17.6166 4.8125C18.7638 5.25972 19.7796 5.88661 20.664 6.69317C21.5491 7.5005 22.2786 8.463 22.8526 9.58067C23.4258 10.6991 23.7611 11.9292 23.8583 13.2708L23.9166 14.7875C24.2666 14.9625 24.5486 15.2005 24.7625 15.5015C24.9763 15.8033 25.0833 16.1389 25.0833 16.5083V19.1917C25.0833 19.5417 24.9763 19.8676 24.7625 20.1693C24.5486 20.4703 24.2666 20.7083 23.9166 20.8833V22.4C23.9166 22.9833 23.7125 23.4792 23.3041 23.8875C22.8958 24.2958 22.4 24.5 21.8166 24.5H14.1458ZM10.7333 16.4208C10.4416 16.4208 10.1935 16.3186 9.98896 16.114C9.78518 15.9102 9.68329 15.6722 9.68329 15.4C9.68329 15.1083 9.78518 14.8602 9.98896 14.6557C10.1935 14.4519 10.4416 14.35 10.7333 14.35C11.0055 14.35 11.2435 14.4519 11.4473 14.6557C11.6518 14.8602 11.7541 15.1083 11.7541 15.4C11.7541 15.6722 11.6518 15.9102 11.4473 16.114C11.2435 16.3186 11.0055 16.4208 10.7333 16.4208ZM17.2666 16.4208C16.9944 16.4208 16.7564 16.3186 16.5526 16.114C16.3481 15.9102 16.2458 15.6722 16.2458 15.4C16.2458 15.1083 16.3481 14.8602 16.5526 14.6557C16.7564 14.4519 16.9944 14.35 17.2666 14.35C17.5583 14.35 17.8064 14.4519 18.011 14.6557C18.2147 14.8602 18.3166 15.1083 18.3166 15.4C18.3166 15.6722 18.2147 15.9102 18.011 16.114C17.8064 16.3186 17.5583 16.4208 17.2666 16.4208ZM7.43746 14.525C7.35968 13.4556 7.51057 12.4787 7.89013 11.5943C8.2689 10.7092 8.77407 9.96022 9.40563 9.34733C10.038 8.73522 10.7625 8.26389 11.5791 7.93333C12.3958 7.60278 13.2222 7.4375 14.0583 7.4375C15.7305 7.4375 17.1741 7.9625 18.389 9.0125C19.6046 10.0625 20.3388 11.375 20.5916 12.95C18.8805 12.9306 17.325 12.4686 15.925 11.564C14.525 10.6602 13.475 9.48889 12.775 8.05C12.4638 9.52778 11.837 10.8403 10.8943 11.9875C9.95085 13.1347 8.79857 13.9806 7.43746 14.525Z" fill="#0055FF" fill-opacity="0.15"/>
</g>
</svg>
