<svg width="24" height="21" viewBox="0 0 24 21" fill="none" xmlns="http://www.w3.org/2000/svg">
<path d="M12.1458 20.5C11.9125 20.5 11.7083 20.4176 11.5333 20.2527C11.3583 20.087 11.2708 19.8778 11.2708 19.625C11.2708 19.3722 11.3583 19.163 11.5333 18.9973C11.7083 18.8324 11.9125 18.75 12.1458 18.75H19.8167C19.9139 18.75 19.9967 18.7162 20.0652 18.6485C20.1328 18.5801 20.1667 18.4972 20.1667 18.4V9.97083C20.1667 8.84305 19.9528 7.78333 19.525 6.79166C19.0972 5.8 18.5139 4.93472 17.775 4.19583C17.0361 3.45694 16.1708 2.87361 15.1792 2.44583C14.1875 2.01805 13.1278 1.80416 12 1.80416C10.8722 1.80416 9.81249 2.01805 8.82082 2.44583C7.82916 2.87361 6.96388 3.45694 6.22499 4.19583C5.4861 4.93472 4.90277 5.8 4.47499 6.79166C4.04721 7.78333 3.83332 8.84305 3.83332 9.97083V16.1833C3.83332 16.4167 3.75049 16.6208 3.58482 16.7958C3.41993 16.9708 3.2111 17.0583 2.95832 17.0583C2.39443 17.0583 1.91338 16.8592 1.51516 16.461C1.11616 16.062 0.916656 15.5806 0.916656 15.0167V12.6833C0.916656 12.2944 1.0236 11.9394 1.23749 11.6182C1.45138 11.2977 1.73332 11.0306 2.08332 10.8167L2.14166 9.3C2.23888 7.95833 2.57449 6.72361 3.14849 5.59583C3.72171 4.46805 4.45555 3.5005 5.34999 2.69316C6.24443 1.88661 7.26021 1.25972 8.39732 0.812496C9.53521 0.365274 10.7361 0.141663 12 0.141663C13.2639 0.141663 14.4694 0.365274 15.6167 0.812496C16.7639 1.25972 17.7797 1.88661 18.664 2.69316C19.5491 3.5005 20.2787 4.463 20.8527 5.58066C21.4259 6.69911 21.7611 7.92916 21.8583 9.27083L21.9167 10.7875C22.2667 10.9625 22.5486 11.2005 22.7625 11.5015C22.9764 11.8033 23.0833 12.1389 23.0833 12.5083V15.1917C23.0833 15.5417 22.9764 15.8676 22.7625 16.1693C22.5486 16.4703 22.2667 16.7083 21.9167 16.8833V18.4C21.9167 18.9833 21.7125 19.4792 21.3042 19.8875C20.8958 20.2958 20.4 20.5 19.8167 20.5H12.1458ZM8.73332 12.4208C8.44166 12.4208 8.19355 12.3186 7.98899 12.114C7.78521 11.9102 7.68332 11.6722 7.68332 11.4C7.68332 11.1083 7.78521 10.8602 7.98899 10.6557C8.19355 10.4519 8.44166 10.35 8.73332 10.35C9.00554 10.35 9.24355 10.4519 9.44732 10.6557C9.65188 10.8602 9.75416 11.1083 9.75416 11.4C9.75416 11.6722 9.65188 11.9102 9.44732 12.114C9.24355 12.3186 9.00554 12.4208 8.73332 12.4208ZM15.2667 12.4208C14.9944 12.4208 14.7564 12.3186 14.5527 12.114C14.3481 11.9102 14.2458 11.6722 14.2458 11.4C14.2458 11.1083 14.3481 10.8602 14.5527 10.6557C14.7564 10.4519 14.9944 10.35 15.2667 10.35C15.5583 10.35 15.8064 10.4519 16.011 10.6557C16.2148 10.8602 16.3167 11.1083 16.3167 11.4C16.3167 11.6722 16.2148 11.9102 16.011 12.114C15.8064 12.3186 15.5583 12.4208 15.2667 12.4208ZM5.43749 10.525C5.35971 9.45555 5.5106 8.47866 5.89016 7.59433C6.26893 6.70922 6.7741 5.96022 7.40566 5.34733C8.03799 4.73522 8.76249 4.26389 9.57916 3.93333C10.3958 3.60277 11.2222 3.4375 12.0583 3.4375C13.7305 3.4375 15.1741 3.9625 16.389 5.0125C17.6047 6.0625 18.3389 7.375 18.5917 8.95C16.8805 8.93055 15.325 8.46855 13.925 7.56399C12.525 6.66022 11.475 5.48888 10.775 4.05C10.4639 5.52777 9.83699 6.84027 8.89432 7.98749C7.95088 9.13472 6.7986 9.98055 5.43749 10.525Z" fill="#7B8AA1"/>
</svg>
