<svg width="44" height="44" viewBox="0 0 44 44" fill="none" xmlns="http://www.w3.org/2000/svg">
<mask id="mask0_655_978" style="mask-type:alpha" maskUnits="userSpaceOnUse" x="0" y="0" width="44" height="44">
<rect width="44" height="44" fill="#D9D9D9"/>
</mask>
<g mask="url(#mask0_655_978)">
<path d="M22 39.875C21.7558 39.875 21.5343 39.8138 21.3356 39.6913C21.1369 39.5696 20.9917 39.3712 20.9 39.0962L12.1 13.3837C12.0083 13.1087 12.0619 12.8564 12.2606 12.6269C12.4593 12.3981 12.7112 12.3141 13.0163 12.375L17.3712 13.4288L20.8538 11.0462V6.0038C20.8538 4.99546 21.2359 4.12463 22 3.3913C22.7641 2.65796 23.6808 2.2913 24.75 2.2913C25.7891 2.2913 26.6446 2.5817 27.3163 3.1625C27.9888 3.7433 28.3862 4.50706 28.5087 5.4538C28.5696 5.88206 28.4856 6.226 28.2568 6.4856C28.0273 6.7452 27.7292 6.875 27.3625 6.875C27.0567 6.875 26.8121 6.79873 26.6288 6.6462C26.4455 6.49293 26.3388 6.2788 26.3087 6.0038C26.2471 5.5154 26.0865 5.1337 25.8269 4.8587C25.5673 4.5837 25.2083 4.4462 24.75 4.4462C24.3225 4.4462 23.9481 4.60643 23.6269 4.9269C23.3064 5.2481 23.1462 5.60706 23.1462 6.0038V11.0462L26.6288 13.4288L30.9837 12.375C31.2888 12.3141 31.533 12.3981 31.7163 12.6269C31.8996 12.8564 31.9455 13.1087 31.8538 13.3837L23.1 39.05C23.0083 39.325 22.8631 39.5311 22.6644 39.6682C22.4657 39.8061 22.2442 39.875 22 39.875ZM23.1462 31.9L28.7375 15.2625L26.0788 15.9038L23.1462 13.8413V31.9ZM20.8538 31.9V13.8413L17.9212 15.95L15.1712 15.2163L20.8538 31.9Z" fill="white"/>
<path d="M22 39.875C21.7558 39.875 21.5343 39.8138 21.3356 39.6913C21.1369 39.5696 20.9917 39.3712 20.9 39.0962L12.1 13.3837C12.0083 13.1087 12.0619 12.8564 12.2606 12.6269C12.4593 12.3981 12.7112 12.3141 13.0163 12.375L17.3712 13.4288L20.8538 11.0462V6.0038C20.8538 4.99546 21.2359 4.12463 22 3.3913C22.7641 2.65796 23.6808 2.2913 24.75 2.2913C25.7891 2.2913 26.6446 2.5817 27.3163 3.1625C27.9888 3.7433 28.3862 4.50706 28.5087 5.4538C28.5696 5.88206 28.4856 6.226 28.2568 6.4856C28.0273 6.7452 27.7292 6.875 27.3625 6.875C27.0567 6.875 26.8121 6.79873 26.6288 6.6462C26.4455 6.49293 26.3388 6.2788 26.3087 6.0038C26.2471 5.5154 26.0865 5.1337 25.8269 4.8587C25.5673 4.5837 25.2083 4.4462 24.75 4.4462C24.3225 4.4462 23.9481 4.60643 23.6269 4.9269C23.3064 5.2481 23.1462 5.60706 23.1462 6.0038V11.0462L26.6288 13.4288L30.9837 12.375C31.2888 12.3141 31.533 12.3981 31.7163 12.6269C31.8996 12.8564 31.9455 13.1087 31.8538 13.3837L23.1 39.05C23.0083 39.325 22.8631 39.5311 22.6644 39.6682C22.4657 39.8061 22.2442 39.875 22 39.875ZM23.1462 31.9L28.7375 15.2625L26.0788 15.9038L23.1462 13.8413V31.9ZM20.8538 31.9V13.8413L17.9212 15.95L15.1712 15.2163L20.8538 31.9Z" fill="black" fill-opacity="0.72"/>
<path d="M22 39.875C21.7558 39.875 21.5343 39.8138 21.3356 39.6913C21.1369 39.5696 20.9917 39.3712 20.9 39.0962L12.1 13.3837C12.0083 13.1087 12.0619 12.8564 12.2606 12.6269C12.4593 12.3981 12.7112 12.3141 13.0163 12.375L17.3712 13.4288L20.8538 11.0462V6.0038C20.8538 4.99546 21.2359 4.12463 22 3.3913C22.7641 2.65796 23.6808 2.2913 24.75 2.2913C25.7891 2.2913 26.6446 2.5817 27.3163 3.1625C27.9888 3.7433 28.3862 4.50706 28.5087 5.4538C28.5696 5.88206 28.4856 6.226 28.2568 6.4856C28.0273 6.7452 27.7292 6.875 27.3625 6.875C27.0567 6.875 26.8121 6.79873 26.6288 6.6462C26.4455 6.49293 26.3388 6.2788 26.3087 6.0038C26.2471 5.5154 26.0865 5.1337 25.8269 4.8587C25.5673 4.5837 25.2083 4.4462 24.75 4.4462C24.3225 4.4462 23.9481 4.60643 23.6269 4.9269C23.3064 5.2481 23.1462 5.60706 23.1462 6.0038V11.0462L26.6288 13.4288L30.9837 12.375C31.2888 12.3141 31.533 12.3981 31.7163 12.6269C31.8996 12.8564 31.9455 13.1087 31.8538 13.3837L23.1 39.05C23.0083 39.325 22.8631 39.5311 22.6644 39.6682C22.4657 39.8061 22.2442 39.875 22 39.875ZM23.1462 31.9L28.7375 15.2625L26.0788 15.9038L23.1462 13.8413V31.9ZM20.8538 31.9V13.8413L17.9212 15.95L15.1712 15.2163L20.8538 31.9Z" fill="#0055FF" fill-opacity="0.15"/>
</g>
</svg>
