<svg width="20" height="38" viewBox="0 0 20 38" fill="none" xmlns="http://www.w3.org/2000/svg">
<path d="M10 37.875C9.75584 37.875 9.53438 37.8138 9.33564 37.6913C9.13691 37.5696 8.99171 37.3712 8.90004 37.0962L0.100043 11.3837C0.00837676 11.1087 0.06191 10.8564 0.260643 10.6269C0.459377 10.3981 0.711277 10.3141 1.01634 10.375L5.37124 11.4288L8.85384 9.04619V4.00379C8.85384 2.99546 9.23591 2.12462 10 1.39129C10.7642 0.657957 11.6808 0.29129 12.75 0.29129C13.7892 0.29129 14.6446 0.58169 15.3163 1.16249C15.9888 1.74329 16.3863 2.50706 16.5087 3.45379C16.5696 3.88206 16.4856 4.22599 16.2568 4.48559C16.0273 4.74519 15.7292 4.87499 15.3625 4.87499C15.0567 4.87499 14.8122 4.79872 14.6288 4.64619C14.4455 4.49292 14.3388 4.27879 14.3087 4.00379C14.2471 3.51539 14.0865 3.13369 13.8269 2.85869C13.5673 2.58369 13.2084 2.44619 12.75 2.44619C12.3225 2.44619 11.9481 2.60642 11.6269 2.92689C11.3065 3.24809 11.1462 3.60706 11.1462 4.00379V9.04619L14.6288 11.4288L18.9837 10.375C19.2888 10.3141 19.533 10.3981 19.7163 10.6269C19.8997 10.8564 19.9455 11.1087 19.8538 11.3837L11.1 37.05C11.0084 37.325 10.8632 37.5311 10.6644 37.6682C10.4657 37.8061 10.2442 37.875 10 37.875ZM11.1462 29.9L16.7375 13.2625L14.0788 13.9038L11.1462 11.8413V29.9ZM8.85384 29.9V11.8413L5.92124 13.95L3.17124 13.2163L8.85384 29.9Z" fill="#3F4961"/>
</svg>
