<svg width="96" height="22" viewBox="0 0 96 22" fill="none" xmlns="http://www.w3.org/2000/svg">
<path d="M2.73422 0V16.8916H0V0H2.73422Z" fill="white"/>
<path d="M2.73422 0V16.8916H0V0H2.73422Z" fill="black" fill-opacity="0.79"/>
<path d="M2.73422 0V16.8916H0V0H2.73422Z" fill="#0055FF" fill-opacity="0.1"/>
<path d="M14.3472 10.3983C14.3472 9.5356 14.1041 8.84692 13.6181 8.3323C13.1472 7.81768 12.4332 7.56037 11.4763 7.56037C10.9446 7.56037 10.4509 7.6966 9.99522 7.96904C9.5547 8.22635 9.20533 8.58204 8.9471 9.03612C8.68887 9.47506 8.56735 9.95941 8.58253 10.4892V16.8689H5.8711V4.90403H8.58253V6.72033C8.97748 6.1603 9.47116 5.72136 10.0636 5.40351C10.6712 5.07052 11.2788 4.90403 11.8864 4.90403C13.3902 4.90403 14.6282 5.3581 15.6004 6.26625C16.5725 7.17441 17.0586 8.52907 17.0586 10.3302V16.8689H14.3472V10.3983Z" fill="white"/>
<path d="M14.3472 10.3983C14.3472 9.5356 14.1041 8.84692 13.6181 8.3323C13.1472 7.81768 12.4332 7.56037 11.4763 7.56037C10.9446 7.56037 10.4509 7.6966 9.99522 7.96904C9.5547 8.22635 9.20533 8.58204 8.9471 9.03612C8.68887 9.47506 8.56735 9.95941 8.58253 10.4892V16.8689H5.8711V4.90403H8.58253V6.72033C8.97748 6.1603 9.47116 5.72136 10.0636 5.40351C10.6712 5.07052 11.2788 4.90403 11.8864 4.90403C13.3902 4.90403 14.6282 5.3581 15.6004 6.26625C16.5725 7.17441 17.0586 8.52907 17.0586 10.3302V16.8689H14.3472V10.3983Z" fill="black" fill-opacity="0.79"/>
<path d="M14.3472 10.3983C14.3472 9.5356 14.1041 8.84692 13.6181 8.3323C13.1472 7.81768 12.4332 7.56037 11.4763 7.56037C10.9446 7.56037 10.4509 7.6966 9.99522 7.96904C9.5547 8.22635 9.20533 8.58204 8.9471 9.03612C8.68887 9.47506 8.56735 9.95941 8.58253 10.4892V16.8689H5.8711V4.90403H8.58253V6.72033C8.97748 6.1603 9.47116 5.72136 10.0636 5.40351C10.6712 5.07052 11.2788 4.90403 11.8864 4.90403C13.3902 4.90403 14.6282 5.3581 15.6004 6.26625C16.5725 7.17441 17.0586 8.52907 17.0586 10.3302V16.8689H14.3472V10.3983Z" fill="#0055FF" fill-opacity="0.1"/>
<path d="M25.1135 14.3261C25.6756 14.3261 26.1996 14.1748 26.6857 13.872C27.1718 13.5693 27.5591 13.1531 27.8478 12.6233C28.1364 12.0936 28.2807 11.5108 28.2807 10.8751C28.2807 10.2546 28.1364 9.68696 27.8478 9.17234C27.5591 8.65772 27.1718 8.24905 26.6857 7.94634C26.1996 7.64362 25.6756 7.49226 25.1135 7.49226C24.0806 7.49226 23.2983 7.81011 22.7667 8.44582C22.235 9.06639 21.9692 9.87616 21.9692 10.8751C21.9692 11.9044 22.235 12.7368 22.7667 13.3726C23.2983 14.0083 24.0806 14.3261 25.1135 14.3261ZM19.1894 10.8978C19.1894 9.74751 19.4096 8.71827 19.8502 7.81011C20.3059 6.90196 20.9666 6.19057 21.8325 5.67595C22.6983 5.1462 23.7236 4.88132 24.9085 4.88132C25.5313 4.88132 26.1768 5.02511 26.8452 5.31269C27.5136 5.58514 28.0604 6.05435 28.4857 6.72033V4.81321H31.22V16.1878C31.22 17.3987 30.9314 18.4431 30.3541 19.321C29.7769 20.1988 29.0022 20.8648 28.03 21.3189C27.0579 21.773 25.9718 22 24.7718 22C23.7085 22 22.6983 21.7503 21.7413 21.2508C20.7995 20.7664 20.0476 20.108 19.4856 19.2755L21.7869 17.7544C22.1515 18.2993 22.6148 18.7004 23.1768 18.9577C23.7388 19.215 24.2705 19.3437 24.7718 19.3437C25.349 19.3437 25.9186 19.2453 26.4806 19.0485C27.0427 18.8517 27.5136 18.5415 27.8933 18.1176C28.2883 17.709 28.4857 17.1792 28.4857 16.5284V15.0299C27.9997 15.711 27.43 16.203 26.7769 16.5057C26.1237 16.8084 25.5009 16.9598 24.9085 16.9598C23.7236 16.9598 22.6983 16.7024 21.8325 16.1878C20.9666 15.6581 20.3059 14.9391 19.8502 14.031C19.4096 13.1077 19.1894 12.0633 19.1894 10.8978Z" fill="white"/>
<path d="M25.1135 14.3261C25.6756 14.3261 26.1996 14.1748 26.6857 13.872C27.1718 13.5693 27.5591 13.1531 27.8478 12.6233C28.1364 12.0936 28.2807 11.5108 28.2807 10.8751C28.2807 10.2546 28.1364 9.68696 27.8478 9.17234C27.5591 8.65772 27.1718 8.24905 26.6857 7.94634C26.1996 7.64362 25.6756 7.49226 25.1135 7.49226C24.0806 7.49226 23.2983 7.81011 22.7667 8.44582C22.235 9.06639 21.9692 9.87616 21.9692 10.8751C21.9692 11.9044 22.235 12.7368 22.7667 13.3726C23.2983 14.0083 24.0806 14.3261 25.1135 14.3261ZM19.1894 10.8978C19.1894 9.74751 19.4096 8.71827 19.8502 7.81011C20.3059 6.90196 20.9666 6.19057 21.8325 5.67595C22.6983 5.1462 23.7236 4.88132 24.9085 4.88132C25.5313 4.88132 26.1768 5.02511 26.8452 5.31269C27.5136 5.58514 28.0604 6.05435 28.4857 6.72033V4.81321H31.22V16.1878C31.22 17.3987 30.9314 18.4431 30.3541 19.321C29.7769 20.1988 29.0022 20.8648 28.03 21.3189C27.0579 21.773 25.9718 22 24.7718 22C23.7085 22 22.6983 21.7503 21.7413 21.2508C20.7995 20.7664 20.0476 20.108 19.4856 19.2755L21.7869 17.7544C22.1515 18.2993 22.6148 18.7004 23.1768 18.9577C23.7388 19.215 24.2705 19.3437 24.7718 19.3437C25.349 19.3437 25.9186 19.2453 26.4806 19.0485C27.0427 18.8517 27.5136 18.5415 27.8933 18.1176C28.2883 17.709 28.4857 17.1792 28.4857 16.5284V15.0299C27.9997 15.711 27.43 16.203 26.7769 16.5057C26.1237 16.8084 25.5009 16.9598 24.9085 16.9598C23.7236 16.9598 22.6983 16.7024 21.8325 16.1878C20.9666 15.6581 20.3059 14.9391 19.8502 14.031C19.4096 13.1077 19.1894 12.0633 19.1894 10.8978Z" fill="black" fill-opacity="0.79"/>
<path d="M25.1135 14.3261C25.6756 14.3261 26.1996 14.1748 26.6857 13.872C27.1718 13.5693 27.5591 13.1531 27.8478 12.6233C28.1364 12.0936 28.2807 11.5108 28.2807 10.8751C28.2807 10.2546 28.1364 9.68696 27.8478 9.17234C27.5591 8.65772 27.1718 8.24905 26.6857 7.94634C26.1996 7.64362 25.6756 7.49226 25.1135 7.49226C24.0806 7.49226 23.2983 7.81011 22.7667 8.44582C22.235 9.06639 21.9692 9.87616 21.9692 10.8751C21.9692 11.9044 22.235 12.7368 22.7667 13.3726C23.2983 14.0083 24.0806 14.3261 25.1135 14.3261ZM19.1894 10.8978C19.1894 9.74751 19.4096 8.71827 19.8502 7.81011C20.3059 6.90196 20.9666 6.19057 21.8325 5.67595C22.6983 5.1462 23.7236 4.88132 24.9085 4.88132C25.5313 4.88132 26.1768 5.02511 26.8452 5.31269C27.5136 5.58514 28.0604 6.05435 28.4857 6.72033V4.81321H31.22V16.1878C31.22 17.3987 30.9314 18.4431 30.3541 19.321C29.7769 20.1988 29.0022 20.8648 28.03 21.3189C27.0579 21.773 25.9718 22 24.7718 22C23.7085 22 22.6983 21.7503 21.7413 21.2508C20.7995 20.7664 20.0476 20.108 19.4856 19.2755L21.7869 17.7544C22.1515 18.2993 22.6148 18.7004 23.1768 18.9577C23.7388 19.215 24.2705 19.3437 24.7718 19.3437C25.349 19.3437 25.9186 19.2453 26.4806 19.0485C27.0427 18.8517 27.5136 18.5415 27.8933 18.1176C28.2883 17.709 28.4857 17.1792 28.4857 16.5284V15.0299C27.9997 15.711 27.43 16.203 26.7769 16.5057C26.1237 16.8084 25.5009 16.9598 24.9085 16.9598C23.7236 16.9598 22.6983 16.7024 21.8325 16.1878C20.9666 15.6581 20.3059 14.9391 19.8502 14.031C19.4096 13.1077 19.1894 12.0633 19.1894 10.8978Z" fill="#0055FF" fill-opacity="0.1"/>
<path d="M38.9744 14.3942C39.9769 14.3942 40.782 14.0688 41.3896 13.418C42.0124 12.752 42.3238 11.9119 42.3238 10.8978C42.3238 9.89887 42.0124 9.07396 41.3896 8.42312C40.782 7.75714 39.9769 7.42415 38.9744 7.42415C37.9719 7.42415 37.1592 7.75714 36.5364 8.42312C35.9288 9.07396 35.625 9.89887 35.625 10.8978C35.625 11.9119 35.9288 12.752 36.5364 13.418C37.1592 14.0688 37.9719 14.3942 38.9744 14.3942ZM33.1186 10.8978C33.1186 9.80805 33.3617 8.80151 33.8477 7.87823C34.349 6.9398 35.0402 6.19814 35.9212 5.65325C36.8174 5.10836 37.8351 4.83591 38.9744 4.83591C40.1592 4.83591 41.1922 5.10836 42.0732 5.65325C42.9694 6.19814 43.653 6.93223 44.1239 7.85552C44.5947 8.77881 44.8302 9.79292 44.8302 10.8978C44.8302 12.0028 44.5947 13.0169 44.1239 13.9401C43.653 14.8634 42.9694 15.5975 42.0732 16.1424C41.1922 16.6873 40.1592 16.9598 38.9744 16.9598C37.8351 16.9598 36.8174 16.6873 35.9212 16.1424C35.0402 15.5975 34.349 14.8634 33.8477 13.9401C33.3617 13.0017 33.1186 11.9876 33.1186 10.8978Z" fill="white"/>
<path d="M38.9744 14.3942C39.9769 14.3942 40.782 14.0688 41.3896 13.418C42.0124 12.752 42.3238 11.9119 42.3238 10.8978C42.3238 9.89887 42.0124 9.07396 41.3896 8.42312C40.782 7.75714 39.9769 7.42415 38.9744 7.42415C37.9719 7.42415 37.1592 7.75714 36.5364 8.42312C35.9288 9.07396 35.625 9.89887 35.625 10.8978C35.625 11.9119 35.9288 12.752 36.5364 13.418C37.1592 14.0688 37.9719 14.3942 38.9744 14.3942ZM33.1186 10.8978C33.1186 9.80805 33.3617 8.80151 33.8477 7.87823C34.349 6.9398 35.0402 6.19814 35.9212 5.65325C36.8174 5.10836 37.8351 4.83591 38.9744 4.83591C40.1592 4.83591 41.1922 5.10836 42.0732 5.65325C42.9694 6.19814 43.653 6.93223 44.1239 7.85552C44.5947 8.77881 44.8302 9.79292 44.8302 10.8978C44.8302 12.0028 44.5947 13.0169 44.1239 13.9401C43.653 14.8634 42.9694 15.5975 42.0732 16.1424C41.1922 16.6873 40.1592 16.9598 38.9744 16.9598C37.8351 16.9598 36.8174 16.6873 35.9212 16.1424C35.0402 15.5975 34.349 14.8634 33.8477 13.9401C33.3617 13.0017 33.1186 11.9876 33.1186 10.8978Z" fill="black" fill-opacity="0.79"/>
<path d="M38.9744 14.3942C39.9769 14.3942 40.782 14.0688 41.3896 13.418C42.0124 12.752 42.3238 11.9119 42.3238 10.8978C42.3238 9.89887 42.0124 9.07396 41.3896 8.42312C40.782 7.75714 39.9769 7.42415 38.9744 7.42415C37.9719 7.42415 37.1592 7.75714 36.5364 8.42312C35.9288 9.07396 35.625 9.89887 35.625 10.8978C35.625 11.9119 35.9288 12.752 36.5364 13.418C37.1592 14.0688 37.9719 14.3942 38.9744 14.3942ZM33.1186 10.8978C33.1186 9.80805 33.3617 8.80151 33.8477 7.87823C34.349 6.9398 35.0402 6.19814 35.9212 5.65325C36.8174 5.10836 37.8351 4.83591 38.9744 4.83591C40.1592 4.83591 41.1922 5.10836 42.0732 5.65325C42.9694 6.19814 43.653 6.93223 44.1239 7.85552C44.5947 8.77881 44.8302 9.79292 44.8302 10.8978C44.8302 12.0028 44.5947 13.0169 44.1239 13.9401C43.653 14.8634 42.9694 15.5975 42.0732 16.1424C41.1922 16.6873 40.1592 16.9598 38.9744 16.9598C37.8351 16.9598 36.8174 16.6873 35.9212 16.1424C35.0402 15.5975 34.349 14.8634 33.8477 13.9401C33.3617 13.0017 33.1186 11.9876 33.1186 10.8978Z" fill="#0055FF" fill-opacity="0.1"/>
<path d="M53.2349 14.485C54.2526 14.485 55.0577 14.1445 55.6501 13.4634C56.2425 12.7823 56.5387 11.9195 56.5387 10.8751C56.5387 9.84589 56.2425 8.99828 55.6501 8.3323C55.0577 7.65119 54.2526 7.31063 53.2349 7.31063C52.6577 7.31063 52.1184 7.46956 51.6171 7.78741C51.1159 8.10526 50.7133 8.53664 50.4095 9.08153C50.1057 9.62642 49.9538 10.2243 49.9538 10.8751C49.9538 11.5411 50.1057 12.1541 50.4095 12.7141C50.7133 13.259 51.1159 13.6904 51.6171 14.0083C52.1184 14.3261 52.6577 14.485 53.2349 14.485ZM47.1057 4.81321H49.8399V6.69763C50.2197 6.06192 50.7741 5.59271 51.5032 5.28999C52.2475 4.97214 52.8931 4.81321 53.44 4.81321C54.5792 4.81321 55.5818 5.09322 56.4476 5.65325C57.3286 6.19814 58.0046 6.93223 58.4755 7.85552C58.9464 8.77881 59.1818 9.78535 59.1818 10.8751C59.1818 11.9801 58.9464 13.0017 58.4755 13.9401C58.0046 14.8634 57.3286 15.5975 56.4476 16.1424C55.5818 16.6873 54.5792 16.9598 53.44 16.9598C52.8627 16.9598 52.2096 16.8084 51.4804 16.5057C50.7665 16.203 50.2197 15.7186 49.8399 15.0526V22H47.1057V4.81321Z" fill="white"/>
<path d="M53.2349 14.485C54.2526 14.485 55.0577 14.1445 55.6501 13.4634C56.2425 12.7823 56.5387 11.9195 56.5387 10.8751C56.5387 9.84589 56.2425 8.99828 55.6501 8.3323C55.0577 7.65119 54.2526 7.31063 53.2349 7.31063C52.6577 7.31063 52.1184 7.46956 51.6171 7.78741C51.1159 8.10526 50.7133 8.53664 50.4095 9.08153C50.1057 9.62642 49.9538 10.2243 49.9538 10.8751C49.9538 11.5411 50.1057 12.1541 50.4095 12.7141C50.7133 13.259 51.1159 13.6904 51.6171 14.0083C52.1184 14.3261 52.6577 14.485 53.2349 14.485ZM47.1057 4.81321H49.8399V6.69763C50.2197 6.06192 50.7741 5.59271 51.5032 5.28999C52.2475 4.97214 52.8931 4.81321 53.44 4.81321C54.5792 4.81321 55.5818 5.09322 56.4476 5.65325C57.3286 6.19814 58.0046 6.93223 58.4755 7.85552C58.9464 8.77881 59.1818 9.78535 59.1818 10.8751C59.1818 11.9801 58.9464 13.0017 58.4755 13.9401C58.0046 14.8634 57.3286 15.5975 56.4476 16.1424C55.5818 16.6873 54.5792 16.9598 53.44 16.9598C52.8627 16.9598 52.2096 16.8084 51.4804 16.5057C50.7665 16.203 50.2197 15.7186 49.8399 15.0526V22H47.1057V4.81321Z" fill="black" fill-opacity="0.79"/>
<path d="M53.2349 14.485C54.2526 14.485 55.0577 14.1445 55.6501 13.4634C56.2425 12.7823 56.5387 11.9195 56.5387 10.8751C56.5387 9.84589 56.2425 8.99828 55.6501 8.3323C55.0577 7.65119 54.2526 7.31063 53.2349 7.31063C52.6577 7.31063 52.1184 7.46956 51.6171 7.78741C51.1159 8.10526 50.7133 8.53664 50.4095 9.08153C50.1057 9.62642 49.9538 10.2243 49.9538 10.8751C49.9538 11.5411 50.1057 12.1541 50.4095 12.7141C50.7133 13.259 51.1159 13.6904 51.6171 14.0083C52.1184 14.3261 52.6577 14.485 53.2349 14.485ZM47.1057 4.81321H49.8399V6.69763C50.2197 6.06192 50.7741 5.59271 51.5032 5.28999C52.2475 4.97214 52.8931 4.81321 53.44 4.81321C54.5792 4.81321 55.5818 5.09322 56.4476 5.65325C57.3286 6.19814 58.0046 6.93223 58.4755 7.85552C58.9464 8.77881 59.1818 9.78535 59.1818 10.8751C59.1818 11.9801 58.9464 13.0017 58.4755 13.9401C58.0046 14.8634 57.3286 15.5975 56.4476 16.1424C55.5818 16.6873 54.5792 16.9598 53.44 16.9598C52.8627 16.9598 52.2096 16.8084 51.4804 16.5057C50.7665 16.203 50.2197 15.7186 49.8399 15.0526V22H47.1057V4.81321Z" fill="#0055FF" fill-opacity="0.1"/>
<path d="M67.0575 14.4623C67.6195 14.4623 68.1436 14.3185 68.6297 14.031C69.1157 13.7282 69.5107 13.312 69.8145 12.7823C70.1183 12.2525 70.2702 11.6622 70.2702 11.0114C70.2702 10.3454 70.1183 9.74751 69.8145 9.21775C69.5107 8.688 69.1157 8.27933 68.6297 7.99174C68.1436 7.68903 67.6195 7.53767 67.0575 7.53767C66.0094 7.53767 65.2119 7.86309 64.665 8.51393C64.1182 9.14964 63.8448 9.98211 63.8448 11.0114C63.8448 12.0406 64.1182 12.8731 64.665 13.5088C65.2119 14.1445 66.0094 14.4623 67.0575 14.4623ZM61.1106 11.0114C61.1106 9.90644 61.3384 8.8999 61.7941 7.99174C62.2498 7.06846 62.9106 6.33436 63.7764 5.78947C64.6423 5.24458 65.66 4.97214 66.8296 4.97214C67.498 4.97214 68.1436 5.13106 68.7664 5.44892C69.3892 5.75163 69.936 6.21328 70.4069 6.83385V4.90403H73.1411V16.8689H70.4069V15.1662C69.9512 15.7867 69.4044 16.2559 68.7664 16.5738C68.1436 16.8916 67.498 17.0506 66.8296 17.0506C65.66 17.0506 64.6423 16.7781 63.7764 16.2332C62.9106 15.6883 62.2498 14.9618 61.7941 14.0537C61.3384 13.1304 61.1106 12.1163 61.1106 11.0114Z" fill="white"/>
<path d="M67.0575 14.4623C67.6195 14.4623 68.1436 14.3185 68.6297 14.031C69.1157 13.7282 69.5107 13.312 69.8145 12.7823C70.1183 12.2525 70.2702 11.6622 70.2702 11.0114C70.2702 10.3454 70.1183 9.74751 69.8145 9.21775C69.5107 8.688 69.1157 8.27933 68.6297 7.99174C68.1436 7.68903 67.6195 7.53767 67.0575 7.53767C66.0094 7.53767 65.2119 7.86309 64.665 8.51393C64.1182 9.14964 63.8448 9.98211 63.8448 11.0114C63.8448 12.0406 64.1182 12.8731 64.665 13.5088C65.2119 14.1445 66.0094 14.4623 67.0575 14.4623ZM61.1106 11.0114C61.1106 9.90644 61.3384 8.8999 61.7941 7.99174C62.2498 7.06846 62.9106 6.33436 63.7764 5.78947C64.6423 5.24458 65.66 4.97214 66.8296 4.97214C67.498 4.97214 68.1436 5.13106 68.7664 5.44892C69.3892 5.75163 69.936 6.21328 70.4069 6.83385V4.90403H73.1411V16.8689H70.4069V15.1662C69.9512 15.7867 69.4044 16.2559 68.7664 16.5738C68.1436 16.8916 67.498 17.0506 66.8296 17.0506C65.66 17.0506 64.6423 16.7781 63.7764 16.2332C62.9106 15.6883 62.2498 14.9618 61.7941 14.0537C61.3384 13.1304 61.1106 12.1163 61.1106 11.0114Z" fill="black" fill-opacity="0.79"/>
<path d="M67.0575 14.4623C67.6195 14.4623 68.1436 14.3185 68.6297 14.031C69.1157 13.7282 69.5107 13.312 69.8145 12.7823C70.1183 12.2525 70.2702 11.6622 70.2702 11.0114C70.2702 10.3454 70.1183 9.74751 69.8145 9.21775C69.5107 8.688 69.1157 8.27933 68.6297 7.99174C68.1436 7.68903 67.6195 7.53767 67.0575 7.53767C66.0094 7.53767 65.2119 7.86309 64.665 8.51393C64.1182 9.14964 63.8448 9.98211 63.8448 11.0114C63.8448 12.0406 64.1182 12.8731 64.665 13.5088C65.2119 14.1445 66.0094 14.4623 67.0575 14.4623ZM61.1106 11.0114C61.1106 9.90644 61.3384 8.8999 61.7941 7.99174C62.2498 7.06846 62.9106 6.33436 63.7764 5.78947C64.6423 5.24458 65.66 4.97214 66.8296 4.97214C67.498 4.97214 68.1436 5.13106 68.7664 5.44892C69.3892 5.75163 69.936 6.21328 70.4069 6.83385V4.90403H73.1411V16.8689H70.4069V15.1662C69.9512 15.7867 69.4044 16.2559 68.7664 16.5738C68.1436 16.8916 67.498 17.0506 66.8296 17.0506C65.66 17.0506 64.6423 16.7781 63.7764 16.2332C62.9106 15.6883 62.2498 14.9618 61.7941 14.0537C61.3384 13.1304 61.1106 12.1163 61.1106 11.0114Z" fill="#0055FF" fill-opacity="0.1"/>
<path d="M80.5881 17.0733C79.3729 17.0733 78.2337 16.71 77.1704 15.9835C76.5931 15.5597 76.0539 14.871 75.5526 13.9174L77.8083 12.6914C78.0058 13.1304 78.2868 13.4785 78.6514 13.7358C79.0767 14.0234 79.4413 14.2202 79.7451 14.3261C80.0489 14.4169 80.4135 14.4623 80.8388 14.4623C81.1274 14.4472 81.4084 14.3791 81.6818 14.258C81.9401 14.1672 82.1299 14.0385 82.2515 13.872C82.3426 13.7358 82.3882 13.6072 82.3882 13.4861C82.3882 13.3347 82.3122 13.1985 82.1603 13.0774C82.0236 12.9714 81.8489 12.8806 81.6363 12.805C81.4236 12.7141 81.1198 12.6006 80.7249 12.4644L80.0413 12.2147L79.1982 11.8968C78.8793 11.7757 78.6286 11.6698 78.4463 11.5789C78.2641 11.473 78.059 11.3443 77.8311 11.193C77.3906 10.9205 77.0564 10.6103 76.8286 10.2621C76.6159 9.98968 76.4412 9.67183 76.3045 9.30857C76.183 8.9453 76.1222 8.57448 76.1222 8.19608C76.1222 7.63605 76.2514 7.1063 76.5096 6.60681C76.859 5.94083 77.383 5.47162 78.0818 5.19917C78.7805 4.91159 79.4717 4.7678 80.1552 4.7678C80.7325 4.7678 81.3325 4.85105 81.9553 5.01754C82.5932 5.18404 83.1781 5.46405 83.7097 5.85758C84.1047 6.17544 84.4009 6.47059 84.5983 6.74303L82.4565 8.3096C82.3958 8.21878 82.3046 8.12797 82.1831 8.03715C81.6059 7.62848 80.8843 7.40901 80.0185 7.37874C79.4413 7.40901 79.0463 7.56794 78.8337 7.85552C78.7577 7.96147 78.7198 8.08256 78.7198 8.21878C78.7198 8.33987 78.7577 8.46096 78.8337 8.58204C78.8944 8.70313 79.0387 8.83935 79.2666 8.99071C79.6008 9.21775 79.9122 9.37668 80.2008 9.46749L81.0211 9.76264C82.0084 10.0956 82.7375 10.3984 83.2084 10.6708C83.6793 10.9432 84.0363 11.2308 84.2793 11.5335C84.7502 12.1087 84.9857 12.7747 84.9857 13.5315C84.9857 14.0764 84.8338 14.6213 84.53 15.1662C84.1502 15.7716 83.5426 16.2711 82.7072 16.6646C82.4034 16.8008 82.054 16.8992 81.659 16.9598C81.2793 17.0354 80.9223 17.0733 80.5881 17.0733Z" fill="white"/>
<path d="M80.5881 17.0733C79.3729 17.0733 78.2337 16.71 77.1704 15.9835C76.5931 15.5597 76.0539 14.871 75.5526 13.9174L77.8083 12.6914C78.0058 13.1304 78.2868 13.4785 78.6514 13.7358C79.0767 14.0234 79.4413 14.2202 79.7451 14.3261C80.0489 14.4169 80.4135 14.4623 80.8388 14.4623C81.1274 14.4472 81.4084 14.3791 81.6818 14.258C81.9401 14.1672 82.1299 14.0385 82.2515 13.872C82.3426 13.7358 82.3882 13.6072 82.3882 13.4861C82.3882 13.3347 82.3122 13.1985 82.1603 13.0774C82.0236 12.9714 81.8489 12.8806 81.6363 12.805C81.4236 12.7141 81.1198 12.6006 80.7249 12.4644L80.0413 12.2147L79.1982 11.8968C78.8793 11.7757 78.6286 11.6698 78.4463 11.5789C78.2641 11.473 78.059 11.3443 77.8311 11.193C77.3906 10.9205 77.0564 10.6103 76.8286 10.2621C76.6159 9.98968 76.4412 9.67183 76.3045 9.30857C76.183 8.9453 76.1222 8.57448 76.1222 8.19608C76.1222 7.63605 76.2514 7.1063 76.5096 6.60681C76.859 5.94083 77.383 5.47162 78.0818 5.19917C78.7805 4.91159 79.4717 4.7678 80.1552 4.7678C80.7325 4.7678 81.3325 4.85105 81.9553 5.01754C82.5932 5.18404 83.1781 5.46405 83.7097 5.85758C84.1047 6.17544 84.4009 6.47059 84.5983 6.74303L82.4565 8.3096C82.3958 8.21878 82.3046 8.12797 82.1831 8.03715C81.6059 7.62848 80.8843 7.40901 80.0185 7.37874C79.4413 7.40901 79.0463 7.56794 78.8337 7.85552C78.7577 7.96147 78.7198 8.08256 78.7198 8.21878C78.7198 8.33987 78.7577 8.46096 78.8337 8.58204C78.8944 8.70313 79.0387 8.83935 79.2666 8.99071C79.6008 9.21775 79.9122 9.37668 80.2008 9.46749L81.0211 9.76264C82.0084 10.0956 82.7375 10.3984 83.2084 10.6708C83.6793 10.9432 84.0363 11.2308 84.2793 11.5335C84.7502 12.1087 84.9857 12.7747 84.9857 13.5315C84.9857 14.0764 84.8338 14.6213 84.53 15.1662C84.1502 15.7716 83.5426 16.2711 82.7072 16.6646C82.4034 16.8008 82.054 16.8992 81.659 16.9598C81.2793 17.0354 80.9223 17.0733 80.5881 17.0733Z" fill="black" fill-opacity="0.79"/>
<path d="M80.5881 17.0733C79.3729 17.0733 78.2337 16.71 77.1704 15.9835C76.5931 15.5597 76.0539 14.871 75.5526 13.9174L77.8083 12.6914C78.0058 13.1304 78.2868 13.4785 78.6514 13.7358C79.0767 14.0234 79.4413 14.2202 79.7451 14.3261C80.0489 14.4169 80.4135 14.4623 80.8388 14.4623C81.1274 14.4472 81.4084 14.3791 81.6818 14.258C81.9401 14.1672 82.1299 14.0385 82.2515 13.872C82.3426 13.7358 82.3882 13.6072 82.3882 13.4861C82.3882 13.3347 82.3122 13.1985 82.1603 13.0774C82.0236 12.9714 81.8489 12.8806 81.6363 12.805C81.4236 12.7141 81.1198 12.6006 80.7249 12.4644L80.0413 12.2147L79.1982 11.8968C78.8793 11.7757 78.6286 11.6698 78.4463 11.5789C78.2641 11.473 78.059 11.3443 77.8311 11.193C77.3906 10.9205 77.0564 10.6103 76.8286 10.2621C76.6159 9.98968 76.4412 9.67183 76.3045 9.30857C76.183 8.9453 76.1222 8.57448 76.1222 8.19608C76.1222 7.63605 76.2514 7.1063 76.5096 6.60681C76.859 5.94083 77.383 5.47162 78.0818 5.19917C78.7805 4.91159 79.4717 4.7678 80.1552 4.7678C80.7325 4.7678 81.3325 4.85105 81.9553 5.01754C82.5932 5.18404 83.1781 5.46405 83.7097 5.85758C84.1047 6.17544 84.4009 6.47059 84.5983 6.74303L82.4565 8.3096C82.3958 8.21878 82.3046 8.12797 82.1831 8.03715C81.6059 7.62848 80.8843 7.40901 80.0185 7.37874C79.4413 7.40901 79.0463 7.56794 78.8337 7.85552C78.7577 7.96147 78.7198 8.08256 78.7198 8.21878C78.7198 8.33987 78.7577 8.46096 78.8337 8.58204C78.8944 8.70313 79.0387 8.83935 79.2666 8.99071C79.6008 9.21775 79.9122 9.37668 80.2008 9.46749L81.0211 9.76264C82.0084 10.0956 82.7375 10.3984 83.2084 10.6708C83.6793 10.9432 84.0363 11.2308 84.2793 11.5335C84.7502 12.1087 84.9857 12.7747 84.9857 13.5315C84.9857 14.0764 84.8338 14.6213 84.53 15.1662C84.1502 15.7716 83.5426 16.2711 82.7072 16.6646C82.4034 16.8008 82.054 16.8992 81.659 16.9598C81.2793 17.0354 80.9223 17.0733 80.5881 17.0733Z" fill="#0055FF" fill-opacity="0.1"/>
<path d="M91.6025 17.0733C90.3873 17.0733 89.248 16.71 88.1847 15.9835C87.6075 15.5597 87.0682 14.871 86.5669 13.9174L88.8227 12.6914C89.0201 13.1304 89.3012 13.4785 89.6657 13.7358C90.091 14.0234 90.4556 14.2202 90.7594 14.3261C91.0632 14.4169 91.4278 14.4623 91.8531 14.4623C92.1417 14.4472 92.4227 14.3791 92.6962 14.258C92.9544 14.1672 93.1443 14.0385 93.2658 13.872C93.3569 13.7358 93.4025 13.6072 93.4025 13.4861C93.4025 13.3347 93.3265 13.1985 93.1746 13.0774C93.0379 12.9714 92.8632 12.8806 92.6506 12.805C92.4379 12.7141 92.1341 12.6006 91.7392 12.4644L91.0556 12.2147L90.2126 11.8968C89.8936 11.7757 89.6429 11.6698 89.4607 11.5789C89.2784 11.473 89.0733 11.3443 88.8455 11.193C88.4049 10.9205 88.0708 10.6103 87.8429 10.2621C87.6302 9.98968 87.4556 9.67183 87.3188 9.30857C87.1973 8.9453 87.1366 8.57448 87.1366 8.19608C87.1366 7.63605 87.2657 7.1063 87.5239 6.60681C87.8733 5.94083 88.3973 5.47162 89.0961 5.19917C89.7948 4.91159 90.486 4.7678 91.1695 4.7678C91.7468 4.7678 92.3468 4.85105 92.9696 5.01754C93.6076 5.18404 94.1924 5.46405 94.724 5.85758C95.119 6.17544 95.4152 6.47059 95.6126 6.74303L93.4708 8.3096C93.4101 8.21878 93.3189 8.12797 93.1974 8.03715C92.6202 7.62848 91.8987 7.40901 91.0328 7.37874C90.4556 7.40901 90.0607 7.56794 89.848 7.85552C89.7721 7.96147 89.7341 8.08256 89.7341 8.21878C89.7341 8.33987 89.7721 8.46096 89.848 8.58204C89.9088 8.70313 90.0531 8.83935 90.2809 8.99071C90.6151 9.21775 90.9265 9.37668 91.2151 9.46749L92.0354 9.76264C93.0227 10.0956 93.7519 10.3984 94.2228 10.6708C94.6936 10.9432 95.0506 11.2308 95.2937 11.5335C95.7645 12.1087 96 12.7747 96 13.5315C96 14.0764 95.8481 14.6213 95.5443 15.1662C95.1645 15.7716 94.5569 16.2711 93.7215 16.6646C93.4177 16.8008 93.0683 16.8992 92.6734 16.9598C92.2936 17.0354 91.9366 17.0733 91.6025 17.0733Z" fill="white"/>
<path d="M91.6025 17.0733C90.3873 17.0733 89.248 16.71 88.1847 15.9835C87.6075 15.5597 87.0682 14.871 86.5669 13.9174L88.8227 12.6914C89.0201 13.1304 89.3012 13.4785 89.6657 13.7358C90.091 14.0234 90.4556 14.2202 90.7594 14.3261C91.0632 14.4169 91.4278 14.4623 91.8531 14.4623C92.1417 14.4472 92.4227 14.3791 92.6962 14.258C92.9544 14.1672 93.1443 14.0385 93.2658 13.872C93.3569 13.7358 93.4025 13.6072 93.4025 13.4861C93.4025 13.3347 93.3265 13.1985 93.1746 13.0774C93.0379 12.9714 92.8632 12.8806 92.6506 12.805C92.4379 12.7141 92.1341 12.6006 91.7392 12.4644L91.0556 12.2147L90.2126 11.8968C89.8936 11.7757 89.6429 11.6698 89.4607 11.5789C89.2784 11.473 89.0733 11.3443 88.8455 11.193C88.4049 10.9205 88.0708 10.6103 87.8429 10.2621C87.6302 9.98968 87.4556 9.67183 87.3188 9.30857C87.1973 8.9453 87.1366 8.57448 87.1366 8.19608C87.1366 7.63605 87.2657 7.1063 87.5239 6.60681C87.8733 5.94083 88.3973 5.47162 89.0961 5.19917C89.7948 4.91159 90.486 4.7678 91.1695 4.7678C91.7468 4.7678 92.3468 4.85105 92.9696 5.01754C93.6076 5.18404 94.1924 5.46405 94.724 5.85758C95.119 6.17544 95.4152 6.47059 95.6126 6.74303L93.4708 8.3096C93.4101 8.21878 93.3189 8.12797 93.1974 8.03715C92.6202 7.62848 91.8987 7.40901 91.0328 7.37874C90.4556 7.40901 90.0607 7.56794 89.848 7.85552C89.7721 7.96147 89.7341 8.08256 89.7341 8.21878C89.7341 8.33987 89.7721 8.46096 89.848 8.58204C89.9088 8.70313 90.0531 8.83935 90.2809 8.99071C90.6151 9.21775 90.9265 9.37668 91.2151 9.46749L92.0354 9.76264C93.0227 10.0956 93.7519 10.3984 94.2228 10.6708C94.6936 10.9432 95.0506 11.2308 95.2937 11.5335C95.7645 12.1087 96 12.7747 96 13.5315C96 14.0764 95.8481 14.6213 95.5443 15.1662C95.1645 15.7716 94.5569 16.2711 93.7215 16.6646C93.4177 16.8008 93.0683 16.8992 92.6734 16.9598C92.2936 17.0354 91.9366 17.0733 91.6025 17.0733Z" fill="black" fill-opacity="0.79"/>
<path d="M91.6025 17.0733C90.3873 17.0733 89.248 16.71 88.1847 15.9835C87.6075 15.5597 87.0682 14.871 86.5669 13.9174L88.8227 12.6914C89.0201 13.1304 89.3012 13.4785 89.6657 13.7358C90.091 14.0234 90.4556 14.2202 90.7594 14.3261C91.0632 14.4169 91.4278 14.4623 91.8531 14.4623C92.1417 14.4472 92.4227 14.3791 92.6962 14.258C92.9544 14.1672 93.1443 14.0385 93.2658 13.872C93.3569 13.7358 93.4025 13.6072 93.4025 13.4861C93.4025 13.3347 93.3265 13.1985 93.1746 13.0774C93.0379 12.9714 92.8632 12.8806 92.6506 12.805C92.4379 12.7141 92.1341 12.6006 91.7392 12.4644L91.0556 12.2147L90.2126 11.8968C89.8936 11.7757 89.6429 11.6698 89.4607 11.5789C89.2784 11.473 89.0733 11.3443 88.8455 11.193C88.4049 10.9205 88.0708 10.6103 87.8429 10.2621C87.6302 9.98968 87.4556 9.67183 87.3188 9.30857C87.1973 8.9453 87.1366 8.57448 87.1366 8.19608C87.1366 7.63605 87.2657 7.1063 87.5239 6.60681C87.8733 5.94083 88.3973 5.47162 89.0961 5.19917C89.7948 4.91159 90.486 4.7678 91.1695 4.7678C91.7468 4.7678 92.3468 4.85105 92.9696 5.01754C93.6076 5.18404 94.1924 5.46405 94.724 5.85758C95.119 6.17544 95.4152 6.47059 95.6126 6.74303L93.4708 8.3096C93.4101 8.21878 93.3189 8.12797 93.1974 8.03715C92.6202 7.62848 91.8987 7.40901 91.0328 7.37874C90.4556 7.40901 90.0607 7.56794 89.848 7.85552C89.7721 7.96147 89.7341 8.08256 89.7341 8.21878C89.7341 8.33987 89.7721 8.46096 89.848 8.58204C89.9088 8.70313 90.0531 8.83935 90.2809 8.99071C90.6151 9.21775 90.9265 9.37668 91.2151 9.46749L92.0354 9.76264C93.0227 10.0956 93.7519 10.3984 94.2228 10.6708C94.6936 10.9432 95.0506 11.2308 95.2937 11.5335C95.7645 12.1087 96 12.7747 96 13.5315C96 14.0764 95.8481 14.6213 95.5443 15.1662C95.1645 15.7716 94.5569 16.2711 93.7215 16.6646C93.4177 16.8008 93.0683 16.8992 92.6734 16.9598C92.2936 17.0354 91.9366 17.0733 91.6025 17.0733Z" fill="#0055FF" fill-opacity="0.1"/>
</svg>
