<svg width="94" height="23" viewBox="0 0 94 23" fill="none" xmlns="http://www.w3.org/2000/svg">
<path d="M3.224 0.873999V17.242H0.584V0.873999H3.224ZM14.4368 10.95C14.4368 10.114 14.2021 9.44667 13.7328 8.948C13.2781 8.44933 12.5888 8.2 11.6648 8.2C11.1514 8.2 10.6748 8.332 10.2348 8.596C9.80945 8.84533 9.47211 9.19 9.22278 9.63C8.97345 10.0553 8.85611 10.5247 8.87078 11.038V17.22H6.25278V5.626H8.87078V7.254C9.16411 6.74067 9.60411 6.34467 10.1908 6.066C10.7774 5.77267 11.3568 5.626 11.9288 5.626C12.8528 5.626 13.7034 5.80933 14.4808 6.176C15.2581 6.54267 15.8814 7.1 16.3508 7.848C16.8201 8.58133 17.0548 9.48333 17.0548 10.554V17.22H14.4368V10.95ZM24.8321 14.756C25.3748 14.756 25.8808 14.6093 26.3501 14.316C26.8195 14.0227 27.1935 13.6193 27.4721 13.106C27.7508 12.5927 27.8901 12.028 27.8901 11.412C27.8901 10.8107 27.7508 10.2607 27.4721 9.762C27.1935 9.26333 26.8195 8.86733 26.3501 8.574C25.8808 8.28067 25.3748 8.134 24.8321 8.134C23.8348 8.134 23.0795 8.442 22.5661 9.058C22.0528 9.65933 21.7961 10.444 21.7961 11.412C21.7961 12.4093 22.0528 13.216 22.5661 13.832C23.0795 14.448 23.8348 14.756 24.8321 14.756ZM19.1121 11.434C19.1121 10.3193 19.3248 9.322 19.7501 8.442C20.1901 7.562 20.8281 6.87267 21.6641 6.374C22.5001 5.86067 23.4901 5.604 24.6341 5.604C25.2355 5.604 25.8588 5.74333 26.5041 6.022C27.1495 6.286 27.6775 6.74067 28.0881 7.386V5.538H30.7281V16.56C30.7281 17.7333 30.4495 18.7453 29.8921 19.596C29.3348 20.4467 28.5868 21.092 27.6481 21.532C26.7095 21.972 25.6608 22.192 24.5021 22.192C23.4755 22.192 22.5001 21.95 21.5761 21.466C20.6668 20.9967 19.9408 20.3587 19.3981 19.552L21.6201 18.078C21.9721 18.606 22.4195 18.9947 22.9621 19.244C23.5048 19.4933 24.0181 19.618 24.5021 19.618C25.0595 19.618 25.6095 19.5227 26.1521 19.332C26.6948 19.1413 27.1495 18.8407 27.5161 18.43C27.8975 18.034 28.0881 17.5207 28.0881 16.89V15.438C27.6188 16.098 27.0688 16.5747 26.4381 16.868C25.8075 17.1613 25.2061 17.308 24.6341 17.308C23.4901 17.308 22.5001 17.0587 21.6641 16.56C20.8281 16.0467 20.1901 15.35 19.7501 14.47C19.3248 13.5753 19.1121 12.5633 19.1121 11.434ZM38.2153 14.822C39.1833 14.822 39.9607 14.5067 40.5473 13.876C41.1487 13.2307 41.4493 12.4167 41.4493 11.434C41.4493 10.466 41.1487 9.66667 40.5473 9.036C39.9607 8.39067 39.1833 8.068 38.2153 8.068C37.2473 8.068 36.4627 8.39067 35.8613 9.036C35.2747 9.66667 34.9813 10.466 34.9813 11.434C34.9813 12.4167 35.2747 13.2307 35.8613 13.876C36.4627 14.5067 37.2473 14.822 38.2153 14.822ZM32.5613 11.434C32.5613 10.378 32.796 9.40267 33.2653 8.508C33.7493 7.59867 34.4167 6.88 35.2673 6.352C36.1327 5.824 37.1153 5.56 38.2153 5.56C39.3593 5.56 40.3567 5.824 41.2073 6.352C42.0727 6.88 42.7327 7.59133 43.1873 8.486C43.642 9.38067 43.8693 10.3633 43.8693 11.434C43.8693 12.5047 43.642 13.4873 43.1873 14.382C42.7327 15.2767 42.0727 15.988 41.2073 16.516C40.3567 17.044 39.3593 17.308 38.2153 17.308C37.1153 17.308 36.1327 17.044 35.2673 16.516C34.4167 15.988 33.7493 15.2767 33.2653 14.382C32.796 13.4727 32.5613 12.49 32.5613 11.434ZM51.9844 14.91C52.9671 14.91 53.7444 14.58 54.3164 13.92C54.8884 13.26 55.1744 12.424 55.1744 11.412C55.1744 10.4147 54.8884 9.59333 54.3164 8.948C53.7444 8.288 52.9671 7.958 51.9844 7.958C51.4271 7.958 50.9064 8.112 50.4224 8.42C49.9384 8.728 49.5498 9.146 49.2564 9.674C48.9631 10.202 48.8164 10.7813 48.8164 11.412C48.8164 12.0573 48.9631 12.6513 49.2564 13.194C49.5498 13.722 49.9384 14.14 50.4224 14.448C50.9064 14.756 51.4271 14.91 51.9844 14.91ZM46.0664 5.538H48.7064V7.364C49.0731 6.748 49.6084 6.29333 50.3124 6C51.0311 5.692 51.6544 5.538 52.1824 5.538C53.2824 5.538 54.2504 5.80933 55.0864 6.352C55.9371 6.88 56.5898 7.59133 57.0444 8.486C57.4991 9.38067 57.7264 10.356 57.7264 11.412C57.7264 12.4827 57.4991 13.4727 57.0444 14.382C56.5898 15.2767 55.9371 15.988 55.0864 16.516C54.2504 17.044 53.2824 17.308 52.1824 17.308C51.6251 17.308 50.9944 17.1613 50.2904 16.868C49.6011 16.5747 49.0731 16.1053 48.7064 15.46V22.192H46.0664V5.538ZM65.3307 14.888C65.8734 14.888 66.3794 14.7487 66.8487 14.47C67.318 14.1767 67.6994 13.7733 67.9927 13.26C68.286 12.7467 68.4327 12.1747 68.4327 11.544C68.4327 10.8987 68.286 10.3193 67.9927 9.806C67.6994 9.29267 67.318 8.89667 66.8487 8.618C66.3794 8.32467 65.8734 8.178 65.3307 8.178C64.3187 8.178 63.5487 8.49333 63.0207 9.124C62.4927 9.74 62.2287 10.5467 62.2287 11.544C62.2287 12.5413 62.4927 13.348 63.0207 13.964C63.5487 14.58 64.3187 14.888 65.3307 14.888ZM59.5887 11.544C59.5887 10.4733 59.8087 9.498 60.2487 8.618C60.6887 7.72333 61.3267 7.012 62.1627 6.484C62.9987 5.956 63.9814 5.692 65.1107 5.692C65.756 5.692 66.3794 5.846 66.9807 6.154C67.582 6.44733 68.11 6.89467 68.5647 7.496V5.626H71.2047V17.22H68.5647V15.57C68.1247 16.1713 67.5967 16.626 66.9807 16.934C66.3794 17.242 65.756 17.396 65.1107 17.396C63.9814 17.396 62.9987 17.132 62.1627 16.604C61.3267 16.076 60.6887 15.372 60.2487 14.492C59.8087 13.5973 59.5887 12.6147 59.5887 11.544ZM80.3751 9.278C80.1697 8.98467 79.9424 8.75 79.6931 8.574C79.1064 8.222 78.4464 8.046 77.7131 8.046C77.0971 8.046 76.6717 8.21467 76.4371 8.552C76.3784 8.66933 76.3491 8.77933 76.3491 8.882C76.3491 9.014 76.3931 9.146 76.4811 9.278C76.5397 9.39533 76.6864 9.51267 76.9211 9.63C77.2584 9.82067 77.5664 9.96 77.8451 10.048L78.6371 10.29C79.6051 10.554 80.3237 10.8107 80.7931 11.06C81.2771 11.2947 81.6437 11.5513 81.8931 11.83C82.4211 12.446 82.6851 13.1353 82.6851 13.898C82.6851 14.382 82.5677 14.8587 82.3331 15.328C81.9957 15.9293 81.4311 16.4427 80.6391 16.868C80.0524 17.1613 79.4584 17.33 78.8571 17.374C78.7251 17.3887 78.5271 17.396 78.2631 17.396C77.2657 17.396 76.2757 17.1027 75.2931 16.516C74.8824 16.2667 74.5011 15.9147 74.1491 15.46C73.8117 15.0053 73.5844 14.6533 73.4671 14.404L75.6231 13.106C75.7551 13.37 75.8871 13.59 76.0191 13.766C76.1511 13.942 76.3344 14.1107 76.5691 14.272C76.9211 14.492 77.2291 14.646 77.4931 14.734C77.7717 14.8073 78.0724 14.844 78.3951 14.844C78.6297 14.844 78.8277 14.8293 78.9891 14.8C79.1504 14.756 79.3264 14.69 79.5171 14.602C79.7517 14.514 79.9204 14.382 80.0231 14.206C80.0964 14.118 80.1331 14.008 80.1331 13.876C80.1331 13.7293 80.0671 13.59 79.9351 13.458C79.8177 13.3847 79.6711 13.3187 79.4951 13.26C79.3337 13.1867 79.1431 13.1207 78.9231 13.062C78.7177 12.9887 78.5344 12.9227 78.3731 12.864L77.8451 12.71L77.0091 12.468C76.6864 12.3653 76.4297 12.2773 76.2391 12.204C76.0631 12.116 75.8724 11.9987 75.6671 11.852C75.2857 11.6467 74.9411 11.368 74.6331 11.016C74.3984 10.7373 74.2077 10.4073 74.0611 10.026C73.9144 9.64467 73.8411 9.24867 73.8411 8.838C73.8411 8.36867 73.9364 7.92133 74.1271 7.496C74.4791 6.76267 75.0291 6.24933 75.7771 5.956C76.5251 5.648 77.2364 5.494 77.9111 5.494C79.0991 5.494 80.1404 5.78733 81.0351 6.374C81.6364 6.78467 82.1057 7.276 82.4431 7.848L80.3751 9.278ZM90.9024 9.278C90.6971 8.98467 90.4698 8.75 90.2204 8.574C89.6338 8.222 88.9738 8.046 88.2404 8.046C87.6244 8.046 87.1991 8.21467 86.9644 8.552C86.9058 8.66933 86.8764 8.77933 86.8764 8.882C86.8764 9.014 86.9204 9.146 87.0084 9.278C87.0671 9.39533 87.2138 9.51267 87.4484 9.63C87.7858 9.82067 88.0938 9.96 88.3724 10.048L89.1644 10.29C90.1324 10.554 90.8511 10.8107 91.3204 11.06C91.8044 11.2947 92.1711 11.5513 92.4204 11.83C92.9484 12.446 93.2124 13.1353 93.2124 13.898C93.2124 14.382 93.0951 14.8587 92.8604 15.328C92.5231 15.9293 91.9584 16.4427 91.1664 16.868C90.5798 17.1613 89.9858 17.33 89.3844 17.374C89.2524 17.3887 89.0544 17.396 88.7904 17.396C87.7931 17.396 86.8031 17.1027 85.8204 16.516C85.4098 16.2667 85.0284 15.9147 84.6764 15.46C84.3391 15.0053 84.1118 14.6533 83.9944 14.404L86.1504 13.106C86.2824 13.37 86.4144 13.59 86.5464 13.766C86.6784 13.942 86.8618 14.1107 87.0964 14.272C87.4484 14.492 87.7564 14.646 88.0204 14.734C88.2991 14.8073 88.5998 14.844 88.9224 14.844C89.1571 14.844 89.3551 14.8293 89.5164 14.8C89.6778 14.756 89.8538 14.69 90.0444 14.602C90.2791 14.514 90.4478 14.382 90.5504 14.206C90.6238 14.118 90.6604 14.008 90.6604 13.876C90.6604 13.7293 90.5944 13.59 90.4624 13.458C90.3451 13.3847 90.1984 13.3187 90.0224 13.26C89.8611 13.1867 89.6704 13.1207 89.4504 13.062C89.2451 12.9887 89.0618 12.9227 88.9004 12.864L88.3724 12.71L87.5364 12.468C87.2138 12.3653 86.9571 12.2773 86.7664 12.204C86.5904 12.116 86.3998 11.9987 86.1944 11.852C85.8131 11.6467 85.4684 11.368 85.1604 11.016C84.9258 10.7373 84.7351 10.4073 84.5884 10.026C84.4418 9.64467 84.3684 9.24867 84.3684 8.838C84.3684 8.36867 84.4638 7.92133 84.6544 7.496C85.0064 6.76267 85.5564 6.24933 86.3044 5.956C87.0524 5.648 87.7638 5.494 88.4384 5.494C89.6264 5.494 90.6678 5.78733 91.5624 6.374C92.1638 6.78467 92.6331 7.276 92.9704 7.848L90.9024 9.278Z" fill="#31394A"/>
</svg>
